<?xml version="1.0" encoding="UTF-8"?>
<svg version="1.1" xmlns="http://www.w3.org/2000/svg" width="522" height="521">
<path d="M0 0 C1.40190875 -0.00258621 2.80381676 -0.00560008 4.20572376 -0.0090034 C8.0488895 -0.01704676 11.89203654 -0.01886148 15.7352097 -0.01960087 C19.88401998 -0.02145611 24.03282066 -0.02900587 28.18162537 -0.03573608 C37.25010928 -0.04930161 46.31858877 -0.05534152 55.38708115 -0.05974674 C61.05392297 -0.06251252 66.72076309 -0.06675052 72.38760376 -0.07125092 C88.08968498 -0.08344191 103.79176485 -0.09374114 119.49385071 -0.09712601 C120.49828687 -0.09734557 121.50272303 -0.09756514 122.53759664 -0.09779136 C123.54438532 -0.09800964 124.55117399 -0.09822791 125.58847141 -0.09845281 C127.62847964 -0.09889627 129.66848787 -0.09934283 131.70849609 -0.09979248 C132.72040256 -0.10001391 133.73230903 -0.10023534 134.77487934 -0.10046348 C151.16019924 -0.10440893 167.5454746 -0.12185598 183.93077731 -0.145152 C200.7693879 -0.16889844 217.60797618 -0.18132938 234.44660378 -0.18249393 C243.89431815 -0.1834089 253.34197451 -0.18911641 262.78967285 -0.20731354 C270.83695224 -0.2227591 278.88415568 -0.22780885 286.93144709 -0.21957543 C291.0325509 -0.21568448 295.13350197 -0.21652189 299.23458672 -0.23063278 C302.99894121 -0.24346582 306.76302966 -0.24209287 310.52738428 -0.23004207 C312.51322014 -0.22719127 314.499061 -0.23894921 316.48485947 -0.25146413 C328.27760827 -0.18741828 339.7690774 1.76856038 350.87597656 5.82794189 C351.93220215 6.21139771 351.93220215 6.21139771 353.00976562 6.6026001 C378.69085618 16.30968198 396.89524061 36.23750497 408.74316406 60.59747314 C415.00275796 74.72048725 416.61832616 89.12322609 416.5809021 104.43891907 C416.58464829 105.83419473 416.58925362 107.22946831 416.59463274 108.62473863 C416.60675879 112.4219129 416.6066147 116.21899839 416.60424399 120.01618755 C416.60383316 124.12614131 416.61490023 128.2360676 416.62435913 132.3460083 C416.64091331 140.38479853 416.64646616 148.42355942 416.64758389 156.46236528 C416.6485371 163.00317304 416.65266096 169.5439712 416.65898514 176.08477592 C416.67658295 194.66608374 416.68582639 213.24736854 416.68432419 231.82868475 C416.68420432 233.32866494 416.68420432 233.32866494 416.68408203 234.85894775 C416.68400027 235.86016843 416.68391851 236.86138911 416.68383427 237.89294981 C416.68302197 254.10640015 416.70214943 270.31975745 416.73035876 286.5331809 C416.75915569 303.21719872 416.7728953 319.90117128 416.77117121 336.58521456 C416.77050962 345.93744015 416.7759001 355.28956824 416.79752731 364.64177132 C416.81582906 372.60643915 416.82001327 380.57096527 416.80650847 388.53564513 C416.80002361 392.590871 416.7996969 396.64582573 416.81721497 400.70102501 C416.95857644 435.64427054 411.77584162 464.81413971 386.67285156 490.88262939 C365.62893937 511.57867869 337.90349471 519.49836738 308.96862793 519.39440918 C307.5928123 519.39672103 306.21699791 519.39990236 304.84118605 519.40386367 C301.10727692 519.41212098 297.37347159 519.40812829 293.63956237 519.40189123 C289.59450478 519.39733013 285.54946395 519.40436848 281.50440979 519.40985107 C273.59857612 519.41870799 265.69278058 519.41683965 257.78694546 519.41102579 C251.35722297 519.40649466 244.92751111 519.40590265 238.49778748 519.40807343 C237.12103932 519.40853312 237.12103932 519.40853312 235.71647808 519.40900211 C233.85146606 519.40964161 231.98645404 519.41029004 230.12144202 519.41094729 C212.66519844 519.41663974 195.20897592 519.41010976 177.75273579 519.39934656 C162.79982764 519.39041204 147.84695056 519.39196439 132.89404297 519.40118408 C115.49693113 519.41190592 98.09983771 519.41609052 80.70272303 519.40995955 C78.84487057 519.40932251 76.98701811 519.40869377 75.12916565 519.40807343 C74.21525243 519.40776487 73.30133921 519.40745632 72.35973164 519.40713842 C65.94354683 519.40541722 59.52737378 519.40831415 53.1111908 519.41303253 C45.28369859 519.41866268 37.45624645 519.41708028 29.62875879 519.40647104 C25.64104915 519.40124292 21.65340613 519.39910835 17.6656971 519.40576935 C14.00532785 519.41179074 10.34508611 519.40835334 6.68472821 519.39781424 C4.75495591 519.39457155 2.82517454 519.40099539 0.89541197 519.40792871 C-10.78309826 519.35633635 -22.60568207 518.43769956 -33.68652344 514.51544189 C-34.43289062 514.25746826 -35.17925781 513.99949463 -35.94824219 513.73370361 C-47.81866652 509.46367619 -58.18259691 503.47693108 -67.68652344 495.14044189 C-68.80414063 494.23745361 -68.80414063 494.23745361 -69.94433594 493.31622314 C-89.0312268 477.45481732 -99.63492367 453.36902577 -102.68652344 429.14044189 C-102.95348899 424.40542955 -102.96130275 419.6836822 -102.94721985 414.94203186 C-102.95024713 413.54548158 -102.95413948 412.14893297 -102.95881242 410.75238723 C-102.96902717 406.94715727 -102.96692738 403.14202222 -102.96263182 399.33678472 C-102.9601526 395.22005745 -102.96919363 391.10335232 -102.97666931 386.9866333 C-102.98938601 378.93333506 -102.99121373 370.8800702 -102.98886905 362.82676361 C-102.98708205 356.27589515 -102.98884371 349.72503679 -102.99309349 343.17416954 C-102.99398627 341.7726996 -102.99398627 341.7726996 -102.99489709 340.34291714 C-102.99610892 338.44448998 -102.99732305 336.54606282 -102.99853947 334.64763566 C-103.0094037 316.86324454 -103.00725803 299.07887241 -103.00115462 281.29448023 C-102.99598854 265.05308952 -103.00723475 248.81175885 -103.02625284 232.57038001 C-103.04566323 215.86493903 -103.05388151 199.15952641 -103.05012959 182.45407408 C-103.04822213 173.08685848 -103.0506604 163.71969393 -103.06484413 154.35248756 C-103.0767999 146.37638053 -103.07811615 138.40035598 -103.06605396 130.42424772 C-103.0601941 126.36134506 -103.05898482 122.29859294 -103.07105637 118.23570061 C-103.17059426 82.18815925 -97.66452824 53.57943418 -71.84277344 27.19903564 C-52.46889029 8.11059329 -26.76215184 -0.01789005 0 0 Z " fill="#990C13" transform="translate(104.6865234375,0.85955810546875)"/>
<path d="M0 0 C1.40190875 -0.00258621 2.80381676 -0.00560008 4.20572376 -0.0090034 C8.0488895 -0.01704676 11.89203654 -0.01886148 15.7352097 -0.01960087 C19.88401998 -0.02145611 24.03282066 -0.02900587 28.18162537 -0.03573608 C37.25010928 -0.04930161 46.31858877 -0.05534152 55.38708115 -0.05974674 C61.05392297 -0.06251252 66.72076309 -0.06675052 72.38760376 -0.07125092 C88.08968498 -0.08344191 103.79176485 -0.09374114 119.49385071 -0.09712601 C120.49828687 -0.09734557 121.50272303 -0.09756514 122.53759664 -0.09779136 C123.54438532 -0.09800964 124.55117399 -0.09822791 125.58847141 -0.09845281 C127.62847964 -0.09889627 129.66848787 -0.09934283 131.70849609 -0.09979248 C132.72040256 -0.10001391 133.73230903 -0.10023534 134.77487934 -0.10046348 C151.16019924 -0.10440893 167.5454746 -0.12185598 183.93077731 -0.145152 C200.7693879 -0.16889844 217.60797618 -0.18132938 234.44660378 -0.18249393 C243.89431815 -0.1834089 253.34197451 -0.18911641 262.78967285 -0.20731354 C270.83695224 -0.2227591 278.88415568 -0.22780885 286.93144709 -0.21957543 C291.0325509 -0.21568448 295.13350197 -0.21652189 299.23458672 -0.23063278 C302.99894121 -0.24346582 306.76302966 -0.24209287 310.52738428 -0.23004207 C312.51322014 -0.22719127 314.499061 -0.23894921 316.48485947 -0.25146413 C328.27760827 -0.18741828 339.7690774 1.76856038 350.87597656 5.82794189 C351.93220215 6.21139771 351.93220215 6.21139771 353.00976562 6.6026001 C378.69085618 16.30968198 396.89524061 36.23750497 408.74316406 60.59747314 C415.00275796 74.72048725 416.61832616 89.12322609 416.5809021 104.43891907 C416.58464829 105.83419473 416.58925362 107.22946831 416.59463274 108.62473863 C416.60675879 112.4219129 416.6066147 116.21899839 416.60424399 120.01618755 C416.60383316 124.12614131 416.61490023 128.2360676 416.62435913 132.3460083 C416.64091331 140.38479853 416.64646616 148.42355942 416.64758389 156.46236528 C416.6485371 163.00317304 416.65266096 169.5439712 416.65898514 176.08477592 C416.67658295 194.66608374 416.68582639 213.24736854 416.68432419 231.82868475 C416.68420432 233.32866494 416.68420432 233.32866494 416.68408203 234.85894775 C416.68400027 235.86016843 416.68391851 236.86138911 416.68383427 237.89294981 C416.68302197 254.10640015 416.70214943 270.31975745 416.73035876 286.5331809 C416.75915569 303.21719872 416.7728953 319.90117128 416.77117121 336.58521456 C416.77050962 345.93744015 416.7759001 355.28956824 416.79752731 364.64177132 C416.81582906 372.60643915 416.82001327 380.57096527 416.80650847 388.53564513 C416.80002361 392.590871 416.7996969 396.64582573 416.81721497 400.70102501 C416.95857644 435.64427054 411.77584162 464.81413971 386.67285156 490.88262939 C365.62893937 511.57867869 337.90349471 519.49836738 308.96862793 519.39440918 C307.5928123 519.39672103 306.21699791 519.39990236 304.84118605 519.40386367 C301.10727692 519.41212098 297.37347159 519.40812829 293.63956237 519.40189123 C289.59450478 519.39733013 285.54946395 519.40436848 281.50440979 519.40985107 C273.59857612 519.41870799 265.69278058 519.41683965 257.78694546 519.41102579 C251.35722297 519.40649466 244.92751111 519.40590265 238.49778748 519.40807343 C237.12103932 519.40853312 237.12103932 519.40853312 235.71647808 519.40900211 C233.85146606 519.40964161 231.98645404 519.41029004 230.12144202 519.41094729 C212.66519844 519.41663974 195.20897592 519.41010976 177.75273579 519.39934656 C162.79982764 519.39041204 147.84695056 519.39196439 132.89404297 519.40118408 C115.49693113 519.41190592 98.09983771 519.41609052 80.70272303 519.40995955 C78.84487057 519.40932251 76.98701811 519.40869377 75.12916565 519.40807343 C74.21525243 519.40776487 73.30133921 519.40745632 72.35973164 519.40713842 C65.94354683 519.40541722 59.52737378 519.40831415 53.1111908 519.41303253 C45.28369859 519.41866268 37.45624645 519.41708028 29.62875879 519.40647104 C25.64104915 519.40124292 21.65340613 519.39910835 17.6656971 519.40576935 C14.00532785 519.41179074 10.34508611 519.40835334 6.68472821 519.39781424 C4.75495591 519.39457155 2.82517454 519.40099539 0.89541197 519.40792871 C-10.78309826 519.35633635 -22.60568207 518.43769956 -33.68652344 514.51544189 C-34.43289062 514.25746826 -35.17925781 513.99949463 -35.94824219 513.73370361 C-47.81866652 509.46367619 -58.18259691 503.47693108 -67.68652344 495.14044189 C-68.80414063 494.23745361 -68.80414063 494.23745361 -69.94433594 493.31622314 C-89.0312268 477.45481732 -99.63492367 453.36902577 -102.68652344 429.14044189 C-102.95348899 424.40542955 -102.96130275 419.6836822 -102.94721985 414.94203186 C-102.95024713 413.54548158 -102.95413948 412.14893297 -102.95881242 410.75238723 C-102.96902717 406.94715727 -102.96692738 403.14202222 -102.96263182 399.33678472 C-102.9601526 395.22005745 -102.96919363 391.10335232 -102.97666931 386.9866333 C-102.98938601 378.93333506 -102.99121373 370.8800702 -102.98886905 362.82676361 C-102.98708205 356.27589515 -102.98884371 349.72503679 -102.99309349 343.17416954 C-102.99398627 341.7726996 -102.99398627 341.7726996 -102.99489709 340.34291714 C-102.99610892 338.44448998 -102.99732305 336.54606282 -102.99853947 334.64763566 C-103.0094037 316.86324454 -103.00725803 299.07887241 -103.00115462 281.29448023 C-102.99598854 265.05308952 -103.00723475 248.81175885 -103.02625284 232.57038001 C-103.04566323 215.86493903 -103.05388151 199.15952641 -103.05012959 182.45407408 C-103.04822213 173.08685848 -103.0506604 163.71969393 -103.06484413 154.35248756 C-103.0767999 146.37638053 -103.07811615 138.40035598 -103.06605396 130.42424772 C-103.0601941 126.36134506 -103.05898482 122.29859294 -103.07105637 118.23570061 C-103.17059426 82.18815925 -97.66452824 53.57943418 -71.84277344 27.19903564 C-52.46889029 8.11059329 -26.76215184 -0.01789005 0 0 Z M-39.68652344 69.14044189 C-50.74376564 82.460363 -56.15773914 97.0811952 -56.08093262 114.2386322 C-56.08702372 115.52699551 -56.09311482 116.81535882 -56.09939051 118.14276344 C-56.11570005 121.69417437 -56.11349059 125.245362 -56.10801554 128.79679716 C-56.10533412 132.6367806 -56.11989804 136.47670601 -56.1321106 140.31666565 C-56.15312118 147.83082134 -56.15770792 155.34489981 -56.15592271 162.85908141 C-56.15461269 168.97094733 -56.15843148 175.08278925 -56.16584778 181.19465065 C-56.16794709 182.95832898 -56.17004469 184.72200731 -56.1721406 186.48568565 C-56.17318413 187.36365929 -56.17422765 188.24163293 -56.1753028 189.14621184 C-56.19418811 205.73592323 -56.19316045 222.32559036 -56.18633348 238.91530804 C-56.18076134 254.06861294 -56.20157243 269.2217486 -56.23469394 284.37501397 C-56.26848683 299.95715852 -56.28359218 315.53922214 -56.27897692 331.12140399 C-56.27673761 339.86040926 -56.28189597 348.5992582 -56.30686951 357.33823204 C-56.32795529 364.77980105 -56.33140305 372.22112803 -56.31256992 379.66270723 C-56.30345598 383.45407097 -56.30213391 387.24498434 -56.32292557 391.0363121 C-56.44527325 414.93602213 -54.29171266 433.69422007 -37.05371094 451.83184814 C-21.68876001 466.81647851 -4.69378977 472.65147646 16.58465576 472.5146637 C17.84321263 472.5186381 19.10176949 472.52261251 20.39846444 472.52670735 C23.84790239 472.53717304 27.29707662 472.52924535 30.74650264 472.51795685 C34.48337141 472.5090394 38.22020843 472.5175798 41.95707703 472.52381897 C49.25913818 472.53326432 56.56109989 472.52674532 63.86315361 472.51455603 C72.37685381 472.5008777 80.89053081 472.50257893 89.40423921 472.50468936 C104.59780089 472.50787282 119.79131554 472.49624706 134.98486328 472.47662354 C149.71111481 472.4576087 164.43731129 472.45054031 179.16357422 472.45611572 C195.22534455 472.46217884 211.28709074 472.46198772 227.34885907 472.45062989 C229.06256183 472.44942267 230.77626459 472.44821668 232.48996735 472.44701195 C233.33301225 472.44640841 234.17605715 472.44580487 235.04464887 472.44518304 C240.97274915 472.4413111 246.90084041 472.44169466 252.82894135 472.44359779 C260.05457259 472.44572376 267.28015574 472.44046495 274.50577345 472.42598424 C278.1890656 472.41876083 281.87228784 472.41464568 285.55558586 472.4192276 C289.55386983 472.42408028 293.55196368 472.41335212 297.55023193 472.40113831 C299.28399649 472.40680729 299.28399649 472.40680729 301.05278659 472.4125908 C320.57720787 472.30722169 336.90657132 465.15863478 351.12597656 451.89044189 C364.77898578 437.50960682 369.63683114 420.59324187 369.57417297 401.30126953 C369.57799852 400.04078552 369.58182407 398.78030152 369.58576554 397.48162103 C369.5959927 394.00812502 369.5938773 390.53473283 369.58958495 387.06122851 C369.58710802 383.3051257 369.59614391 379.54904725 369.60362244 375.79295349 C369.61634531 368.44357503 369.61816609 361.09423316 369.61582217 353.74484554 C369.61403592 347.76741579 369.61579523 341.7899971 369.62004662 335.81256866 C369.6209394 334.53428426 369.6209394 334.53428426 369.62185022 333.23017593 C369.62306203 331.4986785 369.62427617 329.76718108 369.6254926 328.03568366 C369.63635913 311.81178562 369.63421001 295.58790838 369.62810775 279.36400917 C369.62294106 264.54309815 369.63418907 249.7222529 369.65320597 234.90135488 C369.67260944 219.66161724 369.68083586 204.42191068 369.67708272 189.18216062 C369.67517426 180.63493513 369.67762333 172.0877656 369.69179726 163.54055023 C369.70374415 156.26295837 369.7050791 148.9854569 369.69300709 141.70786372 C369.68714114 137.99976316 369.68595508 134.29182764 369.69800949 130.58373833 C369.71096436 126.55154602 369.70034956 122.51974213 369.68769836 118.48754883 C369.69507265 117.33284678 369.70244693 116.17814474 369.71004468 114.98845172 C369.58525832 95.97447825 363.5786709 79.91665495 350.31347656 66.14044189 C335.16302288 51.5519834 317.52750553 45.99536038 296.93118286 45.98654175 C295.68354593 45.98215949 294.435909 45.97777724 293.15046489 45.97326219 C289.6988185 45.96135539 286.24718604 45.95566201 282.79552317 45.95108104 C279.06794231 45.94510244 275.34037792 45.93349831 271.61280823 45.92279053 C262.61594284 45.89831784 253.61907202 45.88364681 244.62218362 45.87073046 C242.07837359 45.86701474 239.5345641 45.86304182 236.9907546 45.85897779 C221.17246705 45.8337372 205.35417856 45.81169801 189.53587532 45.79924965 C185.87547935 45.79632027 182.2150834 45.79335856 178.5546875 45.79034424 C177.64498655 45.78959819 176.73528561 45.78885214 175.79801796 45.78808348 C161.07590786 45.7754417 146.35391884 45.74223129 131.63186528 45.70054241 C116.49504469 45.65803264 101.35828595 45.63454421 86.22140586 45.62932909 C77.73154749 45.62592519 69.24187836 45.61429119 60.75207901 45.58122635 C53.51875401 45.55310009 46.2856571 45.54228126 39.05228169 45.55342181 C35.36800982 45.55857655 31.68421463 45.55593228 28.00001335 45.53095627 C1.41814274 45.36073676 -20.58390423 48.73112887 -39.68652344 69.14044189 Z " fill="#730410" transform="translate(104.6865234375,0.85955810546875)"/>
<path d="M0 0 C2.48381023 3.49935631 3.64388528 6.77367442 4.60546875 10.9296875 C4.99702148 12.61771484 4.99702148 12.61771484 5.39648438 14.33984375 C5.78803711 16.08974609 5.78803711 16.08974609 6.1875 17.875 C6.59645508 19.61330078 6.59645508 19.61330078 7.01367188 21.38671875 C9.5762908 32.62627543 9.5762908 32.62627543 9 38 C6.25945323 40.74054677 3.98589232 40.74510511 0.1875 41.4375 C-6.92843804 42.74971197 -13.95429857 44.35309065 -21 46 C-23.13125561 46.48939225 -25.26276283 46.97769015 -27.39453125 47.46484375 C-37.75035123 49.83898072 -48.09048746 52.23886893 -58.38598633 54.86303711 C-64.40440655 56.36650202 -70.45426384 57.73647378 -76.5 59.125 C-77.70398438 59.40214844 -78.90796875 59.67929688 -80.1484375 59.96484375 C-83.09880547 60.64389669 -86.04932932 61.32226384 -89 62 C-89.00358253 63.41055145 -89.00358253 63.41055145 -89.00723743 64.84959888 C-89.06597614 87.7082317 -89.14182388 110.56675864 -89.23571491 133.42527485 C-89.28072152 144.47938905 -89.32012489 155.53347067 -89.34643555 166.58764648 C-89.36937629 176.22006023 -89.40273016 185.85237132 -89.44870156 195.48470372 C-89.47268684 200.58713675 -89.49138078 205.68946778 -89.49761391 210.79195595 C-89.50364085 215.59116078 -89.52355352 220.39010445 -89.55427551 225.1892128 C-89.56309426 226.95368452 -89.56677044 228.71819031 -89.56500816 230.48268318 C-89.56336521 232.88604357 -89.57996977 235.28859849 -89.60127258 237.69184875 C-89.59400122 238.74680628 -89.59400122 238.74680628 -89.58658296 239.82307607 C-89.62840674 242.66881718 -89.69524439 244.56375426 -91.35071087 246.9334898 C-93.90594266 248.58582639 -96.11744111 248.37142213 -99.12890625 248.36328125 C-100.32837891 248.36263672 -101.52785156 248.36199219 -102.76367188 248.36132812 C-104.01728516 248.34521484 -105.27089844 248.32910156 -106.5625 248.3125 C-108.4487207 248.31733398 -108.4487207 248.31733398 -110.37304688 248.32226562 C-119.73311942 248.26688058 -119.73311942 248.26688058 -122 246 C-122.24609566 242.98962975 -122.24609566 242.98962975 -122.24050903 239.03988647 C-122.24221788 238.31538886 -122.24392673 237.59089124 -122.24568737 236.84443915 C-122.24899489 234.40449452 -122.23795802 231.96482185 -122.22705078 229.52490234 C-122.22648694 227.78078722 -122.2268027 226.03667161 -122.22793579 224.29255676 C-122.22851136 219.5469175 -122.21672412 214.80137863 -122.20278788 210.05576277 C-122.19031443 205.10030083 -122.1891127 200.14483678 -122.18673706 195.18936157 C-122.18051231 185.80063296 -122.16408806 176.41195074 -122.14403808 167.02324259 C-122.12170999 156.3365862 -122.11069344 145.64992763 -122.10064721 134.96325374 C-122.07972268 112.97547657 -122.04452742 90.9877412 -122 69 C-122.91811148 69.23000859 -123.83622295 69.46001719 -124.78215599 69.69699574 C-128.23272945 70.5612162 -131.68340435 71.42502941 -135.13414574 72.28857899 C-136.61935164 72.66033824 -138.10451853 73.03225344 -139.58964348 73.40433598 C-150.25060171 76.07517797 -160.92003696 78.69825888 -171.625 81.1875 C-172.31595764 81.34820984 -173.00691528 81.50891968 -173.71881104 81.67449951 C-179.4941437 83.01763453 -179.4941437 83.01763453 -182.15682983 83.63446045 C-186.40890588 84.62152053 -190.65149112 85.6424794 -194.890625 86.68359375 C-195.91462402 86.93020752 -196.93862305 87.17682129 -197.99365234 87.4309082 C-199.85078052 87.87827436 -201.70552979 88.3356942 -203.55712891 88.80541992 C-204.36069824 88.99595947 -205.16426758 89.18649902 -205.9921875 89.3828125 C-206.67651855 89.55184082 -207.36084961 89.72086914 -208.06591797 89.89501953 C-210.61238847 90.03323997 -211.90027119 89.41688789 -214 88 C-215.16015625 84.9453125 -215.16015625 84.9453125 -216.0625 81.125 C-216.22459961 80.45460693 -216.38669922 79.78421387 -216.55371094 79.09350586 C-216.88504098 77.72148051 -217.21040691 76.34800114 -217.52978516 74.97314453 C-218.20224362 72.15133284 -218.98860484 69.36143149 -219.75 66.5625 C-220.90465335 61.80992131 -221.58840854 57.87538502 -221 53 C-219.72117206 50.964717 -218.3932054 48.95876402 -217 47 C-218.12305542 47.24121582 -218.12305542 47.24121582 -219.26879883 47.48730469 C-227.84503183 49.32877473 -236.42227124 51.16551099 -245 53 C-245.9679248 53.20737793 -246.93584961 53.41475586 -247.93310547 53.62841797 C-253.28444926 54.77362367 -258.63984908 55.89679765 -264 57 C-264.74797852 57.15629883 -265.49595703 57.31259766 -266.26660156 57.47363281 C-268.46742068 57.93044228 -270.67056954 58.37349067 -272.875 58.8125 C-274.13054687 59.06644531 -275.38609375 59.32039063 -276.6796875 59.58203125 C-279.87276409 59.98398324 -281.97914031 60.08511025 -285 59 C-288.35490801 52.76945654 -289.39762667 47.02473776 -289 40 C-286.3887802 37.3887802 -284.46782568 37.27414148 -280.859375 36.51953125 C-279.57571045 36.2460083 -278.2920459 35.97248535 -276.96948242 35.69067383 C-276.28244232 35.54771881 -275.59540222 35.40476379 -274.88754272 35.25747681 C-271.24599517 34.49940812 -267.60961515 33.71723349 -263.97265625 32.9375 C-263.22579056 32.77800369 -262.47892487 32.61850739 -261.70942688 32.45417786 C-254.17827793 30.83914546 -246.68295673 29.08538038 -239.1875 27.3125 C-230.12370869 25.17464669 -221.05671128 23.09635933 -211.93041992 21.24145508 C-208.58106624 20.55896486 -205.28446616 19.80674348 -201.9921875 18.89453125 C-197.37816221 17.76151977 -192.61881364 16.67139367 -188.16845703 18.92919922 C-186.37199137 20.17889277 -184.72030285 21.50956876 -183.0625 22.9375 C-182.48693359 23.40607422 -181.91136719 23.87464844 -181.31835938 24.35742188 C-176.05959404 28.66230045 -176.05959404 28.66230045 -175.625 31.125 C-176.02951748 34.22630066 -176.69656319 35.23040806 -178.5234375 37.6796875 C-178.98411621 38.30343262 -179.44479492 38.92717773 -179.91943359 39.56982422 C-180.27602051 40.04178223 -180.63260742 40.51374023 -181 41 C-180.18362061 40.79955078 -179.36724121 40.59910156 -178.52612305 40.39257812 C-162.29383059 36.41428512 -146.04783451 32.5140873 -129.75 28.8125 C-129.00552612 28.64339111 -128.26105225 28.47428223 -127.49401855 28.30004883 C-126.75445923 28.13206787 -126.0148999 27.96408691 -125.25292969 27.79101562 C-123.80011995 27.46098266 -122.34732026 27.13090545 -120.89453125 26.80078125 C-120.19786346 26.64247833 -119.50119568 26.48417542 -118.78341675 26.32107544 C-113.32703123 25.07913175 -107.87920771 23.80461027 -102.4375 22.5 C-101.25728271 22.21709106 -101.25728271 22.21709106 -100.05322266 21.9284668 C-99.23772949 21.73293213 -98.42223633 21.53739746 -97.58203125 21.3359375 C-76.4721917 16.27462942 -55.33171444 11.35369002 -34.1484375 6.609375 C-29.54456255 5.57749333 -24.94586097 4.52683008 -20.3515625 3.453125 C-19.33481445 3.21682373 -18.31806641 2.98052246 -17.27050781 2.73706055 C-15.40683231 2.30288387 -13.54411266 1.86457281 -11.68261719 1.42114258 C-2.91700688 -0.61267988 -2.91700688 -0.61267988 0 0 Z " fill="#EBE9E9" transform="translate(389,129)"/>
<path d="M0 0 C0.67363372 2.72761511 1.33909444 5.456799 2 8.1875 C2.28617187 9.34088867 2.28617187 9.34088867 2.578125 10.51757812 C2.84882812 11.64389648 2.84882812 11.64389648 3.125 12.79296875 C3.29257812 13.4789917 3.46015625 14.16501465 3.6328125 14.87182617 C4.04820495 17.27938997 4.02364861 19.56087516 4 22 C-11.29466045 25.73325566 -26.60254769 29.39925142 -41.9453125 32.9296875 C-42.65002434 33.09187019 -43.35473618 33.25405289 -44.08080292 33.42115021 C-49.09504705 34.57456319 -54.10996343 35.72503829 -59.125 36.875 C-64.23459852 38.04681582 -69.34394966 39.21969278 -74.45275497 40.39496231 C-76.46612213 40.8576076 -78.47988821 41.31848599 -80.49368286 41.77926636 C-82.3049617 42.19572922 -82.3049617 42.19572922 -84.15283203 42.62060547 C-85.7437114 42.98531448 -85.7437114 42.98531448 -87.36672974 43.35739136 C-90.0834457 43.98209236 -90.0834457 43.98209236 -93 45 C-93.495 136.08 -93.495 136.08 -94 229 C-98.62 229 -103.24 229 -108 229 C-108.0154612 225.65833458 -108.0154612 225.65833458 -108.03123474 222.24916077 C-108.12859517 201.30836526 -108.23142264 180.36760176 -108.33933926 159.42685795 C-108.39469462 148.65966456 -108.44818035 137.89246786 -108.49731445 127.12524414 C-108.54012802 117.74412672 -108.58639875 108.36303393 -108.63687855 98.98195451 C-108.66350234 94.01151227 -108.6883559 89.04107498 -108.70907402 84.07060432 C-108.72860551 79.39789483 -108.75273861 74.72523231 -108.78049088 70.05256462 C-108.78987986 68.33239466 -108.79754844 66.61221437 -108.80341911 64.89202881 C-108.81164906 62.55390809 -108.82591662 60.21590236 -108.84178162 57.87782288 C-108.84823417 56.56611146 -108.85468672 55.25440004 -108.8613348 53.9029398 C-108.66874119 51.107071 -108.66874119 51.107071 -110 50 C-115.14326088 49.72474627 -119.76784773 50.42227353 -124.73608398 51.63647461 C-125.47528076 51.81043259 -126.21447754 51.98439056 -126.97607422 52.16362 C-129.40116592 52.7360662 -131.82353202 53.31929301 -134.24609375 53.90234375 C-135.94309344 54.30431402 -137.64028624 54.70546985 -139.33766174 55.10585022 C-143.79622968 56.15926191 -148.25270331 57.22125585 -152.70861816 58.28582764 C-159.83555201 59.98777961 -166.96482119 61.67981767 -174.09553719 63.36584663 C-176.57574683 63.95408863 -179.05456886 64.54792342 -181.53330994 65.14231873 C-183.06699924 65.50645781 -184.60073409 65.87040515 -186.13452148 66.23413086 C-186.81476883 66.39884888 -187.49501617 66.56356689 -188.19587708 66.73327637 C-192.79022607 67.81555611 -197.31674104 68.47989137 -202 69 C-202.89992696 65.61027513 -203.76544508 62.21266646 -204.625 58.8125 C-204.88023437 57.85279297 -205.13546875 56.89308594 -205.3984375 55.90429688 C-205.63046875 54.97294922 -205.8625 54.04160156 -206.1015625 53.08203125 C-206.32150879 52.22843018 -206.54145508 51.3748291 -206.76806641 50.49536133 C-207.15384211 46.34482083 -205.58209319 43.75112638 -203.08984375 40.53515625 C-201.65511295 38.88690835 -200.21760952 37.24106981 -198.77734375 35.59765625 C-196.76174962 32.65178791 -196.24653029 30.53695499 -196 27 C-196.99006037 25.78106512 -196.99006037 25.78106512 -198.9140625 25.9453125 C-207.7274157 26.52948288 -216.1236734 28.45947802 -224.72265625 30.38671875 C-233.15757974 32.27211488 -241.61270371 34.05803261 -250.07479858 35.81686401 C-251.85638822 36.18856286 -253.63733974 36.5633337 -255.41763306 36.94119263 C-257.9384057 37.4759679 -260.46105249 38.00084539 -262.984375 38.5234375 C-263.74902573 38.68773758 -264.51367645 38.85203766 -265.30149841 39.02131653 C-268.68288097 39.71118281 -270.66689592 40.11103469 -274 39 C-274 38.01 -274 37.02 -274 36 C-264.9628197 33.84596423 -255.91357016 31.74509427 -246.86035156 29.659729 C-244.83343605 29.19222879 -242.80676786 28.72365565 -240.78027344 28.2543335 C-233.54807893 26.57948652 -226.31242 24.92087029 -219.0725708 23.27941895 C-216.60527296 22.71762719 -214.13907892 22.15096573 -211.67401123 21.57946777 C-208.16831091 20.76779476 -204.65904243 19.97374343 -201.1484375 19.18359375 C-200.08294678 18.93296677 -199.01745605 18.68233978 -197.91967773 18.42411804 C-196.93475342 18.20609024 -195.9498291 17.98806244 -194.93505859 17.76342773 C-193.64515518 17.46866798 -193.64515518 17.46866798 -192.32919312 17.16795349 C-189.54487323 16.96718171 -188.32478537 17.50207647 -186 19 C-184.62913085 20.29470975 -183.28659163 21.62150897 -182 23 C-182.721875 23.86882812 -183.44375 24.73765625 -184.1875 25.6328125 C-185.12576372 26.79625951 -186.06322166 27.96035666 -187 29.125 C-187.47695312 29.69476563 -187.95390625 30.26453125 -188.4453125 30.8515625 C-190.877639 33.90934438 -191.94815032 35.43094973 -192.3125 39.4296875 C-192.209375 40.27789062 -192.10625 41.12609375 -192 42 C-187.93939699 43.08984748 -185.13218862 42.82849111 -181.06201172 41.85791016 C-179.8622168 41.57723694 -178.66242188 41.29656372 -177.42626953 41.00738525 C-176.09404252 40.68474723 -174.76184981 40.36196758 -173.4296875 40.0390625 C-172.00282422 39.70135974 -170.57573345 39.36461695 -169.1484375 39.02874756 C-166.03663616 38.29447175 -162.92645092 37.55379739 -159.81732178 36.80828857 C-154.81835272 35.60986873 -149.81600926 34.4260026 -144.81298828 33.24462891 C-139.34417927 31.95252325 -133.87563679 30.65932781 -128.40817261 29.36154175 C-106.55320147 24.17415076 -84.68361945 19.04927765 -62.8116169 13.93423271 C-55.52835701 12.23079673 -48.2460365 10.52341971 -40.96447372 8.81274414 C-36.38929482 7.73850627 -31.81347546 6.66701648 -27.23748779 5.59622955 C-25.08753991 5.09255096 -22.93785731 4.58773855 -20.78845215 4.08174896 C-17.83998193 3.3878603 -14.89058509 2.69805738 -11.94091797 2.00927734 C-10.63751622 1.70098716 -10.63751622 1.70098716 -9.30778313 1.38646889 C-6.14504662 0.65140594 -3.2589448 0 0 0 Z " fill="#FEFEFE" transform="translate(384,139)"/>
</svg>
