<?xml version="1.0" encoding="UTF-8"?>
<svg version="1.1" xmlns="http://www.w3.org/2000/svg" width="915" height="1080">
<path d="M0 0 C7.71461308 5.72601994 13.03942472 12.86834334 17.1875 21.5 C19.34535361 25.5791319 22.29885636 28.12665983 25.875 30.9375 C36.74055066 39.49668377 43.37442848 51.41938183 46 65 C47.662415 80.7284602 44.60044601 96.03230072 41.5 111.375 C40.85203348 114.6559043 40.20975059 117.93778789 39.57409668 121.22109985 C39.18162373 123.24058647 38.78145641 125.25859892 38.37219238 127.27474976 C36.689851 135.79637492 36.08160802 141.59166122 41.0625 149.0625 C41.89690824 150.38831667 42.72757307 151.71649585 43.5546875 153.046875 C43.96944336 153.71009766 44.38419922 154.37332031 44.81152344 155.05664062 C66.09717447 189.86226557 65.34180962 228.34152112 58 267.125 C57.27763 271.02047398 56.56741422 274.91813947 55.86010742 278.81637573 C55.42321402 281.21415537 54.97850531 283.61052893 54.5246582 286.00515747 C53.52000013 291.42460048 52.72276461 296.48598605 53 302 C58.07413245 300.47316377 62.61753124 298.31572303 67.328125 295.9375 C68.94898641 295.1323446 70.57008785 294.32767227 72.19140625 293.5234375 C74.71930367 292.26463177 77.24526883 291.0023844 79.76708984 289.73144531 C82.21972427 288.49768714 84.6794753 287.27916387 87.140625 286.0625 C87.87951965 285.68536865 88.61841431 285.3082373 89.37969971 284.91967773 C98.15019271 280.61422093 106.97267595 279.71699922 116.6328125 279.3671875 C117.62715302 279.32562531 118.62149353 279.28406311 119.64596558 279.24124146 C121.74510779 279.15524785 123.8444109 279.07310347 125.94384766 278.99462891 C129.06850495 278.87712453 132.19237415 278.74627138 135.31640625 278.61328125 C141.54311104 278.35753392 147.77035295 278.16720513 154 278 C155.10065796 277.96668579 156.20131592 277.93337158 157.33532715 277.89904785 C160.61676944 277.80782049 163.89740963 277.74708424 167.1796875 277.6953125 C168.17783478 277.66509003 169.17598206 277.63486755 170.20437622 277.60372925 C176.01311892 277.5522536 179.43228972 278.03047452 184 282 C188.77166198 287.41648116 189.4351291 290.75361107 189.32421875 297.89453125 C188.82447328 302.68124987 187.38631461 305.5989302 184 309 C166.27238182 322.97353433 146.7004333 325.41167386 125 326 C121.28928105 334.82686736 117.69412222 343.69729153 114.14453125 352.58984375 C113.57198678 354.02259453 112.99937314 355.45531768 112.42669678 356.88801575 C111.5132373 359.17344616 110.59990177 361.45892573 109.68694115 363.74455547 C107.74893094 368.59625488 105.80789975 373.44673237 103.86440182 378.29623604 C96.87508101 395.73661622 89.91428041 413.18731443 83.03987122 430.6733551 C80.34945263 437.51604119 77.64692497 444.35392567 74.94163799 451.19074535 C72.69996061 456.85906674 70.47437506 462.53337524 68.25993919 468.21238995 C66.87048854 471.7641936 65.46578663 475.30981853 64.0568924 478.85394859 C63.40590873 480.50060631 62.76122372 482.14977065 62.12343597 483.80158424 C58.36168846 493.53336055 55.13375713 501.528062 45.6875 506.875 C37.16055218 509.47644171 30.29896253 509.4566321 22 506 C21.01 505.34 20.02 504.68 19 504 C18.01 504 17.02 504 16 504 C15.34 507.3 14.68 510.6 14 514 C14.99902344 514.06058594 15.99804688 514.12117187 17.02734375 514.18359375 C18.31769531 514.26738281 19.60804688 514.35117187 20.9375 514.4375 C22.22527344 514.51871094 23.51304687 514.59992187 24.83984375 514.68359375 C28 515 28 515 29 516 C29.10798592 517.54311044 29.14683258 519.0911124 29.15821838 520.63795471 C29.1680072 521.64061371 29.17779602 522.64327271 29.18788147 523.67631531 C29.19363693 524.78545792 29.1993924 525.89460052 29.20532227 527.03735352 C29.21522186 528.19817444 29.22512146 529.35899536 29.23532104 530.55499268 C29.26704695 534.41294273 29.29173716 538.27090513 29.31640625 542.12890625 C29.33696622 544.79549089 29.35791366 547.46206964 29.37937927 550.12864685 C29.42935633 556.4432553 29.47427649 562.7578893 29.51740164 569.07254785 C29.56673127 576.25988912 29.62166519 583.44718408 29.67708123 590.6344806 C29.79097819 605.42294316 29.89780035 620.21145186 30 635 C30.84296631 635.02505615 31.68593262 635.0501123 32.55444336 635.07592773 C35.67241674 635.17088155 38.79021503 635.27012448 41.90795898 635.37231445 C43.25914147 635.41571223 44.61038053 635.4573837 45.96166992 635.49731445 C47.90036701 635.55489952 49.83886276 635.61914298 51.77734375 635.68359375 C52.94515381 635.72025146 54.11296387 635.75690918 55.31616211 635.79467773 C58 636 58 636 59 637 C59.10050214 639.76401408 59.13616075 642.50307226 59.12939453 645.26757812 C59.13114685 646.13418564 59.13289917 647.00079315 59.13470459 647.8936615 C59.13912425 650.77287773 59.13618472 653.65203309 59.1328125 656.53125 C59.13348551 658.52282727 59.1344555 660.51440446 59.13571167 662.50598145 C59.1371888 666.68579895 59.13503361 670.86559513 59.13037109 675.04541016 C59.1246738 680.41602526 59.12795273 685.7865904 59.13394356 691.15720367 C59.13754877 695.2714272 59.13641077 699.38563879 59.13381577 703.49986267 C59.13314639 705.48070786 59.1339753 707.46155412 59.13629532 709.44239807 C59.13882119 712.20576876 59.13498218 714.96905734 59.12939453 717.73242188 C59.13141876 718.55947128 59.13344299 719.38652069 59.13552856 720.2386322 C59.11426244 725.88573756 59.11426244 725.88573756 58 727 C55.9291528 727.1584265 53.85321971 727.25124422 51.77734375 727.31640625 C50.51728516 727.35830078 49.25722656 727.40019531 47.95898438 727.44335938 C46.61849264 727.48317596 45.2779978 727.52288814 43.9375 727.5625 C42.59308477 727.60568042 41.2486834 727.64929456 39.90429688 727.69335938 C36.6029766 727.79985358 33.30157764 727.9018646 30 728 C29.98969254 728.72440781 29.97938507 729.44881561 29.96876526 730.19517517 C29.87095232 737.00851902 29.76846141 743.821778 29.66066074 750.63497066 C29.60540045 754.13804355 29.55197566 757.64112473 29.50268555 761.14428711 C29.44599332 765.16790144 29.38142599 769.19135531 29.31640625 773.21484375 C29.29969376 774.47836166 29.28298126 775.74187958 29.26576233 777.04368591 C29.24581711 778.204814 29.22587189 779.36594208 29.20532227 780.56225586 C29.18200584 782.1044706 29.18200584 782.1044706 29.15821838 783.67784119 C29 786 29 786 28 787 C25.85613343 787.15858842 23.70733162 787.25129298 21.55859375 787.31640625 C20.25341797 787.35830078 18.94824219 787.40019531 17.60351562 787.44335938 C16.2148467 787.48317608 14.82617478 787.52288825 13.4375 787.5625 C12.04490817 787.60567989 10.65232972 787.649294 9.25976562 787.69335938 C5.83995199 787.79985876 2.42006237 787.90186923 -1 788 C-1.02505615 788.57032959 -1.0501123 789.14065918 -1.07592773 789.72827148 C-1.19156549 792.29826157 -1.31443624 794.86785527 -1.4375 797.4375 C-1.49647461 798.78424805 -1.49647461 798.78424805 -1.55664062 800.15820312 C-1.59853516 801.01220703 -1.64042969 801.86621094 -1.68359375 802.74609375 C-1.72025146 803.53685303 -1.75690918 804.3276123 -1.79467773 805.14233398 C-2 807 -2 807 -3 808 C-4.92251145 808.09859462 -6.84870473 808.12555669 -8.77374268 808.12584114 C-10.667288 808.12975276 -10.667288 808.12975276 -12.59908676 808.13374341 C-14.01820642 808.13158088 -15.43732594 808.1293242 -16.85644531 808.12698364 C-18.34977379 808.12813448 -19.84310199 808.12972175 -21.3364296 808.13171089 C-25.45961696 808.13590937 -29.58278137 808.1338112 -33.70596886 808.13072467 C-38.14500463 808.12847289 -42.58403631 808.13194907 -47.02307129 808.13470459 C-55.72689522 808.13916367 -64.43071056 808.13818521 -73.13453484 808.13529195 C-80.20496568 808.13303845 -87.2753941 808.13272516 -94.3458252 808.13381577 C-95.35008175 808.133969 -96.35433831 808.13412223 -97.38902688 808.13428011 C-99.42881362 808.13459982 -101.46860035 808.13492403 -103.50838709 808.1352527 C-122.65949292 808.13810789 -141.81059397 808.13481985 -160.96169901 808.12945233 C-177.41327048 808.12498426 -193.8648349 808.12576018 -210.31640625 808.13037109 C-229.39648937 808.13571616 -248.4765683 808.1378332 -267.55665207 808.13475883 C-269.58915965 808.13444026 -271.62166723 808.13412589 -273.6541748 808.13381577 C-274.65434702 808.13366149 -275.65451924 808.13350721 -276.6849997 808.13334826 C-283.75130453 808.1324829 -290.81760671 808.13394639 -297.88391113 808.13629532 C-306.4891029 808.13909277 -315.09428553 808.13835623 -323.69947624 808.13301457 C-328.09444049 808.13037681 -332.48938949 808.12937375 -336.88435364 808.13266373 C-340.90102808 808.13562516 -344.91767303 808.13403645 -348.93434477 808.12868617 C-350.39394587 808.12756133 -351.85354942 808.12815464 -353.31314898 808.13056196 C-355.28418343 808.13356553 -357.25522479 808.12991283 -359.22625732 808.12584114 C-360.32500561 808.12567879 -361.42375389 808.12551644 -362.55579758 808.12534916 C-365 808 -365 808 -366 807 C-366.15620555 805.58672053 -366.25056173 804.1664541 -366.31640625 802.74609375 C-366.35830078 801.89208984 -366.40019531 801.03808594 -366.44335938 800.15820312 C-366.48267578 799.26037109 -366.52199219 798.36253906 -366.5625 797.4375 C-366.60568359 796.53580078 -366.64886719 795.63410156 -366.69335938 794.70507812 C-366.79978142 792.47021515 -366.90179988 790.23523692 -367 788 C-367.73693588 787.98969254 -368.47387177 787.97938507 -369.23313904 787.96876526 C-376.16421076 787.87095357 -383.09519902 787.76846284 -390.02612209 787.66066074 C-393.58972968 787.60539973 -397.15334543 787.55197482 -400.71704102 787.50268555 C-404.81015245 787.44599468 -408.9031061 787.38142682 -412.99609375 787.31640625 C-414.28148544 787.29969376 -415.56687714 787.28298126 -416.89122009 787.26576233 C-418.07236893 787.24581711 -419.25351776 787.22587189 -420.47045898 787.20532227 C-422.03932106 787.18200584 -422.03932106 787.18200584 -423.63987732 787.15821838 C-426 787 -426 787 -427 786 C-427.12330088 784.1903226 -427.17790183 782.37592163 -427.20532227 780.56225586 C-427.2352401 778.82056374 -427.2352401 778.82056374 -427.26576233 777.04368591 C-427.28247482 775.780168 -427.29918732 774.51665009 -427.31640625 773.21484375 C-427.33718735 771.92888809 -427.35796844 770.64293243 -427.37937927 769.31800842 C-427.43466176 765.89364096 -427.48404361 762.4692125 -427.53222656 759.04473877 C-427.58239665 755.55255686 -427.6381061 752.0604639 -427.69335938 748.56835938 C-427.8010164 741.71231667 -427.90244449 734.85619367 -428 728 C-428.84296631 727.97494385 -429.68593262 727.9498877 -430.55444336 727.92407227 C-433.67241674 727.82911845 -436.79021503 727.72987552 -439.90795898 727.62768555 C-441.25914147 727.58428777 -442.61038053 727.5426163 -443.96166992 727.50268555 C-445.90036701 727.44510048 -447.83886276 727.38085702 -449.77734375 727.31640625 C-450.94515381 727.27974854 -452.11296387 727.24309082 -453.31616211 727.20532227 C-456 727 -456 727 -457 726 C-457.12337174 724.15968011 -457.17791308 722.31470589 -457.20532227 720.47045898 C-457.22526749 719.28931015 -457.24521271 718.10816132 -457.26576233 716.89122009 C-457.28247482 715.6058284 -457.29918732 714.32043671 -457.31640625 712.99609375 C-457.33718735 711.68794205 -457.35796844 710.37979034 -457.37937927 709.03199768 C-457.434663 705.54844553 -457.48404431 702.0648334 -457.53222656 698.58117676 C-457.58239574 695.0286727 -457.63810567 691.4762561 -457.69335938 687.92382812 C-457.80101791 680.94929454 -457.90244567 673.97468202 -458 667 C-459.26444946 666.96241577 -459.26444946 666.96241577 -460.55444336 666.92407227 C-463.67241674 666.82911845 -466.79021503 666.72987552 -469.90795898 666.62768555 C-471.25914147 666.58428777 -472.61038053 666.5426163 -473.96166992 666.50268555 C-475.90036701 666.44510048 -477.83886276 666.38085702 -479.77734375 666.31640625 C-480.94515381 666.27974854 -482.11296387 666.24309082 -483.31616211 666.20532227 C-486 666 -486 666 -487 665 C-487.10020519 662.04399785 -487.13438289 659.11128268 -487.12698364 656.15478516 C-487.12854363 655.21541925 -487.13010362 654.27605335 -487.13171089 653.30822182 C-487.13572521 650.13515313 -487.13252958 646.96213161 -487.12939453 643.7890625 C-487.13074838 641.52455619 -487.13252822 639.2600501 -487.13470459 636.99554443 C-487.13928087 630.8263063 -487.13748857 624.65708481 -487.1343255 618.48784637 C-487.1318029 612.04739841 -487.13413916 605.60695192 -487.13571167 599.16650391 C-487.13765054 587.6546764 -487.1345327 576.14285744 -487.12945233 564.63103127 C-487.12498429 554.18305354 -487.12576022 543.73508691 -487.13037109 533.28710938 C-487.13571675 521.16840309 -487.13771775 509.04970553 -487.13475883 496.93099785 C-487.13319559 490.5107382 -487.13300355 484.09048621 -487.13629532 477.67022705 C-487.13917283 471.63585901 -487.13720057 465.60151205 -487.13140106 459.5671463 C-487.13007281 457.34546188 -487.13046867 455.12377571 -487.13266373 452.90209198 C-487.1353727 449.88310854 -487.13199722 446.86419383 -487.12698364 443.84521484 C-487.12921436 442.9538917 -487.13144509 442.06256855 -487.13374341 441.14423561 C-487.11414982 435.11414982 -487.11414982 435.11414982 -486 434 C-483.9291528 433.8415735 -481.85321971 433.74875578 -479.77734375 433.68359375 C-478.51728516 433.64169922 -477.25722656 433.59980469 -475.95898438 433.55664062 C-474.61849264 433.51682404 -473.2779978 433.47711186 -471.9375 433.4375 C-470.59308477 433.39431958 -469.2486834 433.35070544 -467.90429688 433.30664062 C-464.6029766 433.20014642 -461.30157764 433.0981354 -458 433 C-457.96241577 431.69011108 -457.96241577 431.69011108 -457.92407227 430.35375977 C-457.82912291 427.12397448 -457.72987971 423.89435846 -457.62768555 420.66479492 C-457.58428566 419.26510801 -457.54261436 417.86536641 -457.50268555 416.46557617 C-457.44510555 414.45738505 -457.38086 412.44938851 -457.31640625 410.44140625 C-457.27974854 409.23170166 -457.24309082 408.02199707 -457.20532227 406.77563477 C-457 404 -457 404 -456 403 C-453.9291528 402.8415735 -451.85321971 402.74875578 -449.77734375 402.68359375 C-448.51728516 402.64169922 -447.25722656 402.59980469 -445.95898438 402.55664062 C-444.61849264 402.51682404 -443.2779978 402.47711186 -441.9375 402.4375 C-440.59308477 402.39431958 -439.2486834 402.35070544 -437.90429688 402.30664062 C-434.6029766 402.20014642 -431.30157764 402.0981354 -428 402 C-427.96241577 400.73555054 -427.96241577 400.73555054 -427.92407227 399.44555664 C-427.82911845 396.32758326 -427.72987552 393.20978497 -427.62768555 390.09204102 C-427.58428777 388.74085853 -427.5426163 387.38961947 -427.50268555 386.03833008 C-427.44510048 384.09963299 -427.38085702 382.16113724 -427.31640625 380.22265625 C-427.27974854 379.05484619 -427.24309082 377.88703613 -427.20532227 376.68383789 C-427 374 -427 374 -426 373 C-423.38399547 372.87492518 -420.79308066 372.81394595 -418.17553711 372.79467773 C-417.35609116 372.78477814 -416.5366452 372.77487854 -415.69236755 372.76467896 C-412.97072283 372.73296945 -410.24906061 372.70826938 -407.52734375 372.68359375 C-405.64546747 372.66303237 -403.76359589 372.64203612 -401.88172913 372.62062073 C-396.91856689 372.56531574 -391.9553624 372.51594377 -386.99212646 372.46777344 C-381.93156149 372.41761978 -376.8710582 372.36190176 -371.81054688 372.30664062 C-361.87375055 372.19895605 -351.93690077 372.09753411 -342 372 C-342.01812744 370.79706299 -342.03625488 369.59412598 -342.05493164 368.35473633 C-342.06959974 366.74300513 -342.08381717 365.13126978 -342.09765625 363.51953125 C-342.11729431 362.3362323 -342.11729431 362.3362323 -342.1373291 361.12902832 C-342.2528552 343.11157782 -334.34682244 328.6613671 -323.33203125 314.91796875 C-321.51912912 312.64956357 -319.80558601 310.36471837 -318.125 308 C-314.07309801 302.5786004 -309.32470447 297.73050875 -304.69580078 292.8046875 C-301.76861058 289.68954354 -298.85427711 286.56239007 -295.9375 283.4375 C-295.34662598 282.80529541 -294.75575195 282.17309082 -294.14697266 281.52172852 C-289.63466576 276.69103045 -285.16034825 271.82715452 -280.69921875 266.94921875 C-276.87234096 262.76789786 -273.03266696 258.59868246 -269.1796875 254.44140625 C-266.92096434 252.00331807 -264.68001889 249.54995455 -262.4453125 247.08984375 C-249.43458172 232.83316269 -236.50590938 222.62280135 -216.984375 219.60546875 C-213.89688468 219.26514838 -213.89688468 219.26514838 -212 217 C-211.46308539 214.83362478 -211.0234537 212.64277884 -210.6328125 210.4453125 C-210.45152298 209.46013138 -210.45152298 209.46013138 -210.26657104 208.45504761 C-209.75084151 205.6521589 -209.2528594 202.84621484 -208.75537109 200.04003906 C-204.7580765 177.6657782 -196.3938196 156.75969462 -182 139 C-181.52272461 138.40606445 -181.04544922 137.81212891 -180.55371094 137.20019531 C-166.08842552 119.36124723 -166.08842552 119.36124723 -156.51171875 114.07421875 C-148.73447814 109.70853665 -145.3639838 105.85718694 -142.72924805 97.17211914 C-141.90501467 94.05115087 -141.1523215 90.92323905 -140.4296875 87.77734375 C-139.43143061 83.43868468 -138.09140401 79.70705371 -136.18701172 75.70043945 C-134.59339246 72.07497202 -133.29105388 68.36704178 -131.9765625 64.6328125 C-131.57013016 63.48447685 -131.57013016 63.48447685 -131.15548706 62.3129425 C-130.0260402 59.11636482 -128.90097628 55.9183514 -127.78710938 52.71630859 C-120.94976298 33.10497371 -113.40034591 17.80228004 -94 8 C-88.56135988 5.75781217 -83.16716516 4.17318425 -77.375 3.1875 C-73.64220916 2.43960631 -71.34322861 0.97409849 -68.3125 -1.3125 C-48.55703317 -16.14458247 -19.43041043 -14.2139579 0 0 Z " fill="#F9F8F8" transform="translate(647,127)"/>
<path d="M0 0 C9.095625 -0.309375 9.095625 -0.309375 18.375 -0.625 C20.26782715 -0.71604004 22.1606543 -0.80708008 24.11083984 -0.90087891 C36.08728586 -1.23626822 36.08728586 -1.23626822 41.22729492 2.0859375 C43.70787054 4.60089734 45.85070495 7.20105622 48 10 C50.09696574 11.91075976 52.29303953 13.53441286 54.5625 15.25 C55.76321555 16.16992461 56.96236083 17.09190141 58.16015625 18.015625 C58.78164551 18.49451172 59.40313477 18.97339844 60.04345703 19.46679688 C63.58535065 22.24232619 67.03783996 25.12610699 70.5 28 C76.16300312 32.69160514 81.87913392 37.29634161 87.68481445 41.80981445 C92.42807873 45.51271689 97.05878101 49.34289488 101.6875 53.1875 C118.06020482 67.14761643 118.06020482 67.14761643 138.55859375 71.3984375 C143.02287818 71.00074399 143.02287818 71.00074399 151 68 C151 82.19 151 96.38 151 111 C161.23 111 171.46 111 182 111 C182 101.1 182 91.2 182 81 C232.16 81 282.32 81 334 81 C334 101.13 334 121.26 334 142 C344.23 142 354.46 142 365 142 C365 151.9 365 161.8 365 172 C344.87 172 324.74 172 304 172 C304 181.9 304 191.8 304 202 C324.13 202 344.26 202 365 202 C365 212.23 365 222.46 365 233 C374.9 233 384.8 233 395 233 C395 263.03 395 293.06 395 324 C385.1 324 375.2 324 365 324 C365 333.9 365 343.8 365 354 C354.77 354 344.54 354 334 354 C334 364.23 334 374.46 334 385 C223.45 385 112.9 385 -1 385 C-0.67 375.1 -0.34 365.2 0 355 C-10.23 355 -20.46 355 -31 355 C-31 344.77 -31 334.54 -31 324 C-40.9 324 -50.8 324 -61 324 C-61 303.87 -61 283.74 -61 263 C-51.1 263 -41.2 263 -31 263 C-31 253.1 -31 243.2 -31 233 C-50.8 233 -70.6 233 -91 233 C-91 176.24 -91 119.48 -91 61 C-81.1 61 -71.2 61 -61 61 C-61 50.77 -61 40.54 -61 30 C-51.1 30 -41.2 30 -31 30 C-31 40.23 -31 50.46 -31 61 C-20.77 61 -10.54 61 0 61 C0 40.87 0 20.74 0 0 Z " fill="#FEFEFE" transform="translate(281,530)"/>
<path d="M0 0 C7.71461308 5.72601994 13.03942472 12.86834334 17.1875 21.5 C19.34535361 25.5791319 22.29885636 28.12665983 25.875 30.9375 C36.7505102 39.50452926 43.35559939 51.41547374 46 65 C47.66907834 80.32809392 44.85589139 95.56116226 42.05712891 110.57617188 C41.37404995 114.2551168 40.72618979 117.9390632 40.08203125 121.625 C33.40189366 158.93144517 33.40189366 158.93144517 23 167 C14.16049963 172.60553682 5.76006275 172.6992198 -4.375 171 C-16.46401955 169.04380242 -26.68102971 169.28468475 -37.1875 176.125 C-41.40698713 179.24174167 -44.35544331 182.71597808 -47.43359375 186.9296875 C-52.14735003 193.15983919 -59.62701053 197.855837 -67.29296875 199.48828125 C-73.59046961 199.87839192 -78.97600739 197.71194164 -84 194 C-90.23964126 187.17502654 -93.85955211 179.81285862 -94.375 170.625 C-94.81297307 164.53548977 -96.76774202 160.12908305 -100 155 C-100.44859375 154.25363281 -100.8971875 153.50726563 -101.359375 152.73828125 C-105.37867107 147.13405657 -109.7134557 145.91650526 -116.30908203 144.42285156 C-127.09266305 141.94478624 -135.69807711 135.18444006 -143 127 C-146.34572868 121.4829272 -148.42106463 114.51246624 -148 108 C-147.01 107.01 -147.01 107.01 -146 106 C-145.40517141 104.31225043 -144.88763365 102.59679652 -144.4140625 100.87109375 C-144.12273437 99.83533203 -143.83140625 98.79957031 -143.53125 97.73242188 C-142.93462459 95.56322563 -142.33826347 93.39395667 -141.7421875 91.22460938 C-140.22066251 85.81585497 -138.54333073 80.76519658 -136.16064453 75.68286133 C-134.59255457 72.05817884 -133.28933671 68.35633062 -131.9765625 64.6328125 C-131.70554718 63.86721512 -131.43453186 63.10161774 -131.15530396 62.31282043 C-130.02604513 59.11623915 -128.90095685 55.91829552 -127.78710938 52.71630859 C-120.94976298 33.10497371 -113.40034591 17.80228004 -94 8 C-88.56135988 5.75781217 -83.16716516 4.17318425 -77.375 3.1875 C-73.64220916 2.43960631 -71.34322861 0.97409849 -68.3125 -1.3125 C-48.55703317 -16.14458247 -19.43041043 -14.2139579 0 0 Z " fill="#FE3131" transform="translate(647,127)"/>
<path d="M0 0 C7.92 0 15.84 0 24 0 C24 9.9 24 19.8 24 30 C34.23 30 44.46 30 55 30 C55 50.13 55 70.26 55 91 C95.26 91 135.52 91 177 91 C177 97.6 177 104.2 177 111 C186.9 111 196.8 111 207 111 C207 121.23 207 131.46 207 142 C211.95 142 216.9 142 222 142 C224.62685487 142.10735842 227.25332664 142.24072313 229.875 142.4375 C231.60363281 142.55931641 231.60363281 142.55931641 233.3671875 142.68359375 C236 143 236 143 237 144 C237.10798592 145.54311044 237.14683258 147.0911124 237.15821838 148.63795471 C237.17290161 150.14194321 237.17290161 150.14194321 237.18788147 151.67631531 C237.19363693 152.78545792 237.1993924 153.89460052 237.20532227 155.03735352 C237.21522186 156.19817444 237.22512146 157.35899536 237.23532104 158.55499268 C237.26704695 162.41294273 237.29173716 166.27090513 237.31640625 170.12890625 C237.33696622 172.79549089 237.35791366 175.46206964 237.37937927 178.12864685 C237.42935633 184.4432553 237.47427649 190.7578893 237.51740164 197.07254785 C237.56673127 204.25988912 237.62166519 211.44718408 237.67708123 218.6344806 C237.79097819 233.42294316 237.89780035 248.21145186 238 263 C238.84296631 263.02505615 239.68593262 263.0501123 240.55444336 263.07592773 C243.67241674 263.17088155 246.79021503 263.27012448 249.90795898 263.37231445 C251.25914147 263.41571223 252.61038053 263.4573837 253.96166992 263.49731445 C255.90036701 263.55489952 257.83886276 263.61914298 259.77734375 263.68359375 C260.94515381 263.72025146 262.11296387 263.75690918 263.31616211 263.79467773 C266 264 266 264 267 265 C267.10050214 267.76401408 267.13616075 270.50307226 267.12939453 273.26757812 C267.13202301 274.5674894 267.13202301 274.5674894 267.13470459 275.8936615 C267.13912425 278.77287773 267.13618472 281.65203309 267.1328125 284.53125 C267.13348551 286.52282727 267.1344555 288.51440446 267.13571167 290.50598145 C267.1371888 294.68579895 267.13503361 298.86559513 267.13037109 303.04541016 C267.1246738 308.41602526 267.12795273 313.7865904 267.13394356 319.15720367 C267.13754877 323.2714272 267.13641077 327.38563879 267.13381577 331.49986267 C267.13314639 333.48070786 267.1339753 335.46155412 267.13629532 337.44239807 C267.13882119 340.20576876 267.13498218 342.96905734 267.12939453 345.73242188 C267.13141876 346.55947128 267.13344299 347.38652069 267.13552856 348.2386322 C267.11426244 353.88573756 267.11426244 353.88573756 266 355 C263.9291528 355.1584265 261.85321971 355.25124422 259.77734375 355.31640625 C258.51728516 355.35830078 257.25722656 355.40019531 255.95898438 355.44335938 C254.61849264 355.48317596 253.2779978 355.52288814 251.9375 355.5625 C250.59308477 355.60568042 249.2486834 355.64929456 247.90429688 355.69335938 C244.6029766 355.79985358 241.30157764 355.9018646 238 356 C237.98969254 356.72440781 237.97938507 357.44881561 237.96876526 358.19517517 C237.87095232 365.00851902 237.76846141 371.821778 237.66066074 378.63497066 C237.60540045 382.13804355 237.55197566 385.64112473 237.50268555 389.14428711 C237.44599332 393.16790144 237.38142599 397.19135531 237.31640625 401.21484375 C237.29969376 402.47836166 237.28298126 403.74187958 237.26576233 405.04368591 C237.24581711 406.204814 237.22587189 407.36594208 237.20532227 408.56225586 C237.18200584 410.1044706 237.18200584 410.1044706 237.15821838 411.67784119 C237 414 237 414 236 415 C233.85613343 415.15858842 231.70733162 415.25129298 229.55859375 415.31640625 C228.25341797 415.35830078 226.94824219 415.40019531 225.60351562 415.44335938 C224.2148467 415.48317608 222.82617478 415.52288825 221.4375 415.5625 C220.04490817 415.60567989 218.65232972 415.649294 217.25976562 415.69335938 C213.83995199 415.79985876 210.42006237 415.90186923 207 416 C206.97494385 416.57032959 206.9498877 417.14065918 206.92407227 417.72827148 C206.80843451 420.29826157 206.68556376 422.86785527 206.5625 425.4375 C206.50352539 426.78424805 206.50352539 426.78424805 206.44335938 428.15820312 C206.40146484 429.01220703 206.35957031 429.86621094 206.31640625 430.74609375 C206.27974854 431.53685303 206.24309082 432.3276123 206.20532227 433.14233398 C206 435 206 435 205 436 C203.07748855 436.09859462 201.15129527 436.12555669 199.22625732 436.12584114 C197.332712 436.12975276 197.332712 436.12975276 195.40091324 436.13374341 C193.98179358 436.13158088 192.56267406 436.1293242 191.14355469 436.12698364 C189.65022621 436.12813448 188.15689801 436.12972175 186.6635704 436.13171089 C182.54038304 436.13590937 178.41721863 436.1338112 174.29403114 436.13072467 C169.85499537 436.12847289 165.41596369 436.13194907 160.97692871 436.13470459 C152.27310478 436.13916367 143.56928944 436.13818521 134.86546516 436.13529195 C127.79503432 436.13303845 120.7246059 436.13272516 113.6541748 436.13381577 C112.64991825 436.133969 111.64566169 436.13412223 110.61097312 436.13428011 C108.57118638 436.13459982 106.53139965 436.13492403 104.49161291 436.1352527 C85.34050708 436.13810789 66.18940603 436.13481985 47.03830099 436.12945233 C30.58672952 436.12498426 14.1351651 436.12576018 -2.31640625 436.13037109 C-21.39648937 436.13571616 -40.4765683 436.1378332 -59.55665207 436.13475883 C-61.58915965 436.13444026 -63.62166723 436.13412589 -65.6541748 436.13381577 C-66.65434702 436.13366149 -67.65451924 436.13350721 -68.6849997 436.13334826 C-75.75130453 436.1324829 -82.81760671 436.13394639 -89.88391113 436.13629532 C-98.4891029 436.13909277 -107.09428553 436.13835623 -115.69947624 436.13301457 C-120.09444049 436.13037681 -124.48938949 436.12937375 -128.88435364 436.13266373 C-132.90102808 436.13562516 -136.91767303 436.13403645 -140.93434477 436.12868617 C-142.39394587 436.12756133 -143.85354942 436.12815464 -145.31314898 436.13056196 C-147.28418343 436.13356553 -149.25522479 436.12991283 -151.22625732 436.12584114 C-152.32500561 436.12567879 -153.42375389 436.12551644 -154.55579758 436.12534916 C-157 436 -157 436 -158 435 C-158 428.73 -158 422.46 -158 416 C-47.78 416 62.44 416 176 416 C176 405.77 176 395.54 176 385 C186.23 385 196.46 385 207 385 C207 375.1 207 365.2 207 355 C216.9 355 226.8 355 237 355 C237 324.97 237 294.94 237 264 C227.1 264 217.2 264 207 264 C207 253.77 207 243.54 207 233 C186.87 233 166.74 233 146 233 C146 223.1 146 213.2 146 203 C166.13 203 186.26 203 207 203 C207 193.1 207 183.2 207 173 C196.77 173 186.54 173 176 173 C176 152.87 176 132.74 176 112 C125.84 112 75.68 112 24 112 C24 121.9 24 131.8 24 142 C14.1 142 4.2 142 -6 142 C-6.16111886 135.85958131 -6.30030793 129.72654558 -6.38452148 123.58569336 C-6.41963386 121.49917706 -6.46733689 119.41283189 -6.52807617 117.3269043 C-6.6134035 114.32037086 -6.65277985 111.31612078 -6.68359375 108.30859375 C-6.71972275 107.38227646 -6.75585175 106.45595917 -6.79307556 105.50157166 C-6.79467773 102.83374023 -6.79467773 102.83374023 -6 98 C-3.69 95.69 -1.38 93.38 1 91 C8.59 91 16.18 91 24 91 C24 71.2 24 51.4 24 31 C16.74 31 9.48 31 2 31 C1.67 27.926875 1.34 24.85375 1 21.6875 C0.89558594 20.74350342 0.79117188 19.79950684 0.68359375 18.8269043 C0.02284379 12.44293224 0 6.49943576 0 0 Z " fill="#B4B4B4" transform="translate(439,499)"/>
<path d="M0 0 C1.17280014 0.00539291 1.17280014 0.00539291 2.36929321 0.01089478 C3.18873917 0.01074875 4.00818512 0.01060272 4.85246277 0.01045227 C7.57416385 0.01115164 10.29579737 0.01894515 13.01748657 0.02676392 C14.89935773 0.02862801 16.78122938 0.03005195 18.6631012 0.03105164 C23.62631561 0.0348775 28.58950096 0.04470836 33.55270386 0.05575562 C38.61322639 0.06596827 43.67375359 0.07054894 48.73428345 0.07559204 C58.67114521 0.08633057 68.60798535 0.10340781 78.54483032 0.12442017 C78.86878784 1.135448 79.19274536 2.14647583 79.52651978 3.18814087 C79.96594075 4.53808435 80.40565361 5.88793285 80.84561157 7.23770142 C81.05738037 7.90128662 81.26914917 8.56487183 81.48733521 9.24856567 C83.47057143 15.29845653 86.32686772 20.64161585 89.54483032 26.12442017 C90.53483032 28.10442017 90.53483032 28.10442017 91.54483032 30.12442017 C79.33483032 30.12442017 67.12483032 30.12442017 54.54483032 30.12442017 C54.54483032 50.25442017 54.54483032 70.38442017 54.54483032 91.12442017 C44.31483032 91.12442017 34.08483032 91.12442017 23.54483032 91.12442017 C23.54483032 80.89442017 23.54483032 70.66442017 23.54483032 60.12442017 C13.64483032 60.12442017 3.74483032 60.12442017 -6.45516968 60.12442017 C-6.45516968 70.35442017 -6.45516968 80.58442017 -6.45516968 91.12442017 C-16.35516968 91.12442017 -26.25516968 91.12442017 -36.45516968 91.12442017 C-36.45516968 147.88442017 -36.45516968 204.64442017 -36.45516968 263.12442017 C-16.65516968 263.12442017 3.14483032 263.12442017 23.54483032 263.12442017 C23.54483032 273.02442017 23.54483032 282.92442017 23.54483032 293.12442017 C13.64483032 293.12442017 3.74483032 293.12442017 -6.45516968 293.12442017 C-6.45516968 313.25442017 -6.45516968 333.38442017 -6.45516968 354.12442017 C3.44483032 354.12442017 13.34483032 354.12442017 23.54483032 354.12442017 C23.54483032 364.35442017 23.54483032 374.58442017 23.54483032 385.12442017 C33.77483032 385.12442017 44.00483032 385.12442017 54.54483032 385.12442017 C54.54483032 394.69442017 54.54483032 404.26442017 54.54483032 414.12442017 C46.74619092 414.14536548 38.94765283 414.1654036 31.1490097 414.17617035 C27.51767275 414.18146013 23.88635897 414.18853373 20.2550354 414.19985962 C16.76023058 414.21069201 13.26544829 414.21669774 9.77062798 414.21929741 C7.78243643 414.22205568 5.79425401 414.22986704 3.80607605 414.23771667 C2.00432167 414.23782997 2.00432167 414.23782997 0.16616821 414.23794556 C-0.89750473 414.24016617 -1.96117767 414.24238678 -3.05708313 414.24467468 C-5.45516968 414.12442017 -5.45516968 414.12442017 -6.45516968 413.12442017 C-6.57847056 411.31474277 -6.63307151 409.50034179 -6.66049194 407.68667603 C-6.68043716 406.52554794 -6.70038239 405.36441986 -6.72093201 404.16810608 C-6.7376445 402.90458817 -6.75435699 401.64107025 -6.77157593 400.33926392 C-6.79235703 399.05330826 -6.81313812 397.7673526 -6.83454895 396.44242859 C-6.88983144 393.01806113 -6.93921329 389.59363267 -6.98739624 386.16915894 C-7.03756633 382.67697703 -7.09327578 379.18488407 -7.14852905 375.69277954 C-7.25618607 368.83673683 -7.35761417 361.98061384 -7.45516968 355.12442017 C-8.29813599 355.09936401 -9.14110229 355.07430786 -10.00961304 355.04849243 C-13.12758642 354.95353861 -16.24538471 354.85429569 -19.36312866 354.75210571 C-20.71431115 354.70870794 -22.06555021 354.66703647 -23.4168396 354.62710571 C-25.35553669 354.56952065 -27.29403244 354.50527719 -29.23251343 354.44082642 C-30.40032349 354.4041687 -31.56813354 354.36751099 -32.77133179 354.32974243 C-35.45516968 354.12442017 -35.45516968 354.12442017 -36.45516968 353.12442017 C-36.57854142 351.28410027 -36.63308275 349.43912605 -36.66049194 347.59487915 C-36.68043716 346.41373032 -36.70038239 345.23258148 -36.72093201 344.01564026 C-36.7376445 342.73024857 -36.75435699 341.44485687 -36.77157593 340.12051392 C-36.79235703 338.81236221 -36.81313812 337.50421051 -36.83454895 336.15641785 C-36.88983268 332.6728657 -36.93921399 329.18925357 -36.98739624 325.70559692 C-37.03756542 322.15309286 -37.09327535 318.60067626 -37.14852905 315.04824829 C-37.25618759 308.07371471 -37.35761535 301.09910219 -37.45516968 294.12442017 C-38.29813599 294.09936401 -39.14110229 294.07430786 -40.00961304 294.04849243 C-43.12758642 293.95353861 -46.24538471 293.85429569 -49.36312866 293.75210571 C-50.71431115 293.70870794 -52.06555021 293.66703647 -53.4168396 293.62710571 C-55.35553669 293.56952065 -57.29403244 293.50527719 -59.23251343 293.44082642 C-60.40032349 293.4041687 -61.56813354 293.36751099 -62.77133179 293.32974243 C-65.45516968 293.12442017 -65.45516968 293.12442017 -66.45516968 292.12442017 C-66.55537487 289.16841802 -66.58955257 286.23570285 -66.58215332 283.27920532 C-66.58371331 282.33983942 -66.5852733 281.40047352 -66.58688056 280.43264198 C-66.59089489 277.2595733 -66.58769926 274.08655178 -66.58456421 270.91348267 C-66.58591806 268.64897636 -66.5876979 266.38447027 -66.58987427 264.1199646 C-66.59445055 257.95072647 -66.59265824 251.78150498 -66.58949518 245.61226654 C-66.58697258 239.17181858 -66.58930884 232.73137209 -66.59088135 226.29092407 C-66.59282022 214.77909657 -66.58970238 203.26727761 -66.58462201 191.75545144 C-66.58015397 181.3074737 -66.5809299 170.85950708 -66.58554077 160.41152954 C-66.59088643 148.29282326 -66.59288743 136.1741257 -66.58992851 124.05541801 C-66.58836527 117.63515837 -66.58817323 111.21490638 -66.591465 104.79464722 C-66.5943425 98.76027917 -66.59237025 92.72593222 -66.58657074 86.69156647 C-66.58524249 84.46988205 -66.58563834 82.24819588 -66.5878334 80.02651215 C-66.59054238 77.00752871 -66.58716689 73.988614 -66.58215332 70.96963501 C-66.58438404 70.07831186 -66.58661476 69.18698872 -66.58891308 68.26865578 C-66.56931949 62.23856998 -66.56931949 62.23856998 -65.45516968 61.12442017 C-63.38432248 60.96599367 -61.30838939 60.87317594 -59.23251343 60.80801392 C-57.97245483 60.76611938 -56.71239624 60.72422485 -55.41415405 60.68106079 C-54.07366232 60.6412442 -52.73316748 60.60153203 -51.39266968 60.56192017 C-50.04825445 60.51873974 -48.70385308 60.47512561 -47.35946655 60.43106079 C-44.05814627 60.32456659 -40.75674732 60.22255556 -37.45516968 60.12442017 C-37.43011353 59.25116089 -37.40505737 58.37790161 -37.37924194 57.47817993 C-37.28429259 54.24839464 -37.18504939 51.01877862 -37.08285522 47.78921509 C-37.03945534 46.38952817 -36.99778404 44.98978657 -36.95785522 43.58999634 C-36.90027523 41.58180522 -36.83602968 39.57380867 -36.77157593 37.56582642 C-36.73491821 36.35612183 -36.6982605 35.14641724 -36.66049194 33.90005493 C-36.45516968 31.12442017 -36.45516968 31.12442017 -35.45516968 30.12442017 C-33.38432248 29.96599367 -31.30838939 29.87317594 -29.23251343 29.80801392 C-27.97245483 29.76611938 -26.71239624 29.72422485 -25.41415405 29.68106079 C-24.07366232 29.6412442 -22.73316748 29.60153203 -21.39266968 29.56192017 C-20.04825445 29.51873974 -18.70385308 29.47512561 -17.35946655 29.43106079 C-14.05814627 29.32456659 -10.75674732 29.22255556 -7.45516968 29.12442017 C-7.41758545 27.8599707 -7.41758545 27.8599707 -7.37924194 26.56997681 C-7.28428812 23.45200342 -7.1850452 20.33420513 -7.08285522 17.21646118 C-7.03945745 15.86527869 -6.99778598 14.51403964 -6.95785522 13.16275024 C-6.90027016 11.22405315 -6.8360267 9.28555741 -6.77157593 7.34707642 C-6.73491821 6.17926636 -6.6982605 5.0114563 -6.66049194 3.80825806 C-6.29739017 -0.93797 -4.26529318 0.00827965 0 0 Z " fill="#B4B4B4" transform="translate(226.45516967773438,499.8755798339844)"/>
<path d="M0 0 C2.62144551 1.09139863 3.0765767 2.18117596 4.2109375 4.75390625 C4.82261346 6.43134076 5.40470803 8.11977936 5.9609375 9.81640625 C9.88632367 20.60717974 14.53139415 26.6346564 24.9609375 31.81640625 C28.7859339 33.07782025 32.6311869 33.88543401 36.5859375 34.62890625 C37.57078125 34.83193359 38.555625 35.03496094 39.5703125 35.24414062 C53.83897612 38.12641068 66.59065207 40.01589568 79.5859375 32.25390625 C84.01158569 29.1846301 86.69497908 25.4072483 89.55078125 20.890625 C90.9609375 18.81640625 90.9609375 18.81640625 92.9609375 17.81640625 C99.22564338 17.23634089 99.22564338 17.23634089 102.0703125 19.48046875 C104.22011994 22.13663579 104.9348757 24.22146685 105.8359375 27.50390625 C108.67735321 36.47622279 112.37883746 42.96319449 120.90576172 47.44750977 C132.03249762 52.43293475 144.76652031 54.00757084 156.7109375 56.00390625 C159.00486866 56.39258138 161.29843638 56.78324794 163.59161377 57.17634583 C165.00123195 57.41746159 166.41132908 57.65579926 167.82196045 57.89091492 C170.63662506 58.36801586 173.24621392 58.91149839 175.9609375 59.81640625 C175.3009375 64.10640625 174.6409375 68.39640625 173.9609375 72.81640625 C172.93734131 72.63464844 171.91374512 72.45289063 170.85913086 72.265625 C167.03774741 71.58870443 163.2150174 70.91966967 159.3918457 70.25292969 C157.74173205 69.96404266 156.09198411 69.67305814 154.44262695 69.37988281 C152.06295843 68.95727783 149.68204856 68.5423953 147.30078125 68.12890625 C146.57132797 67.99766357 145.84187469 67.8664209 145.09031677 67.73120117 C137.28226581 66.25032088 137.28226581 66.25032088 129.73828125 67.84765625 C123.65004143 72.70790714 118.30439816 78.22146329 115.9609375 85.81640625 C115.61617983 89.39429591 115.59513074 92.98568422 115.5703125 96.578125 C115.4481614 100.41231239 115.1857915 102.44327543 113.16015625 105.8046875 C110.9609375 107.81640625 110.9609375 107.81640625 107.1484375 108.50390625 C102.8176471 108.24070904 100.8994923 106.34372505 97.88671875 103.4140625 C90.85832665 97.58320577 80.79504287 96.0169397 71.9609375 96.81640625 C69.8491995 97.46617179 67.87508858 98.27369226 65.83984375 99.12890625 C62.70435765 100.2761943 60.23424578 100.31999214 56.9609375 99.81640625 C54.4609375 97.75390625 54.4609375 97.75390625 52.9609375 94.81640625 C53.08413304 91.36693107 53.5293908 88.73998157 54.9921875 85.609375 C56.26217973 81.94790547 56.34440408 78.46088063 56.3359375 74.62890625 C56.33352051 73.4982373 56.33352051 73.4982373 56.33105469 72.34472656 C56.14846598 64.00650874 53.93506988 56.86117871 47.9609375 50.81640625 C42.4904733 48.98241422 35.95552623 47.71120581 30.41015625 49.7578125 C28.27763483 51.27749281 26.66816703 52.83276813 24.9609375 54.81640625 C24.39890625 55.44546875 23.836875 56.07453125 23.2578125 56.72265625 C16.65481972 64.80010372 15.62448227 72.21468464 15.5625 82.328125 C14.81201101 86.67998649 13.41419213 88.14798222 9.9609375 90.81640625 C4.92324612 91.20392097 2.33247297 89.50912693 -1.4140625 86.44140625 C-9.81221595 79.56762351 -18.34619465 78.81907855 -29.0390625 79.81640625 C-31.46194822 80.469136 -31.46194822 80.469136 -33.5390625 81.37890625 C-37.38919508 82.9602107 -39.11906559 83.09268431 -43.0390625 81.81640625 C-44.9140625 80.75390625 -44.9140625 80.75390625 -46.0390625 78.81640625 C-46.54118577 74.04623514 -46.06867411 70.5896863 -44.5390625 66.06640625 C-41.86986354 57.75229849 -41.87943956 49.82992886 -45.7734375 41.94921875 C-46.39992188 40.89347656 -46.39992188 40.89347656 -47.0390625 39.81640625 C-47.54783936 38.82535889 -48.05661621 37.83431152 -48.58081055 36.81323242 C-51.91418835 32.74955058 -54.60491679 32.48185707 -59.63671875 31.734375 C-60.46739365 31.58986404 -61.29806854 31.44535309 -62.15391541 31.29646301 C-64.79970669 30.84139593 -67.44969296 30.4219385 -70.1015625 30.00390625 C-72.75518162 29.55999406 -75.40753907 29.10902602 -78.05992126 28.65779114 C-79.7083028 28.38019815 -81.35767507 28.10841194 -83.0080719 27.84306335 C-86.1188276 27.34085143 -89.04374282 26.81484614 -92.0390625 25.81640625 C-91.3790625 21.52640625 -90.7190625 17.23640625 -90.0390625 12.81640625 C-88.89131348 13.02845703 -87.74356445 13.24050781 -86.56103516 13.45898438 C-82.21375139 14.257738 -77.86287375 15.0352669 -73.51074219 15.80712891 C-71.64417448 16.14106203 -69.77856273 16.48039351 -67.9140625 16.82568359 C-58.30997851 18.60057627 -48.87005081 20.12950039 -39.08203125 20.17578125 C-37.99887131 20.1841803 -37.99887131 20.1841803 -36.89382935 20.19274902 C-30.43800534 20.08760064 -25.44098117 18.22866795 -20.0390625 14.81640625 C-19.1315625 14.25953125 -18.2240625 13.70265625 -17.2890625 13.12890625 C-14.27424698 10.03034586 -11.96843425 6.56310449 -9.58984375 2.9609375 C-6.95257916 -0.68606064 -4.37557213 -0.62395343 0 0 Z " fill="#010101" transform="translate(527.0390625,332.18359375)"/>
<path d="M0 0 C30.36 0 60.72 0 92 0 C92 9.9 92 19.8 92 30 C112.13 30 132.26 30 153 30 C153 40.23 153 50.46 153 61 C162.9 61 172.8 61 183 61 C183 70.9 183 80.8 183 91 C172.77 91 162.54 91 152 91 C152 81.1 152 71.2 152 61 C132.2 61 112.4 61 92 61 C92 51.1 92 41.2 92 31 C61.97 31 31.94 31 1 31 C1 40.9 1 50.8 1 61 C-19.13 61 -39.26 61 -60 61 C-60 50.77 -60 40.54 -60 30 C-40.2 30 -20.4 30 0 30 C0 20.1 0 10.2 0 0 Z " fill="#B4B4B4" transform="translate(402,793)"/>
<path d="M0 0 C8.19469313 6.19427553 10.88146373 16.12020171 12.94921875 25.75390625 C13.16513672 26.66591797 13.38105469 27.57792969 13.60351562 28.51757812 C16.2775026 40.52929739 16.03506207 51.54252064 9.62890625 62.36328125 C5.75872452 67.72753313 1.09382171 71.87248909 -4.86328125 74.81640625 C-5.85328125 74.81640625 -6.84328125 74.81640625 -7.86328125 74.81640625 C-7.38246094 75.52925781 -6.90164063 76.24210938 -6.40625 76.9765625 C-2.00555102 85.07607682 -3.74397844 96.85543942 -3.86328125 105.81640625 C-4.52328125 105.81640625 -5.18328125 105.81640625 -5.86328125 105.81640625 C-5.94578125 106.68265625 -6.02828125 107.54890625 -6.11328125 108.44140625 C-7.16375186 113.16852398 -9.46475895 116.41788395 -12.86328125 119.81640625 C-16.17578125 120.37890625 -16.17578125 120.37890625 -19.86328125 119.81640625 C-21.96389135 117.72102155 -23.43078673 115.40413828 -24.86328125 112.81640625 C-25.46140625 113.57953125 -26.05953125 114.34265625 -26.67578125 115.12890625 C-27.39765625 116.01578125 -28.11953125 116.90265625 -28.86328125 117.81640625 C-29.31703125 118.43515625 -29.77078125 119.05390625 -30.23828125 119.69140625 C-31.86328125 120.81640625 -31.86328125 120.81640625 -34.73828125 120.81640625 C-38.86649672 119.4953773 -40.25200796 118.32100988 -42.86328125 114.81640625 C-47.90878713 104.86084432 -50.13623878 90.01933029 -46.73046875 79.2265625 C-45.30078125 76.31640625 -45.30078125 76.31640625 -43.796875 73.91015625 C-42.60539036 71.8588521 -42.60539036 71.8588521 -43.49609375 69.796875 C-44.9911303 67.63120777 -46.59988294 65.63706361 -48.30078125 63.62890625 C-54.50112727 55.65887813 -55.19771726 48.74826093 -55.359375 38.7578125 C-54.17656113 29.360496 -49.305858 21.79931688 -44.11328125 14.06640625 C-43.530625 13.16019531 -42.94796875 12.25398438 -42.34765625 11.3203125 C-32.66666444 -3.22240546 -15.9001797 -10.10011415 0 0 Z " fill="#FE914D" transform="translate(567.86328125,452.18359375)"/>
<path d="M0 0 C7.05159602 7.91154676 9.1107566 16.63884641 9.03515625 26.99609375 C7.91844952 36.16047212 2.97750323 44.37049477 -3.7890625 50.5859375 C-5.4375 51.875 -5.4375 51.875 -8.4375 53.625 C-10.66131213 55.67111328 -10.66131213 55.67111328 -10.625 58.24609375 C-10.21008177 64.47851139 -8.62709869 70.06200449 -6.4375 75.875 C-4.32256022 81.69108438 -3.71240791 86.8879157 -5.4375 92.875 C-9.63874895 97.67642738 -14.17465936 99.41146781 -20.44921875 100.09375 C-25.21946466 100.31181838 -28.49068568 99.536805 -32.4375 96.875 C-36.02008395 92.18057965 -36.57637862 87.63352431 -36.34375 81.8671875 C-36.28261766 75.35877622 -37.53636157 69.33163096 -38.9375 63 C-39.41060541 60.81604312 -39.87951989 58.63117315 -40.34375 56.4453125 C-40.55322266 55.49414551 -40.76269531 54.54297852 -40.97851562 53.56298828 C-41.43643261 50.88125103 -41.72712721 48.58344453 -41.4375 45.875 C-39.24418022 43.97913044 -37.23412859 42.47964376 -34.8125 40.9375 C-25.84600638 35.33372662 -25.84600638 35.33372662 -20.4375 26.6875 C-20.17748428 23.66409836 -20.17748428 23.66409836 -22.4375 20.875 C-27.92771963 20.32597804 -31.85607862 20.51529099 -36.4375 23.875 C-37.88836515 26.16258568 -39.10787545 28.4636324 -40.26171875 30.9140625 C-41.4375 32.875 -41.4375 32.875 -44.4375 33.875 C-48.06407601 32.97122606 -51.51408581 31.52752165 -55 30.1875 C-55.97130859 29.83494141 -56.94261719 29.48238281 -57.94335938 29.11914062 C-58.87083984 28.76658203 -59.79832031 28.41402344 -60.75390625 28.05078125 C-62.02923218 27.56992065 -62.02923218 27.56992065 -63.33032227 27.0793457 C-65.8339648 25.64840275 -66.51814071 24.5787837 -67.4375 21.875 C-65.63475992 13.88285232 -59.84997454 6.34191201 -53.3125 1.625 C-38.3630955 -7.67403636 -15.04998019 -10.70644161 0 0 Z " fill="#3B0006" transform="translate(305.4375,358.125)"/>
<path d="M0 0 C10.23 0 20.46 0 31 0 C31 10.23 31 20.46 31 31 C40.9 31 50.8 31 61 31 C61 40.9 61 50.8 61 61 C71.23 61 81.46 61 92 61 C92 71.23 92 81.46 92 92 C81.77 92 71.54 92 61 92 C61 82.1 61 72.2 61 62 C51.1 62 41.2 62 31 62 C31 71.9 31 81.8 31 92 C20.77 92 10.54 92 0 92 C0 81.77 0 71.54 0 61 C9.9 61 19.8 61 30 61 C30 51.1 30 41.2 30 31 C20.1 31 10.2 31 0 31 C0 20.77 0 10.54 0 0 Z " fill="#B4B4B4" transform="translate(311,671)"/>
<path d="M0 0 C9.9 0 19.8 0 30 0 C30 9.9 30 19.8 30 30 C40.23 30 50.46 30 61 30 C61 40.23 61 50.46 61 61 C50.77 61 40.54 61 30 61 C30 51.1 30 41.2 30 31 C20.1 31 10.2 31 0 31 C0 40.9 0 50.8 0 61 C-10.23 61 -20.46 61 -31 61 C-31 50.77 -31 40.54 -31 30 C-20.77 30 -10.54 30 0 30 C0 20.1 0 10.2 0 0 Z " fill="#B6B6B6" transform="translate(494,702)"/>
<path d="M0 0 C2.49368552 1.76133271 3.0541326 3.2289757 4.14524841 6.06880188 C4.52922287 7.04774918 4.91319733 8.02669647 5.30880737 9.03530884 C5.91052513 10.63199654 5.91052513 10.63199654 6.5243988 12.26094055 C6.95080154 13.35927719 7.37720428 14.45761383 7.81652832 15.5892334 C9.18151132 19.11421591 10.52697166 22.64629176 11.87205505 26.1789093 C12.77377389 28.51729236 13.67675467 30.8551892 14.58103943 33.19258118 C16.64758191 38.54241103 18.70507952 43.89548775 20.73872375 49.25791931 C21.58708784 51.46318964 22.45658372 53.66038277 23.34059143 55.85160828 C23.79900421 56.99819916 24.25741699 58.14479004 24.72972107 59.3261261 C25.15116898 60.36319199 25.57261688 61.40025787 26.00683594 62.46875 C26.91359211 65.30093316 27.12593778 67.4186575 26.93455505 70.3664093 C28.29580505 70.9232843 28.29580505 70.9232843 29.68455505 71.4914093 C34.17995818 74.08491111 36.08032186 76.81633385 37.7275238 81.7335968 C38.74579934 85.79435623 39.39086993 89.23438907 37.93455505 93.2414093 C34.53887836 98.54715414 29.96159839 100.89039869 23.93455505 102.3664093 C18.90034724 102.80800648 15.9456628 102.51025051 11.93455505 99.3664093 C8.34290192 95.6721375 6.84815336 92.43272719 5.93455505 87.3664093 C6.18681977 84.80772429 6.54428438 82.31976539 7.03611755 79.7960968 C7.16852388 77.20658506 7.16852388 77.20658506 5.14500427 75.13911438 C2.74846326 72.1329827 1.10318743 69.0223341 -0.53419495 65.57344055 C-1.01034996 64.59001175 -1.01034996 64.59001175 -1.49612427 63.5867157 C-2.52617464 61.45404155 -3.54639076 59.31685714 -4.56544495 57.1789093 C-5.27415891 55.70070993 -5.98306368 54.22260203 -6.69215393 52.74458313 C-8.48207434 49.00738919 -10.26172752 45.26539091 -12.03926086 41.52229309 C-13.02151594 39.45869863 -14.00929994 37.39786801 -14.99952698 35.33808899 C-16.72389366 31.7503599 -18.42793285 28.15325061 -20.12794495 24.5539093 C-20.64614807 23.47665588 -21.1643512 22.39940247 -21.69825745 21.289505 C-22.16103088 20.29781311 -22.62380432 19.30612122 -23.1006012 18.28437805 C-23.50673645 17.42610413 -23.9128717 16.5678302 -24.33131409 15.68354797 C-25.16598168 13.049085 -25.20239082 11.8749466 -24.06544495 9.3664093 C-21.67963015 7.9831127 -19.46074621 6.87407539 -16.94044495 5.8039093 C-16.28817932 5.51322571 -15.6359137 5.22254211 -14.96388245 4.92304993 C-13.65340926 4.34191747 -12.33789654 3.7720166 -11.01759338 3.21357727 C-9.71382729 2.64778583 -8.42459299 2.04729185 -7.15235901 1.41377258 C-2.59593711 -0.79632314 -2.59593711 -0.79632314 0 0 Z " fill="#3C0107" transform="translate(223.06544494628906,368.6335906982422)"/>
<path d="M0 0 C4.60843631 4.16862704 8.68336761 9.84550482 9.12109375 16.1171875 C9.45021344 28.42244368 7.23112369 34.55940659 -1.01171875 43.69921875 C-2.9863808 45.57862808 -4.73358088 46.68154581 -7.1171875 47.953125 C-8.92769803 48.96035551 -8.92769803 48.96035551 -10.1171875 50.703125 C-10.71366948 55.09344734 -10.52323775 59.3010247 -10.1171875 63.703125 C-16.29126379 65.41814619 -21.57233163 66.04863941 -28.1171875 66.703125 C-29.1071875 60.103125 -30.0971875 53.503125 -31.1171875 46.703125 C-28.15494792 44.52213542 -25.19270833 42.34114583 -22.23046875 40.16015625 C-14.56865568 34.17076315 -14.56865568 34.17076315 -10.76171875 25.5625 C-10.50818265 21.42369447 -10.7919114 19.2344093 -12.9921875 15.640625 C-17.45250628 12.87522736 -21.00401995 12.88470641 -26.1171875 13.703125 C-31.31270745 15.15534499 -34.23426821 17.39859705 -37.1171875 21.953125 C-37.80441377 23.19194077 -38.47872844 24.43848494 -39.1171875 25.703125 C-44.97378656 24.04159488 -50.5762009 22.23270584 -56.1171875 19.703125 C-55.73297012 13.555647 -51.59899234 9.11860098 -47.36328125 4.99609375 C-35.78583404 -4.55107045 -13.26198303 -8.27091415 0 0 Z " fill="#72030F" transform="translate(300.1171875,360.296875)"/>
<path d="M0 0 C0.74121094 0.29777344 1.48242188 0.59554687 2.24609375 0.90234375 C4.51261052 1.80573554 6.78155987 2.6963776 9.0625 3.5625 C9.71347656 3.81128906 10.36445312 4.06007813 11.03515625 4.31640625 C14.53073848 5.53256309 17.60438453 6.1381727 21.3125 6.125 C22.09625 6.12242187 22.88 6.11984375 23.6875 6.1171875 C26.26811116 6.04171404 26.26811116 6.04171404 29.8125 5.25 C33 5 33 5 35.15234375 6.6484375 C37.34157694 9.43473429 37.57709408 10.86885223 37.75 14.375 C37.80542969 15.41914062 37.86085938 16.46328125 37.91796875 17.5390625 C38.05596209 23.36106723 38.07752526 29.17699134 38 35 C37.34 35 36.68 35 36 35 C35.9175 35.86625 35.835 36.7325 35.75 37.625 C34.69952939 42.35211773 32.3985223 45.6014777 29 49 C25.6875 49.5625 25.6875 49.5625 22 49 C19.8993899 46.9046153 18.43249452 44.58773203 17 42 C16.401875 42.763125 15.80375 43.52625 15.1875 44.3125 C14.465625 45.199375 13.74375 46.08625 13 47 C12.319375 47.928125 12.319375 47.928125 11.625 48.875 C10 50 10 50 7.125 50 C2.99678453 48.67897105 1.61127329 47.50460363 -1 44 C-5.7606555 34.60649183 -8.24020566 20.30343477 -5.44091797 9.92773438 C-4.05843039 6.34646864 -2.19883658 3.13573217 0 0 Z " fill="#FE3333" transform="translate(526,523)"/>
<path d="M0 0 C3.0475195 1.52375975 3.27388533 3.82023844 4.46875 6.96484375 C4.82383636 7.8901741 4.82383636 7.8901741 5.18609619 8.834198 C5.96407622 10.86615274 6.73210589 12.90171461 7.5 14.9375 C8.0335406 16.33772741 8.56772567 17.73770941 9.10253906 19.13745117 C10.19836151 22.00747702 11.29064442 24.87881638 12.38085938 27.75097656 C13.90730598 31.76571835 15.45749417 35.77090408 17.015625 39.7734375 C17.47775391 40.96332275 17.93988281 42.15320801 18.41601562 43.37915039 C19.2932035 45.63681749 20.17206207 47.89383631 21.05273438 50.15014648 C21.44267578 51.15891846 21.83261719 52.16769043 22.234375 53.20703125 C22.57694336 54.0885083 22.91951172 54.96998535 23.27246094 55.87817383 C24 58 24 58 24 60 C22.23244474 60.84026396 20.46082737 61.67198722 18.6875 62.5 C17.70136719 62.9640625 16.71523437 63.428125 15.69921875 63.90625 C13 65 13 65 10 65 C9.20442708 63.28645833 8.40885417 61.57291667 7.61328125 59.859375 C7.0927417 58.73837402 6.57220215 57.61737305 6.03588867 56.46240234 C4.87784567 53.96823894 3.72053604 51.47373693 2.5637207 48.97900391 C-0.22481968 42.96693079 -3.0171005 36.95674836 -5.83006287 30.95605469 C-7.03634706 28.38226748 -8.23990618 25.80721034 -9.44326782 23.23205566 C-10.02244649 21.99467968 -10.6029918 20.75794246 -11.18490601 19.52185059 C-11.9977861 17.79481927 -12.80565815 16.06543342 -13.61328125 14.3359375 C-14.30611206 12.85939697 -14.30611206 12.85939697 -15.01293945 11.35302734 C-16 9 -16 9 -16 7 C-13.3789879 5.80293183 -10.75385304 4.61711354 -8.125 3.4375 C-7.00544922 2.92413086 -7.00544922 2.92413086 -5.86328125 2.40039062 C-3.93450668 1.54026143 -1.9688967 0.76383202 0 0 Z " fill="#71030F" transform="translate(220,374)"/>
<path d="M0 0 C10.23 0 20.46 0 31 0 C31 9.9 31 19.8 31 30 C20.77 30 10.54 30 0 30 C0 20.1 0 10.2 0 0 Z " fill="#B5B5B5" transform="translate(463,672)"/>
<path d="M0 0 C9.9 0 19.8 0 30 0 C30 9.9 30 19.8 30 30 C20.1 30 10.2 30 0 30 C0 20.1 0 10.2 0 0 Z " fill="#B4B4B4" transform="translate(311,854)"/>
<path d="M0 0 C9.9 0 19.8 0 30 0 C30 9.9 30 19.8 30 30 C20.1 30 10.2 30 0 30 C0 20.1 0 10.2 0 0 Z " fill="#B4B4B4" transform="translate(342,702)"/>
<path d="M0 0 C9.9 0 19.8 0 30 0 C30 9.9 30 19.8 30 30 C20.1 30 10.2 30 0 30 C0 20.1 0 10.2 0 0 Z " fill="#B4B4B4" transform="translate(524,672)"/>
<path d="M0 0 C9.9 0 19.8 0 30 0 C30 9.9 30 19.8 30 30 C20.1 30 10.2 30 0 30 C0 20.1 0 10.2 0 0 Z " fill="#B4B4B4" transform="translate(372,672)"/>
<path d="M0 0 C15.53975282 3.76921664 26.58900281 12.57514804 35 26 C37.58597669 30.2765506 39.83042818 34.13035904 41 39 C41.34289062 40.22332031 41.68578125 41.44664062 42.0390625 42.70703125 C48.42670212 68.43006789 32.91670889 90.57564485 20.76464844 111.89404297 C17.84032368 117.04114585 14.95149573 122.20800987 12.0625 127.375 C11.19347046 128.92779663 11.19347046 128.92779663 10.30688477 130.51196289 C7.34423772 135.80618241 4.3843529 141.10193966 1.42578125 146.3984375 C-4.66710743 157.30018324 -10.78768525 168.18403924 -17.00634766 179.01464844 C-17.45929199 179.80387695 -17.91223633 180.59310547 -18.37890625 181.40625 C-18.81541504 182.16534668 -19.25192383 182.92444336 -19.70166016 183.70654297 C-21.04051875 186.07157448 -22.3294092 188.4605098 -23.62109375 190.8515625 C-26.97329752 196.89888257 -31.62797223 202.05906411 -38 205 C-46.1902259 207.00205522 -52.40980236 206.25294184 -60 203 C-60 202.34 -60 201.68 -60 201 C-59.443125 201.144375 -58.88625 201.28875 -58.3125 201.4375 C-49.97137333 203.4664227 -43.9721818 203.91088164 -36 200 C-35.071875 199.690625 -34.14375 199.38125 -33.1875 199.0625 C-30.40384842 197.71044066 -30.31560009 196.7778873 -29 194 C-28.03225076 192.35731834 -27.06302238 190.71547198 -26.08300781 189.08007812 C-20.94262899 180.49477283 -16.06791972 171.76904407 -11.25 163 C-10.90807617 162.37775543 -10.56615234 161.75551086 -10.21386719 161.1144104 C-9.87000977 160.48860077 -9.52615234 159.86279114 -9.171875 159.21801758 C-8.47658466 157.95262454 -7.78127216 156.68724368 -7.0859375 155.421875 C-6.74197937 154.79584885 -6.39802124 154.16982269 -6.04364014 153.52482605 C-2.68449861 147.4161727 0.71440681 141.33006796 4.125 135.25 C4.69154297 134.23993896 5.25808594 133.22987793 5.84179688 132.18920898 C6.98248293 130.15642709 8.12343289 128.12379327 9.26464844 126.09130859 C11.05532867 122.90143899 12.84439757 119.71067142 14.6328125 116.51953125 C15.23287109 115.44888428 15.83292969 114.3782373 16.45117188 113.27514648 C17.63867975 111.15429739 18.82490422 109.03272913 20.00976562 106.91040039 C22.63497951 102.20913213 25.27080575 97.51603603 27.9609375 92.8515625 C37.34215821 76.49426187 42.98899785 60.20684179 39.0078125 41.0859375 C33.96314901 25.63909969 25.14415288 14.30946529 10.88671875 6.44140625 C7.31588898 4.65840735 3.791822 3.23963412 0 2 C0 1.34 0 0.68 0 0 Z " fill="#DA2626" transform="translate(627,118)"/>
<path d="M0 0 C1.20366211 -0.00580078 1.20366211 -0.00580078 2.43164062 -0.01171875 C3.20830078 -0.01042969 3.98496094 -0.00914063 4.78515625 -0.0078125 C5.48648682 -0.00668457 6.18781738 -0.00555664 6.91040039 -0.00439453 C9.02392259 0.13051656 10.90310344 0.55026656 12.9375 1.125 C12.9375 1.785 12.9375 2.445 12.9375 3.125 C11.9945105 3.0935791 11.9945105 3.0935791 11.0324707 3.06152344 C-7.83649409 2.51614771 -24.78128679 3.90374193 -39.4453125 17.375 C-52.29841761 31.28367413 -56.5167749 47.44115762 -56.49487305 65.9934082 C-56.5050647 67.31203857 -56.51525635 68.63066895 -56.52575684 69.98925781 C-56.55303583 73.56071095 -56.5625711 77.13200498 -56.56861091 80.70354867 C-56.57807147 84.45250873 -56.60428022 88.2013534 -56.62861633 91.95024109 C-56.67207573 99.02943681 -56.70074831 106.10860988 -56.72393972 113.18789786 C-56.75110247 121.25582766 -56.79500653 129.32364018 -56.84022844 137.39148581 C-56.93277977 153.96926416 -57.00459465 170.54706362 -57.0625 187.125 C-57.7225 187.125 -58.3825 187.125 -59.0625 187.125 C-59.15623513 169.63463042 -59.22662137 152.14434003 -59.26974869 134.65377617 C-59.29031202 126.53130536 -59.3183123 118.40899127 -59.36425781 110.28662109 C-59.40431763 103.20131985 -59.429978 96.11613219 -59.43885398 89.03072083 C-59.44403661 85.28429281 -59.45608485 81.53818951 -59.48542023 77.7918663 C-59.51289341 74.25415983 -59.52088195 70.71690688 -59.51493073 67.17910385 C-59.51652859 65.28521639 -59.53788243 63.3913765 -59.56018066 61.49761963 C-59.48299627 45.16463834 -54.10086164 29.62489785 -42.6015625 17.8671875 C-40.84181129 16.26262413 -40.84181129 16.26262413 -41.0625 14.125 C-40.0725 13.568125 -39.0825 13.01125 -38.0625 12.4375 C-36.07005589 11.31202758 -34.13205474 10.17221382 -32.23828125 8.88671875 C-22.47655171 2.27657485 -11.60073137 -0.05617788 0 0 Z " fill="#DC2626" transform="translate(612.0625,115.875)"/>
<path d="M0 0 C30.36 0 60.72 0 92 0 C92 9.9 92 19.8 92 30 C112.13 30 132.26 30 153 30 C153 50.13 153 70.26 153 91 C152.67 91 152.34 91 152 91 C152 71.2 152 51.4 152 31 C102.17 31 52.34 31 1 31 C1 40.9 1 50.8 1 61 C0.67 61 0.34 61 0 61 C0 51.1 0 41.2 0 31 C-19.8 31 -39.6 31 -60 31 C-60 30.67 -60 30.34 -60 30 C-40.2 30 -20.4 30 0 30 C0 20.1 0 10.2 0 0 Z M1 1 C1 10.57 1 20.14 1 30 C30.7 30 60.4 30 91 30 C91 20.43 91 10.86 91 1 C61.3 1 31.6 1 1 1 Z " fill="#D4D4D4" transform="translate(402,793)"/>
<path d="M0 0 C40.26 0 80.52 0 122 0 C122 6.6 122 13.2 122 20 C131.9 20 141.8 20 152 20 C152 20.33 152 20.66 152 21 C142.1 21 132.2 21 122 21 C122 40.8 122 60.6 122 81 C131.9 81 141.8 81 152 81 C152 81.33 152 81.66 152 82 C141.77 82 131.54 82 121 82 C121 61.87 121 41.74 121 21 C70.84 21 20.68 21 -31 21 C-31 20.67 -31 20.34 -31 20 C19.16 20 69.32 20 121 20 C121 13.73 121 7.46 121 1 C81.07 1 41.14 1 0 1 C0 0.67 0 0.34 0 0 Z " fill="#D1D1D1" transform="translate(494,590)"/>
<path d="M0 0 C3.58334792 3.11595472 5.1745974 5.44235648 5.9375 10.125 C5.99785485 13.86700048 5.94748293 15.00482056 4 18 C0.43094394 20.65833141 -3.33260356 21.88688196 -7.6875 22.625 C-11.31044419 21.94142562 -12.89949282 20.93471344 -15.046875 17.9140625 C-16.81706111 14.35918056 -17.49565144 10.95063357 -17 7 C-12.71139753 1.07163776 -7.20178687 -1.0288267 0 0 Z " fill="#71030F" transform="translate(251,444)"/>
<path d="M0 0 C2.7691289 1.64969381 4.44641827 2.80767012 5.8125 5.75 C5.874375 6.4925 5.93625 7.235 6 8 C6.061875 8.62390625 6.12375 9.2478125 6.1875 9.890625 C6.40439072 13.55065597 6.43896361 15.3885864 4.25 18.4375 C-0.21806547 21.54032324 -5.70782394 21.72961986 -11 21 C-13.50160818 19.12379387 -14.61945652 17.76108697 -16 15 C-16.41272288 11.61567241 -16.49649408 8.37725097 -16 5 C-11.65095546 0.18078849 -6.32805911 -0.90048404 0 0 Z " fill="#71030F" transform="translate(290,432)"/>
<path d="M0 0 C10.23 0 20.46 0 31 0 C31 20.13 31 40.26 31 61 C51.13 61 71.26 61 92 61 C92 71.23 92 81.46 92 92 C91.67 92 91.34 92 91 92 C91 82.1 91 72.2 91 62 C71.2 62 51.4 62 31 62 C31 71.9 31 81.8 31 92 C30.67 92 30.34 92 30 92 C30 82.1 30 72.2 30 62 C20.1 62 10.2 62 0 62 C0 61.67 0 61.34 0 61 C9.9 61 19.8 61 30 61 C30 41.2 30 21.4 30 1 C20.1 1 10.2 1 0 1 C0 0.67 0 0.34 0 0 Z " fill="#D8D8D8" transform="translate(311,671)"/>
<path d="M0 0 C0.33 0 0.66 0 1 0 C1.00146656 0.69868698 1.00293312 1.39737396 1.00444412 2.11723328 C1.04153318 19.13603181 1.10057562 36.15461326 1.18390274 53.17324829 C1.22367292 61.40342526 1.25607564 69.6335069 1.27099609 77.86376953 C1.28402314 85.03921482 1.31101451 92.21445015 1.35461307 99.38977718 C1.37720443 103.18735268 1.39291209 106.98466946 1.39188385 110.78231812 C1.39113584 114.36116545 1.40914206 117.93944138 1.44116783 121.51814079 C1.4536693 123.4488669 1.44661374 125.37968906 1.43885803 127.31044006 C1.52286149 134.33690486 2.14117347 139.05962848 6 145 C7.91053369 146.81773896 9.91343416 148.37711546 12 150 C12.33 150.99 12.66 151.98 13 153 C19.16251629 155.60195132 25.40673401 155.19487486 32 155 C27.12561269 158.24959154 23.79908791 158.7403091 18 158 C9.56165473 155.48645035 5.27436079 150.4679883 1 143 C0.64581812 142.40921032 0.29163624 141.81842064 -0.07327843 141.20972824 C-1.24384488 138.41856224 -1.2298524 136.26764582 -1.20254517 133.24200439 C-1.19688034 132.06693832 -1.19121552 130.89187225 -1.18537903 129.68119812 C-1.16883774 128.39582657 -1.15229645 127.11045502 -1.13525391 125.78613281 C-1.12482523 124.41610845 -1.11529047 123.04607703 -1.10658264 121.67604065 C-1.0804259 117.959334 -1.04175905 114.24285013 -1.00085878 110.5262804 C-0.960228 106.64125687 -0.93108438 102.75614766 -0.90072632 98.87103271 C-0.84150049 91.51518166 -0.77193227 84.15946616 -0.69865549 76.80374312 C-0.61573067 68.42902703 -0.54432446 60.05422515 -0.47388959 51.67939615 C-0.3287504 34.45280313 -0.16913362 17.2263738 0 0 Z " fill="#EF2B2B" transform="translate(555,168)"/>
<path d="M0 0 C0.66 0 1.32 0 2 0 C2.29132812 0.66386719 2.58265625 1.32773437 2.8828125 2.01171875 C5.57443013 7.80970012 7.91324997 11.18493748 13 15 C13.33 15.99 13.66 16.98 14 18 C20.16251629 20.60195132 26.40673401 20.19487486 33 20 C28.12561269 23.24959154 24.79908791 23.7403091 19 23 C10.56165473 20.48645035 6.27436079 15.4679883 2 8 C1.4121875 6.98099609 1.4121875 6.98099609 0.8125 5.94140625 C0 4 0 4 0 0 Z " fill="#E13131" transform="translate(554,303)"/>
<path d="M0 0 C0.58265625 0.144375 1.1653125 0.28875 1.765625 0.4375 C8.58340445 1.98114818 15.02694354 2.21566154 22 2 C17.16682891 5.22211406 13.75454746 5.70221895 8 5 C5.10546285 3.90799175 2.68968647 2.56490849 0 1 C0 0.67 0 0.34 0 0 Z " fill="#FC4E4E" transform="translate(565,321)"/>
<path d="M0 0 C8.415 1.485 8.415 1.485 17 3 C16.67 3.66 16.34 4.32 16 5 C9.79029227 5.33266291 5.71735105 4.45029331 0 2 C0 1.34 0 0.68 0 0 Z " fill="#D82424" transform="translate(567,319)"/>
</svg>
