<?xml version="1.0" encoding="UTF-8"?>
<svg version="1.1" xmlns="http://www.w3.org/2000/svg" width="1920" height="1080">
<path d="M0 0 C633.6 0 1267.2 0 1920 0 C1920 356.4 1920 712.8 1920 1080 C1286.4 1080 652.8 1080 0 1080 C0 723.6 0 367.2 0 0 Z " fill="#FED357" transform="translate(0,0)"/>
<path d="M0 0 C0.70463379 0.51127441 1.40926758 1.02254883 2.13525391 1.54931641 C2.93552002 2.12085449 3.73578613 2.69239258 4.56030273 3.28125 C5.40230225 3.89822754 6.24430176 4.51520508 7.11181641 5.15087891 C8.91476091 6.44316094 10.71815115 7.73482131 12.52197266 9.02587891 C13.85446045 9.986875 13.85446045 9.986875 15.21386719 10.96728516 C18.62500052 13.41257989 22.0813859 15.7871854 25.54931641 18.15087891 C32.07266303 22.61752559 38.56309954 27.1305216 45.04931641 31.65087891 C52.85113929 37.08671628 60.67716843 42.48432313 68.53295898 47.84179688 C75.78404328 52.79342316 82.98690924 57.81331134 90.18994141 62.83447266 C96.18593426 67.01082597 102.19994435 71.15886696 108.23681641 75.27587891 C116.32611823 80.79291899 124.36748952 86.3770271 132.40087891 91.97509766 C137.83399731 95.7600486 143.27520915 99.53216169 148.73681641 103.27587891 C155.19592603 107.70334481 161.62453548 112.17376779 168.04931641 116.65087891 C175.85116642 122.08667767 183.67716806 127.48432287 191.53295898 132.84179688 C198.77968033 137.79044378 205.97851873 142.80688146 213.17675781 147.82568359 C219.97584646 152.56212737 226.79865341 157.26193839 233.65673828 161.91259766 C241.76160412 167.42787865 249.72290407 173.11899961 257.73681641 178.77587891 C257.73681641 274.14587891 257.73681641 369.51587891 257.73681641 467.77587891 C-5.27318359 467.77587891 -268.28318359 467.77587891 -539.26318359 467.77587891 C-539.26318359 456.42239453 -539.22411959 445.50582043 -538.26708984 434.26806641 C-538.15651809 432.90067925 -538.04665247 431.53323484 -537.93740845 430.16574097 C-537.70015762 427.21375478 -537.45822073 424.26220569 -537.2124939 421.31091309 C-536.81383713 416.52153456 -536.4261204 411.7313048 -536.03979492 406.94091797 C-535.53307996 400.66682884 -535.02366551 394.39296828 -534.5113821 388.11933136 C-532.76674991 366.74727689 -531.06747707 345.37157638 -529.36509991 323.99612236 C-528.75997022 316.39951551 -528.15280546 308.80307515 -527.54375839 301.20678139 C-527.15889164 296.40418669 -526.77514246 291.60150308 -526.39161301 286.79880142 C-526.2125377 284.55935025 -526.03300068 282.31993594 -525.85295486 280.08056259 C-525.60323341 276.97356915 -525.35512126 273.86645203 -525.10766602 270.75927734 C-525.03061306 269.80008707 -524.9535601 268.8408968 -524.87417221 267.85264015 C-524.53424088 263.54836424 -524.22120636 259.24713953 -523.99673462 254.93518066 C-523.95749784 254.19801945 -523.91826105 253.46085823 -523.87783527 252.7013588 C-523.7806405 250.77936861 -523.69574338 248.85676695 -523.61201477 246.93414307 C-523.26737034 243.81378506 -522.70621465 241.55543006 -521.26318359 238.77587891 C-518.63476562 237.03759766 -518.63476562 237.03759766 -515.27099609 235.46337891 C-514.66253342 235.1731485 -514.05407074 234.88291809 -513.4271698 234.58389282 C-511.42126105 233.63195917 -509.4052 232.70401475 -507.38818359 231.77587891 C-505.97240278 231.10980027 -504.55729032 230.44229934 -503.14282227 229.7734375 C-499.53759071 228.07371573 -495.92356222 226.39376714 -492.3057251 224.72106934 C-489.28181027 223.32174631 -486.26303556 221.91151588 -483.24365234 220.50244141 C-478.72941111 218.3999723 -474.21033881 216.30827129 -469.68896484 214.22119141 C-461.18993246 210.28968193 -452.7270804 206.28232986 -444.26318359 202.27587891 C-433.61442252 197.23643301 -422.95546684 192.22248404 -412.26318359 187.27587891 C-401.69831285 182.3868409 -391.1623684 177.43925865 -380.63818359 172.46337891 C-379.88027527 172.10504974 -379.12236694 171.74672058 -378.3414917 171.37753296 C-375.26976673 169.92515943 -372.19809366 168.4726762 -369.12649536 167.02003479 C-361.05086277 163.20140155 -352.9706258 159.39257553 -344.88818359 155.58837891 C-344.18391235 155.25686829 -343.47964111 154.92535767 -342.75402832 154.58380127 C-332.36804092 149.69604984 -321.9697839 144.83510374 -311.56433105 139.98895264 C-300.29488145 134.73922538 -289.0534473 129.43112139 -277.81542969 124.11450195 C-268.0241046 119.48330229 -258.21940237 114.88441531 -248.38818359 110.33837891 C-237.357043 105.23651678 -226.36792343 100.04970916 -215.38818359 94.83837891 C-202.74333095 88.83679727 -190.08255577 82.8724062 -177.39306641 76.96582031 C-167.96213974 72.57501471 -158.54821185 68.14877528 -149.13818359 63.71337891 C-138.90292788 58.88934196 -128.656733 54.09123332 -118.38818359 49.33837891 C-107.78215932 44.42750169 -97.20457566 39.45882468 -86.63818359 34.46337891 C-85.88178589 34.10580505 -85.12538818 33.7482312 -84.34606934 33.37982178 C-81.27883215 31.92974089 -78.21167141 30.47949842 -75.14459229 29.02908325 C-55.60755796 19.79070688 -55.60755796 19.79070688 -46.41210938 15.48193359 C-45.72510956 15.16001038 -45.03810974 14.83808716 -44.33029175 14.50640869 C-42.96586449 13.86709185 -41.60138354 13.22788955 -40.23684692 12.58880615 C-36.29527745 10.73966889 -32.3652243 8.8685038 -28.44412231 6.97636414 C-26.6136407 6.09479674 -24.78015695 5.21985759 -22.9453125 4.34741211 C-20.72552964 3.29057567 -18.51121183 2.22214903 -16.30371094 1.13989258 C-15.32611816 0.6781665 -14.34852539 0.21644043 -13.34130859 -0.25927734 C-12.07915527 -0.86848022 -12.07915527 -0.86848022 -10.79150391 -1.48999023 C-6.75870692 -2.66096557 -3.65808958 -1.97860422 0 0 Z " fill="#7F95F7" transform="translate(1662.26318359375,612.22412109375)"/>
<path d="M0 0 C5.94638537 0.50393096 10.59861982 2.73817168 14.5625 7.25 C17.70575843 11.77999009 19.28956666 15.41405794 19.12890625 21.05859375 C18.00774951 26.78343837 14.41908222 32.55767204 9.625 35.9375 C4.33078136 38.38460551 -1.6657013 38.21877634 -7.3125 37.3125 C-12.78078159 34.94923635 -16.37073804 30.89428264 -18.68359375 25.44921875 C-20.05355865 20.79474174 -20.30810068 16.66804884 -18.39453125 12.140625 C-15.42328183 7.02507585 -11.6427148 2.4225716 -5.875 0.5 C-3.9148276 0.35657275 -1.95672463 0.18459666 0 0 Z " fill="#F2F1EF" transform="translate(50.3125,943.6875)"/>
<path d="M0 0 C4.15343327 2.93911479 7.57921372 6.17725431 9.66015625 10.859375 C10.43022533 17.28546874 10.63101527 23.47950149 6.66015625 28.859375 C1.70474493 33.92251266 -1.9725012 35.93970795 -9.08984375 36.234375 C-14.62151459 36.16910455 -18.22058562 34.50296821 -22.33984375 30.859375 C-26.51557013 25.61294955 -27.84042339 20.9192376 -27.7421875 14.3046875 C-26.86307921 8.96175752 -23.69774658 4.77035507 -19.546875 1.40625 C-13.69291936 -2.0216333 -6.20063807 -3.02268166 0 0 Z " fill="#F2F1F0" transform="translate(107.33984375,1017.140625)"/>
<path d="M0 0 C3.00169656 1.97839092 4.72865706 3.8526764 6.75 6.8125 C7.1625 7.410625 7.575 8.00875 8 8.625 C9.47260162 12.92008805 9.57008977 16.79156449 7.875 20.96875 C5.00792235 26.02386059 2.13077806 28.62370892 -3.25 30.8125 C-7.87637716 31.49984746 -12.14550416 31.14207872 -16.25 28.8125 C-23.01910569 22.67307856 -23.01910569 22.67307856 -23.5859375 18.10546875 C-23.71904882 7.52311902 -23.71904882 7.52311902 -19.25 2.8125 C-13.19884873 -1.4675826 -6.96789938 -2.54596324 0 0 Z " fill="#F2F1EF" transform="translate(129.25,899.1875)"/>
<path d="M0 0 C4.58904257 2.26984901 7.25861911 5.59081088 8.87890625 10.3359375 C9.84681429 15.92340665 8.64520021 20.37568627 5.87890625 25.3359375 C1.80154577 29.30599902 -1.90567632 31.13453592 -7.55859375 31.6484375 C-12.4945718 31.21545697 -15.59325987 29.6091324 -19.37109375 26.4609375 C-22.73406337 22.37733153 -23.54313176 18.69230865 -23.36328125 13.38671875 C-22.77354694 8.39300082 -20.91912013 4.64087729 -17.12109375 1.3984375 C-11.93023106 -1.92283482 -5.76629228 -1.80528488 0 0 Z " fill="#F2F1EF" transform="translate(31.12109375,755.6640625)"/>
<path d="M0 0 C3.93792318 2.56821077 6.74612583 5.61725165 8.875 9.875 C9.43269904 15.83808973 9.37656448 20.80376868 5.875 25.875 C0.58835136 30.64587804 -2.96916835 31.39317708 -10 31.359375 C-15.05563211 30.57575202 -18.01296005 27.80095809 -21.125 23.875 C-23.68310835 19.61992869 -23.88162511 15.72536521 -23.125 10.875 C-21.31923246 6.09601522 -18.7275421 2.85768385 -14.25 0.375 C-9.23073439 -1.7478097 -5.15844739 -1.85704106 0 0 Z " fill="#F2F1EF" transform="translate(226.125,1042.125)"/>
<path d="M0 0 C4.8134029 2.01009147 7.61558271 4.65841041 10.11328125 9.23046875 C12.14093252 14.350989 11.52562662 18.62682365 9.3984375 23.62109375 C7.11802755 27.62956522 4.42420432 30.07993442 -0.0390625 31.37109375 C-4.99086067 32.13808423 -9.74513696 32.56568127 -14.296875 30.1953125 C-18.54959662 26.75220943 -20.70331265 23.54206459 -21.28515625 18.046875 C-21.49391051 13.81485689 -21.30445129 10.95716066 -19.5390625 7.05859375 C-13.9980022 1.10195393 -8.30805826 -2.56244709 0 0 Z " fill="#F2F1EF" transform="translate(78.0390625,826.62890625)"/>
<path d="M0 0 C5.36787898 1.88869816 8.45991584 4.91983169 11 10 C11.57858803 14.82644951 12.10630423 19.80270371 9.87109375 24.2421875 C5.80715697 29.18682077 1.51806532 31.67508835 -4.875 32.5 C-9.78359191 32.27431761 -13.41150914 30.28680358 -17 27 C-20.48595594 22.3194187 -21.75796218 17.84713682 -21 12 C-17.39181534 1.97726483 -9.94585317 -0.84157219 0 0 Z " fill="#F2F1EF" transform="translate(175,970)"/>
<path d="M0 0 C4.69151003 1.89674645 7.41414877 4.04133435 10.0625 8.375 C11.37032713 13.43193157 10.91286419 16.93404421 8.8125 21.6875 C5.65074335 25.72146539 2.68370218 27.78571063 -2.4375 28.4375 C-6.59361095 27.92710041 -9.37440601 27.12063045 -13 25 C-16.57452406 20.41727685 -17.62142218 16.86952142 -17.31640625 11.07421875 C-16.6358154 6.61256761 -14.65553882 4.56406828 -11.3125 1.6875 C-7.36983341 -0.32102826 -4.28929069 -0.9139797 0 0 Z " fill="#F2F1ED" transform="translate(99,708)"/>
<path d="M0 0 C4.16685498 1.89402499 5.62273112 3.33349165 7.875 7.3125 C9.11511286 11.37731437 9.73735369 13.79708395 9 18 C6.29476605 22.03260208 3.67429492 25.44190169 -1 27 C-5.06761945 27.49007463 -9.18317658 27.92506284 -12.91796875 26.0234375 C-16.40770294 23.21441689 -18.64260131 20.28568932 -19.3359375 15.8515625 C-19.43162704 10.39725865 -18.74398185 7.24992535 -15 3 C-10.62534762 -0.8599874 -5.54920564 -0.78258028 0 0 Z " fill="#F2F1EE" transform="translate(52,637)"/>
<path d="M0 0 C4.2619244 2.41196821 7.11342404 5.47750717 9 10 C9.56442523 14.98575618 8.93377129 18.34148186 6.25 22.48828125 C3.57065362 25.72861578 0.68403804 26.75589677 -3.3984375 27.34765625 C-7.76976876 27.60363511 -10.98780519 27.53909588 -14.5 24.75 C-18.52133193 20.32653488 -19.46160527 17.13540039 -19.31640625 11.25 C-18.67993195 6.72396054 -16.19231612 4.05204364 -12.875 1.125 C-8.52633911 -0.57664991 -4.59375359 -0.89442243 0 0 Z " fill="#F2F1EE" transform="translate(296,995)"/>
<path d="M0 0 C3.62011046 2.33296007 5.89022378 4.96794755 7.8125 8.8125 C8.29738482 13.7583252 7.78073345 17.10688151 5.140625 21.234375 C1.88044243 25.108239 -1.76819214 26.58439695 -6.6875 27.375 C-12.45167841 26.44861418 -15.79441472 23.72799226 -19.1875 19.0625 C-20.53247662 14.69132599 -20.48251072 11.19983933 -19.1875 6.8125 C-14.79641722 -0.87597579 -8.30330883 -3.09338956 0 0 Z " fill="#F2F1EC" transform="translate(248.1875,924.1875)"/>
<path d="M0 0 C6.50750392 0.92964342 11.161851 1.78879534 15.515625 6.71484375 C19.32207936 11.88855902 20.82570953 16.48736145 20 23 C18.10115061 28.90270895 15.03968715 32.50307422 10 36 C6.16155798 37.96603128 4.54925811 38 0 38 C0 25.46 0 12.92 0 0 Z " fill="#F2F1EF" transform="translate(0,872)"/>
<path d="M0 0 C4.4125235 2.1661479 7.09058512 4.43862 9 9 C9.60326319 14.42936874 8.6877497 18.25164219 6 23 C2.65010968 26.11061244 -0.01273493 27.26581613 -4.5 27.5 C-8.96327499 27.282096 -11.60484255 25.99097204 -15 23 C-18.33271032 19.2229283 -18.61993863 15.38537908 -18.49609375 10.51171875 C-17.66789838 6.31857211 -15.19763024 3.70887329 -12 1 C-8.28763586 -0.85618207 -4.05156912 -0.44809981 0 0 Z " fill="#F2F1EE" transform="translate(198,852)"/>
<path d="M0 0 C5.1481452 3.06184245 8.22829502 7.11392691 11.51953125 12.05078125 C11.51953125 13.70078125 11.51953125 15.35078125 11.51953125 17.05078125 C-2.34046875 17.05078125 -16.20046875 17.05078125 -30.48046875 17.05078125 C-29.13545767 8.9807148 -25.18374599 4.89283122 -18.79296875 -0.01171875 C-12.71170653 -1.7328307 -5.99557892 -2.29437115 0 0 Z " fill="#F2F1EF" transform="translate(36.48046875,1062.94921875)"/>
<path d="M0 0 C3.66082573 1.36369405 6.36868233 3.2668569 8.9375 6.25 C10.86523018 11.2394193 10.58015715 15.32399045 8.875 20.25 C6.52011124 23.70383685 4.79853672 25.2043281 1 27 C-3.14837353 27.72174954 -7.08690242 27.99183133 -10.90625 26.01171875 C-14.42468246 23.22629305 -16.68678403 20.2738666 -17.30078125 15.81640625 C-17.32551063 11.06012126 -17.22536313 7.76292366 -14 4 C-9.61352928 0.22559497 -5.7029157 -1.08993949 0 0 Z " fill="#F2F1EF" transform="translate(148,780)"/>
<path d="M0 0 C3.48478389 1.24926215 5.43164611 2.35586559 7.875 5.125 C9.45756719 9.16933838 9.68659164 12.71446096 9 17 C6.91108539 21.10322512 5.23469879 23.27819939 1 25 C-2.75784338 25.64908204 -6.41510576 25.84103267 -9.84765625 24.01953125 C-14.36169404 20.41495562 -15.76674145 17.77859644 -16.5 12.1875 C-16.41683344 7.74640551 -14.47146357 5.49027175 -11.5078125 2.34765625 C-8.10471212 -0.69397491 -4.33696148 -0.44419531 0 0 Z " fill="#F2F1EE" transform="translate(24,446)"/>
<path d="M0 0 C3.07061968 1.71368609 5.40450726 3.80901452 7 7 C7.43281664 11.23660902 7.44858706 14.91394711 5.8125 18.875 C2.52734697 22.72655873 0.1127485 23.8586986 -4.9375 24.5 C-9.70314808 24.31982427 -11.76251637 22.39164952 -15 19 C-17.54641337 15.52761813 -17.43529792 12.20787993 -17 8 C-13.10762864 0.63229706 -8.08733335 -1.41318455 0 0 Z " fill="#F2F1ED" transform="translate(123,590)"/>
<path d="M0 0 C3.78580423 2.03850997 7.05061257 4.10122513 9 8 C9.4085132 12.28938857 9.48025674 14.86254983 7.8125 18.8125 C5.17726252 21.99295903 3.0211958 23.69865808 -1.1484375 24.3203125 C-5.17080409 24.52076266 -7.42120015 24.34481693 -10.9375 22.25 C-14.53906413 18.32102095 -15.51333951 15.51249817 -15.390625 10.03125 C-14.68496324 6.36180884 -12.64094058 4.57952335 -10 2 C-6.24543433 -0.50304378 -4.45254066 -0.45280074 0 0 Z " fill="#F2F1ED" transform="translate(414,1019)"/>
<path d="M0 0 C4.21852374 1.62250913 6.63393447 3.16110982 9 7 C9.8562083 11.74385682 9.68406186 15.78389003 7.3125 20 C3.77762218 23.05719163 1.17866178 23.8499885 -3.4375 24.4375 C-8.24937303 23.84656822 -9.63411477 22.44416163 -13 19 C-15.31205572 15.7421033 -15.47249357 12.93744642 -15 9 C-11.17792656 2.03836624 -8.10768399 -0.83872593 0 0 Z " fill="#F2F1EE" transform="translate(72,518)"/>
<path d="M0 0 C3.51732742 1.28517733 5.4770624 2.37247488 7.875 5.25 C9.31158806 8.76165971 9.40359922 11.23307391 9 15 C7.19279876 19.08998175 4.80930249 21.66247347 1 24 C-3.33331775 24.63030076 -5.42784522 24.30227045 -9.3125 22.25 C-12.40794858 19.65846166 -13.72148849 17.81032484 -14.3359375 13.81640625 C-14.4059667 9.77572121 -14.35885159 7.58158705 -12.1875 4.0625 C-8.03448758 0.14680257 -5.65044463 -0.47885124 0 0 Z " fill="#F2F1ED" transform="translate(365,948)"/>
<path d="M0 0 C3.44617085 1.25917781 5.46869724 2.41728084 7.9375 5.125 C9.49172693 9.33055522 9.45395071 12.74999025 8 17 C5.63358805 20.34161919 2.95403927 22.48142804 -1.03125 23.5390625 C-4.92425704 23.82355148 -7.47774561 22.99705197 -10.4375 20.625 C-14.14829142 16.82370147 -14.39257459 14.47406195 -14.359375 9.328125 C-13.75455722 5.40995764 -11.83123243 3.69641184 -9 1 C-5.92805092 -0.53597454 -3.39755707 -0.2265038 0 0 Z " fill="#F2F1ED" transform="translate(170,662)"/>
<path d="M0 0 C4.1657644 1.7588783 6.17507027 3.86989588 8 8 C8.59866575 12.01961286 8.18471519 13.66878655 6.1875 17.25 C4.00736386 19.99074258 2.46430532 21.76417555 -1.0859375 22.3359375 C-5.11172399 22.40463693 -7.40531432 22.35428083 -10.9375 20.25 C-13.78206465 17.14683856 -14.82909642 15.31026074 -15.375 11.125 C-14.89861498 7.15512486 -13.46959574 5.10463464 -11 2 C-7.28612182 -0.47591878 -4.30417439 -0.53907468 0 0 Z " fill="#F2F1ED" transform="translate(317,877)"/>
<path d="M0 0 C3.40704599 0.94440924 5.0954939 2.88675585 7.2265625 5.6171875 C8.82963174 8.82332597 8.71396711 12.13858747 8.2265625 15.6171875 C6.13294073 19.05670898 4.10748419 21.39746925 0.2265625 22.6171875 C-3.09077459 23.04721268 -5.57833236 23.33478412 -8.5234375 21.56640625 C-11.40599407 19.21739981 -13.55901681 17.40636996 -14.01171875 13.62890625 C-14.14275296 9.5254666 -14.16607953 7.25353838 -11.9609375 3.6796875 C-7.7215174 -0.31748003 -5.53718418 -0.73949365 0 0 Z " fill="#F2F1ED" transform="translate(267.7734375,805.3828125)"/>
<path d="M0 0 C2.77625393 1.89776384 4.46590806 4.01898043 6 7 C6.61676489 10.97470708 6.40752348 13.10344834 4.75 16.75 C1.69198038 20.68173952 0.20199821 21.84490346 -4.875 22.5 C-9.64239584 22.33960164 -11.73679498 20.34279539 -15 17 C-16.73631636 13.52736727 -16.60190402 9.78806987 -16 6 C-11.53356322 0.35818512 -7.05709651 -1.43033279 0 0 Z " fill="#F2F1EF" transform="translate(221,734)"/>
<path d="M0 0 C2.8891585 0.85005014 4.69803361 2.29597793 6.4140625 4.77734375 C7.98954465 8.40321415 8.13339218 11.8258795 7.23046875 15.65625 C5.0488773 18.41194447 3.35869381 20.09213747 0.23046875 21.65625 C-3.02043817 22.03135464 -5.61341576 22.32165869 -8.52734375 20.64453125 C-11.22261481 18.47659584 -12.66637521 16.96571812 -13.76953125 13.65625 C-14.15257494 9.51937819 -14.23610784 7.38024816 -11.95703125 3.84375 C-7.83855504 -0.27472621 -5.53613084 -0.79474635 0 0 Z " fill="#F2F1ED" transform="translate(46.76953125,327.34375)"/>
<path d="M0 0 C3.6578218 2.03993908 5.66946174 3.50419262 8 7 C8.5291588 10.96869102 8.15826216 12.71621958 6.1875 16.25 C4 19 4 19 1 21 C-2.80232283 21.34178183 -6.46620276 20.96725952 -9.734375 18.90625 C-11.81759481 16.79962323 -12.90887133 14.71030427 -13.28515625 11.77734375 C-13.11255486 7.64181442 -12.38960077 4.80294834 -9.3125 1.9375 C-5.64756331 -0.20614222 -4.14658888 -0.77748542 0 0 Z " fill="#F2F0EB" transform="translate(95,399)"/>
<path d="M0 0 C3.76285972 0.78392911 5.31133185 1.87884388 8 4.625 C8.8125 8.12109375 8.8125 8.12109375 9 12.0625 C9.0825 13.36058594 9.165 14.65867187 9.25 15.99609375 C8.98572373 19.83222895 8.33681854 21.61971654 6 24.625 C3.11138291 26.06930855 1.20352299 26.00188506 -2 25.625 C-4.875 23.625 -4.875 23.625 -7 20.625 C-7.25 16.6875 -7.25 16.6875 -7.08984375 14.60546875 C-6.89246773 12.40718884 -6.89246773 12.40718884 -7.8125 9.5 C-8 6.625 -8 6.625 -5.9375 3.25 C-3 0.625 -3 0.625 0 0 Z " fill="#FBCC12" transform="translate(20,17.375)"/>
<path d="M0 0 C5.57894737 3.15789474 5.57894737 3.15789474 7 6 C7.5811138 13.08958838 7.5811138 13.08958838 5.125 16.9375 C1.89661432 20.07093316 -0.44929709 20.39218693 -4.9609375 20.359375 C-8.38006698 19.7567698 -9.93189052 17.63213933 -12 15 C-13.42662219 12.14675563 -13.31033868 10.16545451 -13 7 C-9.51080707 1.7060521 -6.45328289 -0.75920975 0 0 Z " fill="#F2F0EC" transform="translate(144,471)"/>
<path d="M0 0 C3.5386994 1.65139305 4.81070153 2.71605229 7 6 C7.45971784 10.96495273 7.15065843 14.06167696 4 18 C0.57840405 20.56619697 -2.84844133 20.50984054 -7 20 C-10.84397073 16.82454592 -12.77222815 14.69201942 -13.4375 9.75 C-12.92993711 5.39946093 -11.98445774 3.92703348 -8.78125 1.1015625 C-5.74754188 -0.77454647 -3.43921963 -0.56278139 0 0 Z " fill="#F2F1ED" transform="translate(21,136)"/>
<path d="M0 0 C2.66058731 2.14144833 3.7253011 3.56867416 4.37109375 6.93359375 C4.61139858 10.78575305 4.2437079 12.61819095 2.125 15.9375 C-0.78430537 18.76123756 -1.66810253 18.96191341 -5.8125 19.4375 C-9.44774681 19.37128421 -9.96837796 19.02569291 -13 16.5625 C-15.31178783 13.23289432 -15.79668534 10.13561935 -15.5390625 6.12890625 C-14.8069859 3.23773415 -13.37650295 1.43184762 -10.91796875 -0.25 C-7.16950932 -1.71579269 -3.75186681 -1.27435324 0 0 Z " fill="#F2F1EF" transform="translate(537,1045)"/>
<path d="M0 0 C5.15539565 1.78456003 7.49087724 4.17476393 10 9 C10 10.65 10 12.3 10 14 C1.09 14 -7.82 14 -17 14 C-15.86486486 6.05405405 -15.86486486 6.05405405 -11 2 C-7.26935711 -0.48709526 -4.31847665 -0.51625053 0 0 Z " fill="#F2F1EF" transform="translate(343,1066)"/>
<path d="M0 0 C2.85798897 1.65128251 3.63941186 2.12332793 5 5 C5.79208438 10.31013369 6.28191266 16.02392964 4.11328125 21.05859375 C2.9375 22.4375 2.9375 22.4375 0 24 C-3.69602426 24.06372456 -5.94089324 24.00738294 -8.6796875 21.40234375 C-10.52665011 18.0417461 -10.46995836 15.3152878 -10.5 11.5 C-10.5309375 10.1903125 -10.561875 8.880625 -10.59375 7.53125 C-10 4 -10 4 -7.625 1.56640625 C-4.63113434 -0.2201118 -3.40400775 -0.76590174 0 0 Z " fill="#FBCB12" transform="translate(72,90)"/>
<path d="M0 0 C2.77345564 0.57710289 4.72030554 1.65854092 6.93359375 3.40234375 C8.55602281 6.64720187 8.48556494 9.89570325 7.93359375 13.40234375 C6.6434751 16.39793632 5.61018659 17.21737001 2.93359375 19.40234375 C-0.26561894 20.25855257 -2.86801455 20.26411656 -6.06640625 19.40234375 C-9.66587965 16.39053948 -10.86724773 14.51763144 -11.69140625 9.90234375 C-10.45291229 2.9667776 -6.96959283 -0.54017638 0 0 Z " fill="#F2F1EF" transform="translate(484.06640625,972.59765625)"/>
<path d="M0 0 C3.79399233 1.17268854 5.78691469 2.10008112 8.4375 5.0625 C9.5 8.4375 9.5 8.4375 9.4375 12.0625 C6.50079114 17.53085443 6.50079114 17.53085443 3.4375 19.0625 C-3.50513424 19.74538206 -3.50513424 19.74538206 -7.5625 17.125 C-9.88483221 13.5689288 -10.36134465 11.41205842 -10.109375 7.2265625 C-9.49123699 4.78050211 -8.8087247 3.67815442 -7 1.9375 C-3.5625 0.0625 -3.5625 0.0625 0 0 Z " fill="#F2F0EB" transform="translate(190.5625,542.9375)"/>
<path d="M0 0 C3 2 3 2 5 5 C5.37979374 8.2282468 5.03333217 10.92296642 4 14 C1.28189143 17.27771916 -0.30762904 17.8887261 -4.5 18.5625 C-8.96195728 17.84539972 -10.33507152 16.60549148 -13 13 C-14.20100495 9.39698515 -14.35238138 7.7974947 -12.8125 4.3125 C-8.82188189 -0.77897828 -6.46801169 -1.81558223 0 0 Z " fill="#F2F0EB" transform="translate(71,209)"/>
<path d="M0 0 C2.5625 2 2.5625 2 4 5 C4.27379422 8.19996996 3.9816808 10.94080867 3 14 C0.41408453 17.02921527 -1.08955268 17.84825878 -5 18.5 C-8.69203416 17.88466097 -10.34016868 16.58383614 -13 14 C-14.55024464 10.89951072 -14.28992015 8.42105782 -14 5 C-10.13328885 -0.9289571 -6.8023264 -1.90518806 0 0 Z " fill="#F2F1ED" transform="translate(244,616)"/>
<path d="M0 0 C4.63235294 2.26470588 4.63235294 2.26470588 6 5 C6.68571429 11.97142857 6.68571429 11.97142857 4 16 C0.67055136 18.21963243 -1.13918934 18.75539772 -5.0625 18.48046875 C-8.5685303 17.61102978 -10.01216563 15.91963173 -12 13 C-12.69151325 8.69725091 -12.51557405 6.79054688 -10.125 3.125 C-6.78093438 -0.21906562 -4.66879831 -0.36618026 0 0 Z " fill="#F2F1EE" transform="translate(388,830)"/>
<path d="M0 0 C6.75730858 1.1262181 6.75730858 1.1262181 8.8125 3.9375 C12.43445341 9.00823477 12.67077703 12.84963593 12 19 C9.65094159 23.96916202 7.08694136 26.00945773 2 28 C1.34 28 0.68 28 0 28 C0 18.76 0 9.52 0 0 Z " fill="#F2F1EF" transform="translate(0,565)"/>
<path d="M0 0 C4.6 2.2 4.6 2.2 6 5 C6.39447548 9.18144011 6.45035186 11.30946048 4.125 14.875 C1.42593031 17.57406969 0.50898995 17.93277491 -3.3125 18.4375 C-7 18 -7 18 -9.9375 15.5 C-12.7174855 11.60247879 -12.75394865 8.6744816 -12 4 C-8.4894808 -0.25517479 -5.34302469 -0.66787809 0 0 Z " fill="#F2F1EE" transform="translate(437,902)"/>
<path d="M0 0 C1.7109375 1.234375 1.7109375 1.234375 3 3 C3.2578125 5.2265625 3.2578125 5.2265625 3.125 7.625 C3.05426153 9.08221251 3.00581242 10.54108313 3 12 C3.33 12.33 3.66 12.66 4 13 C3.75 16.4375 3.75 16.4375 3 20 C-0.70415293 22.46943529 -2.62144505 22.46913089 -7 22 C-9.66719259 19.5601948 -9.99344991 18.0586297 -10.3984375 14.43359375 C-10.39070312 13.11488281 -10.38296875 11.79617188 -10.375 10.4375 C-10.38660156 9.76525391 -10.39820313 9.09300781 -10.41015625 8.40039062 C-10.39300498 5.52183633 -10.32456618 3.48296226 -8.6953125 1.05859375 C-5.81501733 -0.73993158 -3.28385142 -0.35184122 0 0 Z " fill="#FBCC12" transform="translate(707,1022)"/>
<path d="M0 0 C2.09765625 0.703125 2.09765625 0.703125 4.72265625 2.828125 C6.57033056 6.69144402 6.33555008 8.62535708 5.09765625 12.703125 C2.45490938 16.35633391 1.0593501 17.53139396 -3.40234375 18.328125 C-6.90234375 17.703125 -6.90234375 17.703125 -9.83984375 15.703125 C-12.1311932 12.37025307 -12.66807437 10.60479262 -12.375 6.64453125 C-10.74289395 -0.05924319 -5.97434322 -1.07717707 0 0 Z " fill="#F2F0EC" transform="translate(290.90234375,687.296875)"/>
<path d="M0 0 C3.2889953 2.64724012 3.88405799 4.29146548 4.5625 8.4375 C3.80264585 13.24990962 2.63371374 14.76125514 -1 18 C-4.17141095 18.51778138 -6.14924982 18.26737863 -9.1875 17.3125 C-11.73808187 15.46552692 -12.77175515 13.90900097 -14 11 C-13.93311096 7.18732499 -13.50133412 4.81466794 -11.5 1.5625 C-7.74844267 -0.78222333 -4.29879217 -0.89919689 0 0 Z " fill="#F2F1ED" transform="translate(341,759)"/>
<path d="M0 0 C4.1228948 1.31581749 4.1228948 1.31581749 5.9375 3.9375 C6.26263009 6.70257033 6.40201381 9.1771798 6.375 11.9375 C6.39498047 12.66195312 6.41496094 13.38640625 6.43554688 14.1328125 C6.4324549 17.48451838 6.41415468 19.41723649 4.1015625 21.94140625 C0.98137544 23.37759344 -0.82983515 22.96920155 -4.0625 21.9375 C-6.53730263 19.51522856 -7.04176277 18.09592496 -7.49609375 14.625 C-7.49738281 13.408125 -7.49867187 12.19125 -7.5 10.9375 C-7.52900391 9.1121875 -7.52900391 9.1121875 -7.55859375 7.25 C-7.0625 3.9375 -7.0625 3.9375 -5.2265625 1.49609375 C-3.0625 -0.0625 -3.0625 -0.0625 0 0 Z " fill="#FBCB13" transform="translate(119.0625,162.0625)"/>
<path d="M0 0 C2.92371307 2.30353151 2.9669218 3.74009988 3.4375 7.4375 C2.91267888 11.71104337 2.36460367 13.29190436 -1 16 C-4.14750806 16.71035503 -6.8518091 16.70473264 -10 16 C-12.72522624 13.87299416 -13.70898425 12.41310533 -14.40625 9.02734375 C-14.67892196 5.38035634 -14.2662224 3.3521006 -12.0625 0.4375 C-7.80638465 -1.56026843 -4.46935373 -1.32616662 0 0 Z " fill="#F2F1EE" transform="translate(46,18)"/>
<path d="M0 0 C3.48326597 0.85529699 4.97293913 2.60978164 6.97265625 5.484375 C7.86691841 9.68740714 7.1608389 11.17643975 4.91015625 14.859375 C1.97265625 17.484375 1.97265625 17.484375 -1.52734375 18.171875 C-5.95759249 17.30164757 -7.44104571 16.16789039 -10.02734375 12.484375 C-10.68889099 8.36808108 -10.42210037 6.25744006 -8.52734375 2.546875 C-5.66681763 0.18694095 -3.70334803 -0.24919725 0 0 Z " fill="#F2F1ED" transform="translate(117.02734375,280.515625)"/>
<path d="M0 0 C3.4375 0.8125 3.4375 0.8125 5.4375 3.8125 C5.15508117 6.1525417 4.82499213 8.48754723 4.4375 10.8125 C4.7675 11.1425 5.0975 11.4725 5.4375 11.8125 C5.8931962 17.05300633 5.8931962 17.05300633 4.3125 19.6875 C1.52643958 21.35913625 -0.38238862 21.27626624 -3.5625 20.8125 C-6.21478716 18.3407676 -6.55787182 16.85433514 -6.9609375 13.2109375 C-6.96885765 11.8697923 -6.96062016 10.52846929 -6.9375 9.1875 C-6.94910156 8.506875 -6.96070313 7.82625 -6.97265625 7.125 C-6.9609375 5.1484375 -6.9609375 5.1484375 -6.5625 1.8125 C-3.5625 -0.1875 -3.5625 -0.1875 0 0 Z " fill="#FBCC11" transform="translate(655.5625,951.1875)"/>
<path d="M0 0 C2.9375 0.8125 2.9375 0.8125 4.9375 3.8125 C4.65508117 6.1525417 4.32499213 8.48754723 3.9375 10.8125 C4.2675 11.1425 4.5975 11.4725 4.9375 11.8125 C5.3931962 17.05300633 5.3931962 17.05300633 3.8125 19.6875 C1.02643958 21.35913625 -0.88238862 21.27626624 -4.0625 20.8125 C-6 19.25 -6 19.25 -7.0625 16.8125 C-6.6875 13.125 -6.6875 13.125 -6.0625 9.8125 C-6.3925 9.4825 -6.7225 9.1525 -7.0625 8.8125 C-6.8125 5.375 -6.8125 5.375 -6.0625 1.8125 C-3.0625 -0.1875 -3.0625 -0.1875 0 0 Z " fill="#FBCB12" transform="translate(607.0625,879.1875)"/>
<path d="M0 0 C2.57516863 3.86275294 1.74002567 5.55984599 1 10 C1.33 10.33 1.66 10.66 2 11 C2.3125 13.875 2.3125 13.875 2 17 C0.3125 18.9375 0.3125 18.9375 -2 20 C-4.8001969 19.86340503 -6.48077872 19.31153277 -8.875 17.875 C-10.66109935 14.89816776 -9.61002625 12.29414176 -9 9 C-9.33 8.67 -9.66 8.34 -10 8 C-10.26587831 4.94239943 -10.43409881 2.79159195 -8.9375 0.0625 C-5.78433176 -1.66665678 -3.37491745 -0.8590699 0 0 Z " fill="#FBCC13" transform="translate(171,236)"/>
<path d="M0 0 C2.9375 1.5625 2.9375 1.5625 5 4 C5.80740332 8.44071826 5.50331836 10.26790056 2.9375 14 C0 16 0 16 -3.5625 16.125 C-7.66488116 14.78240253 -9.00630003 13.82125828 -11 10 C-10.93977486 6.50694211 -10.63658168 4.09633511 -8.875 1.0625 C-5.80540211 -0.67693881 -3.44975824 -0.41635013 0 0 Z " fill="#F2F1EC" transform="translate(167,353)"/>
<path d="M0 0 C1.83984375 0.60546875 1.83984375 0.60546875 3.83984375 2.29296875 C5.18022881 5.39260921 5.38652244 7.25706177 4.83984375 10.60546875 C2.3839025 13.92821279 0.91417935 15.38164883 -3.16015625 16.23046875 C-7.27304892 15.37361611 -8.75702557 14.02810942 -11.16015625 10.60546875 C-11.22933508 6.66227554 -10.68356799 4.44292753 -8.59765625 1.10546875 C-5.452812 -0.82982002 -3.56155178 -0.66986356 0 0 Z " fill="#F2F1ED" transform="translate(92.16015625,89.39453125)"/>
<path d="M0 0 C2.55078958 2.22165544 2.93332671 3.60829443 3.5 6.9375 C2.81810427 11.11411135 1.36996335 12.50915752 -2 15 C-5 15.625 -5 15.625 -8 15 C-10.9375 12.9375 -10.9375 12.9375 -13 10 C-13.1506132 5.70752394 -12.66257079 3.77949504 -9.875 0.5 C-6.06467129 -1.48799759 -4.08035596 -1.20899436 0 0 Z " fill="#F2F1EB" transform="translate(608,998)"/>
<path d="M0 0 C1.90625 0.41796875 1.90625 0.41796875 4.40625 2.04296875 C6.3736699 5.15805026 6.4986239 6.78967864 5.90625 10.41796875 C3.9350705 13.82962558 2.68730976 15.13545777 -1.03125 16.48046875 C-4.09375 16.41796875 -4.09375 16.41796875 -6.90625 14.91796875 C-9.75340128 11.66408158 -10.16923906 9.72084498 -10.09375 5.41796875 C-7.71137563 0.54963851 -5.13048823 -0.35415684 0 0 Z " fill="#F2F1ED" transform="translate(215.09375,424.58203125)"/>
<path d="M0 0 C2.23540753 3.35311129 2.12152369 5.08461488 1.9921875 9.0078125 C1.92132266 11.15031545 1.92132266 11.15031545 2.6875 13.75 C3 16 3 16 1.5625 18.3125 C1.046875 18.869375 0.53125 19.42625 0 20 C-3.375 19.6875 -3.375 19.6875 -7 19 C-9.57516863 15.13724706 -8.74002567 13.44015401 -8 9 C-8.33 8.67 -8.66 8.34 -9 8 C-9.29178308 5.22806071 -9.36366316 3.58590175 -7.875 1.1875 C-5.14012639 -0.54458662 -3.16259871 -0.40373601 0 0 Z " fill="#FBCC13" transform="translate(219,307)"/>
<path d="M0 0 C2.49609375 -0.3984375 2.49609375 -0.3984375 5.4375 -0.375 C6.40558594 -0.38273438 7.37367188 -0.39046875 8.37109375 -0.3984375 C11 -0 11 -0 12.8515625 1.2734375 C14.66672586 4.00235656 14.10962419 6.01436254 13.56640625 9.125 C13 11 13 11 11.375 13 C8.02104287 14.41219248 5.60154012 14.45019252 2 14 C-0.4375 12.4375 -0.4375 12.4375 -2 10 C-2.46337203 5.59796571 -2.48038907 3.7205836 0 0 Z " fill="#F2F1EE" transform="translate(217,0)"/>
<path d="M0 0 C2.31 0.33 4.62 0.66 7 1 C7.23929034 2.64084807 7.47528458 4.28223935 7.6953125 5.92578125 C7.90089641 7.32533322 8.14682991 8.71946657 8.4296875 10.10546875 C9.08065866 13.64595478 9.33886176 15.46564107 7.375 18.5625 C5 20 5 20 2.375 19.875 C0 19 0 19 -2 17 C-2.03263311 15.00938035 -2.05695603 13.01717705 -1.9921875 11.02734375 C-1.91986944 8.85536881 -1.91986944 8.85536881 -2.6875 6.25 C-3 4 -3 4 -1.5625 1.6875 C-1.046875 1.130625 -0.53125 0.57375 0 0 Z " fill="#FBCA07" transform="translate(821,1046)"/>
<path d="M0 0 C4.93731454 1.46290801 4.93731454 1.46290801 6.375 4 C6.87073337 7.89504791 6.95516848 10.09493717 4.8125 13.4375 C1.43282196 15.60396028 -0.68483987 15.56288002 -4.625 15 C-7.0625 13.375 -7.0625 13.375 -8.625 11 C-9.1875 8.0625 -9.1875 8.0625 -8.625 5 C-5.91953265 1.14675862 -4.77773264 0 0 0 Z " fill="#F2F1ED" transform="translate(555.625,926)"/>
<path d="M0 0 C2.875 0.6875 2.875 0.6875 3.875 1.6875 C3.94664161 4.01585228 3.8714482 6.3277961 3.8125 8.65625 C3.64275055 10.68359236 3.64275055 10.68359236 4.875 11.6875 C5.17073841 14.49701486 5.25743085 16.10378976 3.6875 18.5 C1.22592224 20.11275784 -0.23565736 20.1209014 -3.125 19.6875 C-5 18.625 -5 18.625 -6.125 16.6875 C-5.75 13.0625 -5.75 13.0625 -5.125 9.6875 C-5.455 9.3575 -5.785 9.0275 -6.125 8.6875 C-6.375 5.25 -6.375 5.25 -6.125 1.6875 C-3.125 -0.3125 -3.125 -0.3125 0 0 Z " fill="#FBCB12" transform="translate(558.125,808.3125)"/>
<path d="M0 0 C2.375 0.875 2.375 0.875 4.375 2.875 C4.40778627 4.84217644 4.43142563 6.81094309 4.3671875 8.77734375 C4.30605311 11.09652804 4.30605311 11.09652804 5.0625 14.1875 C5.375 16.875 5.375 16.875 4.375 18.8125 C1.26495237 20.46471281 -1.28227278 19.56877357 -4.625 18.875 C-5.625 12.25 -5.625 12.25 -5.625 8.875 C-5.8725 8.070625 -6.12 7.26625 -6.375 6.4375 C-6.625 3.875 -6.625 3.875 -5 1.5 C-2.625 -0.125 -2.625 -0.125 0 0 Z " fill="#FBC906" transform="translate(141.625,43.125)"/>
<path d="M0 0 C2.5625 2.125 2.5625 2.125 4 5 C4 8.52397438 3.68152223 10.24275308 1.3125 12.875 C-1.73610685 14.35810604 -3.64742924 14.48891657 -7 14 C-9.375 12.4375 -9.375 12.4375 -11 10 C-11.42213381 6.56262469 -11.60856522 4.17909511 -10 1.0625 C-6.74435838 -0.66705961 -3.53165237 -0.75171717 0 0 Z " fill="#F2F1EC" transform="translate(142,162)"/>
<path d="M0 0 C2.0625 1.5625 2.0625 1.5625 3 4 C2.87988224 7.42335626 2.60726153 9.95416069 0.875 12.9375 C-2.22289358 14.69297303 -4.52844534 14.48723574 -8 14 C-10.69500656 11.58140437 -11.80636871 9.99236035 -12.5 6.4375 C-11.06550643 -0.55565616 -6.06105588 -0.76965789 0 0 Z " fill="#F2F1ED" transform="translate(276,71)"/>
<path d="M0 0 C2.4375 1.625 2.4375 1.625 4 4 C4.48288863 7.31123632 4.29618989 9.296549 3 12.375 C0.2897489 14.57707902 -1.70878117 14.51582761 -5.125 14.30859375 C-7 14 -7 14 -9 13 C-10.62932095 9.7413581 -10.52673518 6.56102656 -10 3 C-7.83165681 -1.08158719 -4.19361486 -0.51500533 0 0 Z " fill="#F2F1ED" transform="translate(265,497)"/>
<path d="M0 0 C2.0625 1.5625 2.0625 1.5625 3 4 C2.93439072 7.739729 2.76345433 10.0603639 0.375 13 C-3.04776185 14.44116288 -5.44605372 13.85557966 -9 13 C-11 11 -11 11 -11.3125 7.0625 C-11.22787031 4.60823911 -11.10592691 3.21185383 -10 1 C-6.73510839 -0.6324458 -3.5618822 -0.65165412 0 0 Z " fill="#F2F1EB" transform="translate(315,569)"/>
<path d="M0 0 C2 2 2 2 2.16015625 3.98828125 C2.12792969 4.75527344 2.09570312 5.52226562 2.0625 6.3125 C1.98761334 9.05687592 2.03739562 11.17201987 2.625 13.875 C3 16 3 16 1 19 C-2 19.3125 -2 19.3125 -5 19 C-7 17 -7 17 -7.0625 13.25 C-7.03929687 12.53972656 -7.01609375 11.82945312 -6.9921875 11.09765625 C-6.93105311 8.77847196 -6.93105311 8.77847196 -7.6875 5.6875 C-8 3 -8 3 -6.875 1.125 C-4.40522151 -0.3568671 -2.83386167 -0.3633156 0 0 Z " fill="#FBCC13" transform="translate(267,379)"/>
<path d="M0 0 C3.4375 0.9375 3.4375 0.9375 5.4375 2 C6.87807326 4.79111069 6.43050122 7.03989918 6.0546875 10.09765625 C5.4375 11.9375 5.4375 11.9375 2.4375 13.9375 C-1.0625 14.3125 -1.0625 14.3125 -4.5625 13.9375 C-7.18791413 11.73553976 -7.5070448 10.31776421 -8 6.9375 C-7.5625 3.9375 -7.5625 3.9375 -6 1.5 C-3.5625 -0.0625 -3.5625 -0.0625 0 0 Z " fill="#F2F1ED" transform="translate(506.5625,855.0625)"/>
<path d="M0 0 C4.13657644 0.65314365 5.77875077 1.45125086 8.5625 4.5625 C9.4375 7.75 9.4375 7.75 9.5625 10.5625 C8.5625 11.5625 8.5625 11.5625 4.96484375 11.66015625 C3.47653133 11.6534822 1.98823568 11.64152183 0.5 11.625 C-0.63791992 11.61823242 -0.63791992 11.61823242 -1.79882812 11.61132812 C-3.67841871 11.5995068 -5.55796899 11.58157078 -7.4375 11.5625 C-7.6328125 5.921875 -7.6328125 5.921875 -5.875 2.6875 C-3.4375 0.5625 -3.4375 0.5625 0 0 Z " fill="#F2F1EE" transform="translate(651.4375,1068.4375)"/>
<path d="M0 0 C5.875 0.875 5.875 0.875 7 2 C7.04346799 3.99952758 7.039992 6.00039988 7 8 C6.86742176 10.95003206 6.86742176 10.95003206 7.6875 13.5 C8 16 8 16 6.875 17.8125 C4.40774618 19.37509409 2.87012296 19.36796448 0 19 C-2 17 -2 17 -2.16015625 14.9765625 C-2.12792969 14.20054687 -2.09570312 13.42453125 -2.0625 12.625 C-1.96796683 10.16713754 -1.93678333 8.23179447 -2.5859375 5.8515625 C-2.72257812 5.24054687 -2.85921875 4.62953125 -3 4 C-1.5625 1.75 -1.5625 1.75 0 0 Z " fill="#FBCB14" transform="translate(506,737)"/>
<path d="M0 0 C2.375 1.625 2.375 1.625 4 4 C4.60975382 7.65852292 4.44543026 9.30512879 2.4375 12.4375 C0 14 0 14 -3.5625 14 C-7 13 -7 13 -9 11.3125 C-10.37694267 8.12832007 -9.980224 6.29075199 -9 3 C-6.6975944 -0.63537727 -4.0732876 -0.58189823 0 0 Z " fill="#F2F0E9" transform="translate(411,712)"/>
<path d="M0 0 C3.4375 0.9375 3.4375 0.9375 5.4375 2.0625 C7.12135831 5.21973433 6.33452275 7.58861508 5.4375 10.9375 C3.31878452 13.28322071 2.0349873 13.83293972 -1.0625 14.375 C-4.46084723 13.78028924 -5.57491034 12.73484842 -7.5625 9.9375 C-8.17225382 6.27897708 -8.00793026 4.63237121 -6 1.5 C-3.5625 -0.0625 -3.5625 -0.0625 0 0 Z " fill="#F2F1EB" transform="translate(906.5625,1002.0625)"/>
<path d="M0 0 C2.5625 0.3125 2.5625 0.3125 4.4375 1.5 C5.5625 3.3125 5.5625 3.3125 5.25 5.875 C5.023125 6.679375 4.79625 7.48375 4.5625 8.3125 C4.5625 8.9725 4.5625 9.6325 4.5625 10.3125 C4.8925 10.6425 5.2225 10.9725 5.5625 11.3125 C5.8607732 14.14609542 5.91852594 15.75035378 4.375 18.1875 C2.5625 19.3125 2.5625 19.3125 0 19.125 C-2.4375 18.3125 -2.4375 18.3125 -4.4375 16.3125 C-4.15019945 13.97305264 -3.81813221 11.6385857 -3.4375 9.3125 C-3.7675 8.9825 -4.0975 8.6525 -4.4375 8.3125 C-4.625 5.375 -4.625 5.375 -4.4375 2.3125 C-2.4375 0.3125 -2.4375 0.3125 0 0 Z " fill="#FBCC13" transform="translate(410.4375,593.6875)"/>
<path d="M0 0 C3 -0.3125 3 -0.3125 6 0 C8 2 8 2 8.125 4.375 C8.08375 5.24125 8.0425 6.1075 8 7 C7.76591771 10.7317807 7.76591771 10.7317807 8.75 13 C9 15 9 15 7.375 17.3125 C5 19 5 19 2.25 18.75 C1.5075 18.5025 0.765 18.255 0 18 C-1 11.375 -1 11.375 -1 8 C-1.20625 7.175 -1.4125 6.35 -1.625 5.5 C-2 3 -2 3 0 0 Z " fill="#FBCD14" transform="translate(310,451)"/>
<path d="M0 0 C3 -0.375 3 -0.375 6 0 C8.57516863 3.86275294 7.74002567 5.55984599 7 10 C7.33 10.33 7.66 10.66 8 11 C8.1875 13.9375 8.1875 13.9375 8 17 C7.34 17.66 6.68 18.32 6 19 C0.43181818 18.43181818 0.43181818 18.43181818 -1 17 C-1.04346799 15.00047242 -1.039992 12.99960012 -1 11 C-0.87873219 8.05558108 -0.87873219 8.05558108 -1.625 5.5 C-2 3 -2 3 0 0 Z " fill="#FBCB07" transform="translate(772,975)"/>
<path d="M0 0 C2.4375 0.8125 2.4375 0.8125 4.4375 2.8125 C4.11699202 5.14762959 3.78153308 7.48072025 3.4375 9.8125 C3.623125 11.070625 3.80875 12.32875 4 13.625 C4.144375 14.676875 4.28875 15.72875 4.4375 16.8125 C2.4375 18.8125 2.4375 18.8125 -0.0625 19.0625 C-2.5625 18.8125 -2.5625 18.8125 -4.5625 16.8125 C-4.59528627 14.84532356 -4.61892563 12.87655691 -4.5546875 10.91015625 C-4.49355311 8.59097196 -4.49355311 8.59097196 -5.25 5.5 C-5.5625 2.8125 -5.5625 2.8125 -4.4375 0.875 C-2.5625 -0.1875 -2.5625 -0.1875 0 0 Z " fill="#FBCA12" transform="translate(362.5625,522.1875)"/>
<path d="M0 0 C3.625 0.375 3.625 0.375 6.125 1.9375 C7.625 4.375 7.625 4.375 7.5625 8 C6.625 11.375 6.625 11.375 3.625 13.375 C0.02513378 13.83455739 -1.73162639 13.78741898 -4.8125 11.8125 C-6.375 9.375 -6.375 9.375 -6.25 5.75 C-5.09824284 1.3075081 -4.60142226 0.51126914 0 0 Z " fill="#F2F1EC" transform="translate(456.375,783.625)"/>
<path d="M0 0 C3.0625 0.1875 3.0625 0.1875 5.0625 2.1875 C5.09511175 4.17681647 5.11983813 6.16760909 5.05859375 8.15625 C4.9899833 10.33720311 4.9899833 10.33720311 5.6875 13 C6.0625 15.1875 6.0625 15.1875 4.0625 18.1875 C1.0625 18.5 1.0625 18.5 -1.9375 18.1875 C-3.9375 16.1875 -3.9375 16.1875 -4.0625 13.8125 C-4.02125 12.94625 -3.98 12.08 -3.9375 11.1875 C-3.9375 8.79157609 -3.95303013 6.39546347 -4 4 C-3.91425692 0.14156151 -3.86259008 0.2465483 0 0 Z " fill="#FBCD13" transform="translate(458.9375,665.8125)"/>
<path d="M0 0 C0 0.66 0 1.32 0 2 C-1.57421875 3.078125 -1.57421875 3.078125 -3.6875 4.25 C-9.771485 7.92192723 -13.1555663 11.9576168 -15 19 C-16.65 19 -18.3 19 -20 19 C-20.42273372 12.87036113 -20.02168763 9.94093052 -16 5 C-15.54625 4.4225 -15.0925 3.845 -14.625 3.25 C-10.20988309 -0.14624377 -5.36827178 -0.21473087 0 0 Z " fill="#FEB46D" transform="translate(21,1061)"/>
<path d="M0 0 C1.9375 1.0625 1.9375 1.0625 3 3 C3.4375 6.5 3.4375 6.5 3 10 C1.4375 12 1.4375 12 -1 13 C-7.32727273 12.67272727 -7.32727273 12.67272727 -10 10 C-10.54587156 3.99541284 -10.54587156 3.99541284 -8.9375 1.0625 C-5.88023824 -0.6140629 -3.4093712 -0.36528977 0 0 Z " fill="#F2F1EF" transform="translate(363,641)"/>
<path d="M0 0 C2.5 0.25 2.5 0.25 4.5 2.25 C4.625 4.6875 4.625 4.6875 4.5 7.25 C4.37873219 10.19441892 4.37873219 10.19441892 5.125 12.75 C5.5 15.25 5.5 15.25 3.5 18.25 C1.19 17.92 -1.12 17.59 -3.5 17.25 C-4.125 14.9375 -4.125 14.9375 -4.5 12.25 C-3.84 11.26 -3.18 10.27 -2.5 9.25 C-3.16 8.59 -3.82 7.93 -4.5 7.25 C-4.75 4.75 -4.75 4.75 -4.5 2.25 C-2.5 0.25 -2.5 0.25 0 0 Z " fill="#FCCB09" transform="translate(189.5,115.75)"/>
<path d="M0 0 C1.9375 1.125 1.9375 1.125 3 3 C3.53852618 6.61581862 3.42236225 8.34111489 1.4375 11.4375 C-1 13 -1 13 -4.625 12.875 C-8 12 -8 12 -10 10 C-10.54587156 3.99541284 -10.54587156 3.99541284 -8.9375 1.0625 C-5.88023824 -0.6140629 -3.4093712 -0.36528977 0 0 Z " fill="#F2F1EC" transform="translate(191,234)"/>
<path d="M0 0 C3.5625 0.3125 3.5625 0.3125 5.5 1.375 C7.19585287 4.46743758 6.99310657 6.86764741 6.5625 10.3125 C4.49424529 12.68716282 3.12821765 13.19935647 0.0625 13.8125 C-2.4375 13.3125 -2.4375 13.3125 -4.8125 11.1875 C-6.4375 8.3125 -6.4375 8.3125 -6.3125 5.125 C-5.03605468 1.02214003 -4.32440699 0.39312791 0 0 Z " fill="#F2F1ED" transform="translate(320.4375,142.6875)"/>
<path d="M0 0 C3.77453301 0.78636104 5.45937489 1.71075355 8 4.625 C8.3125 8.375 8.3125 8.375 8 11.625 C7.33613281 11.52960937 6.67226563 11.43421875 5.98828125 11.3359375 C-0.71645525 10.42184678 -0.71645525 10.42184678 -7 12.625 C-7.8125 10 -7.8125 10 -8 6.625 C-5.70233879 2.86519075 -4.39393927 0.91540402 0 0 Z " fill="#FE7F13" transform="translate(20,17.375)"/>
<path d="M0 0 C0.33 0.66 0.66 1.32 1 2 C0.44570312 2.32613281 -0.10859375 2.65226562 -0.6796875 2.98828125 C-1.76636719 3.64376953 -1.76636719 3.64376953 -2.875 4.3125 C-3.59429687 4.74175781 -4.31359375 5.17101563 -5.0546875 5.61328125 C-7.26846333 7.01752375 -7.26846333 7.01752375 -9 10 C-10.65532623 11.01866229 -12.32260138 12.01810813 -14 13 C-15.02019573 13.9793879 -16.02446727 14.97611725 -17 16 C-17.57685009 6.19354839 -17.57685009 6.19354839 -14 2 C-9.74936603 -1.75055939 -5.24990008 -1.44263783 0 0 Z " fill="#FEA252" transform="translate(214,1040)"/>
<path d="M0 0 C0.66 0.66 1.32 1.32 2 2 C0.948125 2.53625 -0.10375 3.0725 -1.1875 3.625 C-5.11108925 5.84783988 -7.22577638 8.47598621 -10 12 C-12 13.5 -12 13.5 -14 15 C-14.33 15.99 -14.66 16.98 -15 18 C-15.66 18 -16.32 18 -17 18 C-17.45152731 11.56573585 -16.81636142 8.26039007 -13 3 C-8.84514728 -0.57778984 -5.25163698 -0.43046205 0 0 Z " fill="#FEAA60" transform="translate(43,943)"/>
<path d="M0 0 C2.875 2.125 2.875 2.125 5 5 C4.8125 8.3125 4.8125 8.3125 4 11 C3.09507813 10.85691406 3.09507813 10.85691406 2.171875 10.7109375 C1.37265625 10.60007812 0.5734375 10.48921875 -0.25 10.375 C-1.03890625 10.25898437 -1.8278125 10.14296875 -2.640625 10.0234375 C-5.32152459 9.99680605 -6.72694089 10.63407916 -9 12 C-10 11 -10 11 -10.375 7.6875 C-10 4 -10 4 -7.8125 1.5625 C-4.7179309 -0.15670505 -3.4491574 -0.77606042 0 0 Z " fill="#FE8114" transform="translate(72,90)"/>
<path d="M0 0 C3.4375 0.875 3.4375 0.875 5.4375 3.875 C4.99305556 9.31944444 4.99305556 9.31944444 2.4375 11.875 C-1 12.25 -1 12.25 -4.5625 11.875 C-6.5625 10.1875 -6.5625 10.1875 -7.5625 7.875 C-7.42590503 5.0748031 -6.87403277 3.39422128 -5.4375 1 C-3.5625 -0.125 -3.5625 -0.125 0 0 Z " fill="#F2F1EA" transform="translate(724.5625,1022.125)"/>
<path d="M0 0 C1.50433594 0.01353516 1.50433594 0.01353516 3.0390625 0.02734375 C3.80992188 0.03894531 4.58078125 0.05054688 5.375 0.0625 C5.375 0.7225 5.375 1.3825 5.375 2.0625 C4.84390625 2.29324219 4.3128125 2.52398438 3.765625 2.76171875 C-0.89496392 4.913414 -3.60740386 6.79624338 -6.625 11.0625 C-8.27194485 12.74865782 -9.93626121 14.41820171 -11.625 16.0625 C-12.285 16.7225 -12.945 17.3825 -13.625 18.0625 C-14.53973744 9.64352767 -14.53973744 9.64352767 -12.359375 5.875 C-8.38258133 1.24184233 -6.17831314 -0.07184085 0 0 Z " fill="#FEA961" transform="translate(88.625,1014.9375)"/>
<path d="M0 0 C0.99 0.66 1.98 1.32 3 2 C2.25556641 2.54527344 2.25556641 2.54527344 1.49609375 3.1015625 C-3.92285267 7.11178851 -9.22659167 11.22659167 -14 16 C-15 15 -15 15 -15.3125 11.8125 C-14.94595297 7.34062619 -13.85664995 5.41210966 -11 2 C-7.59698728 -0.58159586 -4.15311417 -0.30204467 0 0 Z " fill="#FEA354" transform="translate(163,968)"/>
<path d="M0 0 C2 2 2 2 2.25 4.9375 C2 8 2 8 0 11 C-3.42201828 11.37331109 -5.90185629 11.63763183 -8.9375 9.875 C-10.50422245 7.11019567 -10.38976435 5.11811483 -10 2 C-7.65131237 -2.28290097 -4.2151329 -0.99630414 0 0 Z " fill="#F2F1EC" transform="translate(861,932)"/>
<path d="M0 0 C1.2065625 0.0309375 1.2065625 0.0309375 2.4375 0.0625 C3.5625 2.3125 3.5625 2.3125 4.4375 5.0625 C3.5625 7.375 3.5625 7.375 2.4375 9.0625 C3.0975 9.7225 3.7575 10.3825 4.4375 11.0625 C3.88194444 15.61805556 3.88194444 15.61805556 2.4375 17.0625 C-0.0625 17.1875 -0.0625 17.1875 -2.5625 17.0625 C-3.5625 16.0625 -3.5625 16.0625 -3.625 13 C-3.604375 12.030625 -3.58375 11.06125 -3.5625 10.0625 C-2.9025 10.0625 -2.2425 10.0625 -1.5625 10.0625 C-2.078125 9.505625 -2.59375 8.94875 -3.125 8.375 C-4.5625 6.0625 -4.5625 6.0625 -4.3125 3.375 C-3.24356312 0.0791113 -3.24356312 0.0791113 0 0 Z " fill="#FCCA08" transform="translate(726.5625,903.9375)"/>
<path d="M0 0 C0.79921875 0.11085938 1.5984375 0.22171875 2.421875 0.3359375 C3.32679687 0.47902344 3.32679687 0.47902344 4.25 0.625 C2.51882871 2.39619837 0.82606464 3.95968581 -1.125 5.5 C-3.86496392 7.71806603 -6.29118944 10.1014839 -8.75 12.625 C-9.75 13.625 -10.75 14.625 -11.75 15.625 C-12.75 14.625 -12.75 14.625 -13.0625 11.4375 C-12.69595297 6.96562619 -11.60664995 5.03710966 -8.75 1.625 C-5.63602626 -0.38720761 -3.63106118 -0.53397959 0 0 Z " fill="#FEA454" transform="translate(63.75,825.375)"/>
<path d="M0 0 C2.875 0.875 2.875 0.875 4.875 2.875 C5.25 5.8125 5.25 5.8125 4.875 8.875 C2.75810295 11.22710784 1.43458485 11.79310953 -1.6875 12.25 C-4.125 11.875 -4.125 11.875 -5.9375 10.6875 C-7.5769739 8.18514509 -7.62688668 6.81462197 -7.125 3.875 C-4.88889892 0.60685227 -4.01504863 -0.16060195 0 0 Z " fill="#F2F1EA" transform="translate(370.125,215.125)"/>
<path d="M0 0 C3.5625 0.3125 3.5625 0.3125 5.5 1.5 C6.94968434 3.97299093 6.98567323 5.49134512 6.5625 8.3125 C5.5 10.125 5.5 10.125 3.5625 11.3125 C0 11.6875 0 11.6875 -3.4375 11.3125 C-5.73913882 7.86004176 -5.78240322 6.36511287 -5.4375 2.3125 C-3.4375 0.3125 -3.4375 0.3125 0 0 Z " fill="#F2F1EA" transform="translate(674.4375,950.6875)"/>
<path d="M0 0 C1.9375 1.0625 1.9375 1.0625 3 3 C3.1875 6.6875 3.1875 6.6875 3 10 C-1.33333333 10 -5.66666667 10 -10 10 C-10.35915493 3.65492958 -10.35915493 3.65492958 -8.9375 1.0625 C-5.88023824 -0.6140629 -3.4093712 -0.36528977 0 0 Z " fill="#FE7F12" transform="translate(707,1022)"/>
<path d="M0 0 C4.43218807 1.29272152 4.43218807 1.29272152 6 3.875 C5.85873193 6.70036142 5.3554723 8.35956516 3.75 10.6875 C1.3314673 12.32864719 -0.13550877 12.30467368 -3 11.875 C-4.8125 10.75 -4.8125 10.75 -6 8.875 C-6.39704314 5.69865485 -6.49933741 3.73496999 -4.875 0.9375 C-3 -0.125 -3 -0.125 0 0 Z " fill="#F2F1EB" transform="translate(236,306.125)"/>
<path d="M0 0 C0.99 0.33 1.98 0.66 3 1 C3 1.66 3 2.32 3 3 C1.01310269 4.35278115 -0.98745218 5.68568305 -3 7 C-3.33 7.66 -3.66 8.32 -4 9 C-5.64333504 10.03789581 -7.31243867 11.03567924 -9 12 C-9.99 12.66 -10.98 13.32 -12 14 C-13 13 -13 13 -13.3125 10.3125 C-12.92570012 6.21242128 -11.52905619 4.19851225 -9 1 C-6.01002175 -0.49498913 -3.29957225 -0.11577446 0 0 Z " fill="#FE9B46" transform="translate(332,1064)"/>
<path d="M0 0 C1.9375 1.0625 1.9375 1.0625 3 3 C2.55555556 9.44444444 2.55555556 9.44444444 1 11 C-5.24521739 11.4626087 -5.24521739 11.4626087 -7.9375 9.8125 C-9.38718434 7.33950907 -9.42317323 5.82115488 -9 3 C-6.73529086 -0.64869805 -4.03159541 -0.50394943 0 0 Z " fill="#F2F1EB" transform="translate(811,860)"/>
<path d="M0 0 C0.66 0.33 1.32 0.66 2 1 C2 1.66 2 2.32 2 3 C0.01310269 4.35278115 -1.98745218 5.68568305 -4 7 C-4.33 7.66 -4.66 8.32 -5 9 C-7.65756064 10.74839516 -9.97382445 11.99127482 -13 13 C-13.61364554 5.75898264 -13.61364554 5.75898264 -10.625 2.0625 C-6.52671541 -1.15758075 -5.06400667 -1.05500139 0 0 Z " fill="#FE9C46" transform="translate(284,993)"/>
<path d="M0 0 C-1.33333333 1.33333333 -2.66666667 2.66666667 -4 4 C-5.2065625 5.2375 -5.2065625 5.2375 -6.4375 6.5 C-8.84930992 8.85298528 -11.35061662 10.92345627 -14 13 C-14.66 13.66 -15.32 14.32 -16 15 C-17 14 -17 14 -17.3125 11.3125 C-16.83353084 6.23542689 -14.5551989 3.33919905 -10.75 0.0625 C-6.81599462 -1.45745662 -4.12063521 -0.76825402 0 0 Z " fill="#FEA353" transform="translate(19,754)"/>
<path d="M0 0 C2 3 2 3 1.75 6.0625 C1 9 1 9 -1 11 C-4.13704316 11.333728 -6.16554166 11.52849028 -8.875 9.8125 C-10.40659584 7.34492892 -10.42822025 5.85480169 -10 3 C-7.66359177 -0.98563758 -4.22275562 -0.46066425 0 0 Z " fill="#F2F1EE" transform="translate(165,43)"/>
<path d="M0 0 C4.35653019 1.39038198 4.35653019 1.39038198 5.9375 3.9375 C6.125 7.125 6.125 7.125 5.9375 9.9375 C2.8761005 11.46819975 0.2572489 10.45263345 -3.0625 9.9375 C-4.3825 9.9375 -5.7025 9.9375 -7.0625 9.9375 C-7.38607362 6.37819018 -7.4505551 4.51958265 -5.4375 1.5 C-3.0625 -0.0625 -3.0625 -0.0625 0 0 Z " fill="#FE7F13" transform="translate(119.0625,162.0625)"/>
<path d="M0 0 C0 0.99 0 1.98 0 3 C-2.3125 5 -2.3125 5 -5 7 C-5.495 7.515625 -5.99 8.03125 -6.5 8.5625 C-8.45736425 10.43830741 -10.65042336 11.6664565 -13 13 C-14.33743169 6.79918033 -14.33743169 6.79918033 -12.8125 3.1875 C-8.85507376 -1.58870408 -5.94009498 -1.14232596 0 0 Z " fill="#FE9C45" transform="translate(236,922)"/>
<path d="M0 0 C1.22589844 0.01353516 1.22589844 0.01353516 2.4765625 0.02734375 C3.41628906 0.04474609 3.41628906 0.04474609 4.375 0.0625 C3.09820197 3.89289408 1.78064374 4.05007415 -1.625 6.0625 C-4.11859509 8.37798116 -6.30662567 10.62620924 -8.3125 13.375 C-8.9621875 14.2103125 -8.9621875 14.2103125 -9.625 15.0625 C-10.285 15.0625 -10.945 15.0625 -11.625 15.0625 C-12.29464286 7.29464286 -12.29464286 7.29464286 -9.25 3.625 C-5.88056423 0.33578889 -4.55111561 -0.06501594 0 0 Z " fill="#FEA253" transform="translate(111.625,896.9375)"/>
<path d="M0 0 C3.5 0.1875 3.5 0.1875 7 1 C9 4 9 4 8.75 6.5625 C8 9 8 9 6 11 C2.8695827 11.33302312 0.82101702 11.47671956 -1.9375 9.875 C-3 8 -3 8 -2.8125 4.9375 C-2 2 -2 2 0 0 Z " fill="#F2F0E9" transform="translate(415,287)"/>
<path d="M0 0 C0.66 0 1.32 0 2 0 C1.95359375 0.72445312 1.9071875 1.44890625 1.859375 2.1953125 C1.62043145 8.59558603 1.83452036 12.07716043 6 17 C6.33 17.66 6.66 18.32 7 19 C3.04320172 19.46009282 1.45374144 19.33274372 -1.8125 16.9375 C-4.42843493 13.42467309 -5 11.36418555 -5 7 C-3.63571607 4.07653443 -2.27249091 2.27249091 0 0 Z " fill="#F9D544" transform="translate(276,1002)"/>
<path d="M0 0 C-0.8125 1.9375 -0.8125 1.9375 -2 4 C-2.99 4.33 -3.98 4.66 -5 5 C-5.268125 5.598125 -5.53625 6.19625 -5.8125 6.8125 C-7.50798425 9.93576046 -10.01439213 11.18267347 -13 13 C-14 12 -14 12 -14.3125 8.75 C-13.95354121 4.44249452 -13.00888412 3.00888412 -10 0 C-6.7169902 -1.6415049 -3.57454967 -0.51888624 0 0 Z " fill="#FE9C47" transform="translate(139,779)"/>
<path d="M0 0 C0.66 0.33 1.32 0.66 2 1 C2 1.66 2 2.32 2 3 C0.01739574 4.68732277 -1.9832342 6.35366057 -4 8 C-4.33 8.66 -4.66 9.32 -5 10 C-9.5 13 -9.5 13 -12 13 C-12.77303488 4.96043727 -12.77303488 4.96043727 -9.9375 1.4375 C-6.36470037 -0.31089131 -3.93297819 -0.37103568 0 0 Z " fill="#FE9B46" transform="translate(186,850)"/>
<path d="M0 0 C0.80824219 0.11085938 1.61648437 0.22171875 2.44921875 0.3359375 C3.37154297 0.47902344 3.37154297 0.47902344 4.3125 0.625 C4.3125 1.285 4.3125 1.945 4.3125 2.625 C2.31965862 3.9690093 0.31830329 5.30041292 -1.6875 6.625 C-3.37365782 8.27194485 -5.04320171 9.93626121 -6.6875 11.625 C-7.6775 12.285 -8.6675 12.945 -9.6875 13.625 C-11.03073432 7.39727723 -11.03073432 7.39727723 -9.4375 3.8125 C-6.45752422 0.08753028 -4.56432739 -0.66149672 0 0 Z " fill="#FE9C46" transform="translate(37.6875,635.375)"/>
<path d="M0 0 C1.875 1.0625 1.875 1.0625 3 3 C2.55555556 9.44444444 2.55555556 9.44444444 1 11 C-2.4375 11.1875 -2.4375 11.1875 -6 11 C-8 9 -8 9 -8.3125 6.0625 C-8 3 -8 3 -6.8125 1.125 C-4.34492892 -0.40659584 -2.85480169 -0.42822025 0 0 Z " fill="#F2F1EC" transform="translate(287,378)"/>
<path d="M0 0 C3.53571429 0.53571429 3.53571429 0.53571429 5 2 C5.04384447 3.66608987 5.0396713 5.33380554 5 7 C4.88152191 9.95384291 4.88152191 9.95384291 5.625 12.5625 C5.74875 13.366875 5.8725 14.17125 6 15 C5.34 15.66 4.68 16.32 4 17 C1.375 16.625 1.375 16.625 -1 16 C-1.33 14.35 -1.66 12.7 -2 11 C-1.01 10.67 -0.02 10.34 1 10 C1 9.34 1 8.68 1 8 C0.01 7.67 -0.98 7.34 -2 7 C-2.125 4.625 -2.125 4.625 -2 2 C-1.34 1.34 -0.68 0.68 0 0 Z " fill="#FCCB0B" transform="translate(676,832)"/>
<path d="M0 0 C2.9375 0.875 2.9375 0.875 4.9375 3.875 C4.6133631 7.19740324 4.32973697 8.48276303 1.9375 10.875 C-1.0625 11.125 -1.0625 11.125 -4.0625 10.875 C-6.0625 8.875 -6.0625 8.875 -6.375 5.9375 C-6.0625 2.875 -6.0625 2.875 -4.9375 0.9375 C-3.0625 -0.125 -3.0625 -0.125 0 0 Z " fill="#F2F0E9" transform="translate(1027.0625,1026.125)"/>
<path d="M0 0 C3.4375 0.8125 3.4375 0.8125 5.4375 3.8125 C5.1875 6.4375 5.1875 6.4375 4.4375 8.8125 C1.18446956 10.43901522 -1.95475602 9.92703156 -5.5625 9.8125 C-6.5625 8.8125 -6.5625 8.8125 -6.8125 5.375 C-6.73 4.199375 -6.6475 3.02375 -6.5625 1.8125 C-3.5625 -0.1875 -3.5625 -0.1875 0 0 Z " fill="#FE7F13" transform="translate(655.5625,951.1875)"/>
<path d="M0 0 C3 0.25 3 0.25 5 2.25 C5.33302312 5.3804173 5.47671956 7.42898298 3.875 10.1875 C2 11.25 2 11.25 -1.0625 11.125 C-4 10.25 -4 10.25 -6 7.25 C-5.5601518 2.74155593 -4.87125629 0.40593802 0 0 Z " fill="#F2F0E8" transform="translate(210,114.75)"/>
<path d="M0 0 C2.9375 0.8125 2.9375 0.8125 4.9375 3.8125 C4.5625 7 4.5625 7 3.9375 9.8125 C0.60416667 9.8125 -2.72916667 9.8125 -6.0625 9.8125 C-6.3925 9.4825 -6.7225 9.1525 -7.0625 8.8125 C-6.8125 5.375 -6.8125 5.375 -6.0625 1.8125 C-3.0625 -0.1875 -3.0625 -0.1875 0 0 Z " fill="#FE8114" transform="translate(607.0625,879.1875)"/>
<path d="M0 0 C0.66 0.66 1.32 1.32 2 2 C-1.75 5 -1.75 5 -4 5 C-4.20625 5.763125 -4.4125 6.52625 -4.625 7.3125 C-6.42070704 10.82229103 -8.43136312 11.52599781 -12 13 C-13.44430855 10.11138291 -13.37688506 8.20352299 -13 5 C-9.20966328 -0.44860903 -6.19700079 -0.71113124 0 0 Z " fill="#FE9C47" transform="translate(89,707)"/>
<path d="M0 0 C2 3 2 3 1.75 5.625 C1.5025 6.40875 1.255 7.1925 1 8 C-2.25303044 9.62651522 -5.39225602 9.11453156 -9 9 C-10 8 -10 8 -10.25 5.125 C-10 2 -10 2 -8.9375 0.0625 C-5.78433176 -1.66665678 -3.37491745 -0.8590699 0 0 Z " fill="#FE8013" transform="translate(171,236)"/>
<path d="M0 0 C3.0625 0.3125 3.0625 0.3125 5 1.4375 C6.0625 3.3125 6.0625 3.3125 5.9375 6.375 C5.0625 9.3125 5.0625 9.3125 2.0625 11.3125 C-1.25990324 10.9883631 -2.54526303 10.70473697 -4.9375 8.3125 C-5.1875 5.3125 -5.1875 5.3125 -4.9375 2.3125 C-2.9375 0.3125 -2.9375 0.3125 0 0 Z " fill="#F2F0E9" transform="translate(342.9375,23.6875)"/>
<path d="M0 0 C2.875 0.5 2.875 0.5 5.875 3.5 C-0.065 8.45 -0.065 8.45 -6.125 13.5 C-8.125 11.5 -8.125 11.5 -8.5625 8.6875 C-8.125 5.5 -8.125 5.5 -6 2.625 C-3.125 0.5 -3.125 0.5 0 0 Z " fill="#FE9539" transform="translate(401.125,1016.5)"/>
<path d="M0 0 C1.7325 0.1546875 1.7325 0.1546875 3.5 0.3125 C5.5 3.3125 5.5 3.3125 5.1875 6.4375 C4.5 9.3125 4.5 9.3125 3.5 10.3125 C0.0625 10.5625 0.0625 10.5625 -3.5 10.3125 C-5.64915785 7.08876323 -5.88286803 6.04546326 -5.5 2.3125 C-3.5 0.3125 -3.5 0.3125 0 0 Z " fill="#F2F0E9" transform="translate(759.5,788.6875)"/>
<path d="M0 0 C0.02578125 0.64066406 0.0515625 1.28132812 0.078125 1.94140625 C0.4792753 8.0589484 1.57146888 11.9125022 5 17 C2.3125 17.375 2.3125 17.375 -1 17 C-4.66518782 13.73320216 -5.80830433 12.23537212 -6.5625 7.375 C-5.90815262 3.44891573 -4.46632212 0 0 0 Z " fill="#F9D546" transform="translate(180,860)"/>
<path d="M0 0 C5.81081081 4.64864865 5.81081081 4.64864865 6.2734375 7.953125 C6.46572541 12.30179005 6.4126634 15.12094823 3.5625 18.5625 C1 21 1 21 0 21 C0 14.07 0 7.14 0 0 Z " fill="#F2F1ED" transform="translate(0,256)"/>
<path d="M0 0 C1 3 1 3 0.75 5.625 C1.11031038 10.48919007 3.46021673 13.91820546 6 18 C1.95847594 17.76683515 -0.33802764 17.5771041 -3.4375 14.875 C-5.43514338 11.19933618 -5.66350721 9.12848931 -5 5 C-2.5 2.0625 -2.5 2.0625 0 0 Z " fill="#F9D544" transform="translate(228,931)"/>
<path d="M0 0 C0.66 0.33 1.32 0.66 2 1 C1.96519531 1.59167969 1.93039063 2.18335938 1.89453125 2.79296875 C1.72071882 7.86663646 1.99049498 10.73653456 5 15 C5 15.99 5 16.98 5 18 C1.99419362 17.66602151 0.22138157 17.15988669 -2.25 15.375 C-4.64673637 12.12228636 -5.06959657 10.0366009 -5 6 C-3.57194509 3.60065774 -2.00001615 2.00001615 0 0 Z " fill="#F9D546" transform="translate(130,788)"/>
<path d="M0 0 C0.33 0.66 0.66 1.32 1 2 C0.278125 2.556875 -0.44375 3.11375 -1.1875 3.6875 C-4.07040666 5.9634445 -4.07040666 5.9634445 -6.625 8.75 C-9 11 -9 11 -12 11 C-12.60411899 3.75057208 -12.60411899 3.75057208 -9.9375 0.4375 C-6.15235923 -1.41480293 -4.01912067 -1.08207095 0 0 Z " fill="#FE953A" transform="translate(15,445)"/>
<path d="M0 0 C3 0.25 3 0.25 5 2.25 C5.25 5.25 5.25 5.25 5 8.25 C3 10.25 3 10.25 0 10.5 C-3 10.25 -3 10.25 -5 8.25 C-5.25 5.25 -5.25 5.25 -5 2.25 C-3 0.25 -3 0.25 0 0 Z " fill="#F2F1EF" transform="translate(626,879.75)"/>
<path d="M0 0 C2.14809171 3.22213757 2.29386153 4.27775401 2 8 C0.12333671 9.87666329 -2.57476973 9.63286005 -5.08984375 10.01171875 C-7 10 -7 10 -9 8 C-9.36023622 5.19015752 -9.38332602 3.61758081 -7.875 1.1875 C-5.14012639 -0.54458662 -3.16259871 -0.40373601 0 0 Z " fill="#FE7F12" transform="translate(219,307)"/>
<path d="M0 0 C2.4375 1.8125 2.4375 1.8125 4 4 C4 4.99 4 5.98 4 7 C-0.95 7 -5.9 7 -11 7 C-9.30676242 0.22704966 -6.989962 -0.85841639 0 0 Z " fill="#F2F1ED" transform="translate(958,1073)"/>
<path d="M0 0 C1.875 1.5 1.875 1.5 3 3 C1.8553125 3.8971875 1.8553125 3.8971875 0.6875 4.8125 C-1.89109949 6.82087437 -1.89109949 6.82087437 -3.5625 8.625 C-5.22546327 10.21566052 -6.91031534 11.06324481 -9 12 C-10 11 -10 11 -10.3125 7.6875 C-10 4 -10 4 -8.375 1.5625 C-5.31881548 -0.44814771 -3.59350675 -0.53520313 0 0 Z " fill="#FE9439" transform="translate(355,946)"/>
<path d="M0 0 C5.56818182 0.56818182 5.56818182 0.56818182 7 2 C7.45691383 7.25450902 7.45691383 7.25450902 5.8125 9.9375 C4 11 4 11 1.4375 10.875 C-1 10 -1 10 -3 7 C-2.6758631 3.67759676 -2.39223697 2.39223697 0 0 Z " fill="#F2F1EA" transform="translate(331,450)"/>
<path d="M0 0 C5.45454545 0.45454545 5.45454545 0.45454545 8 3 C7.54545455 8.45454545 7.54545455 8.45454545 5 11 C1.70285207 10.67028521 0.3773161 10.3773161 -2 8 C-2.25 5 -2.25 5 -2 2 C-1.34 1.34 -0.68 0.68 0 0 Z " fill="#F2F0E9" transform="translate(464,359)"/>
<path d="M0 0 C2.31 0.33 4.62 0.66 7 1 C7.33 3.31 7.66 5.62 8 8 C1.375 10.125 1.375 10.125 -2 9 C-2.6875 6.75 -2.6875 6.75 -3 4 C-1.5625 1.6875 -1.5625 1.6875 0 0 Z " fill="#FE7907" transform="translate(821,1046)"/>
<path d="M0 0 C2.875 0.6875 2.875 0.6875 3.875 1.6875 C3.91592937 4.02047433 3.91741723 6.35455225 3.875 8.6875 C0.89287087 10.17856457 -1.84109658 9.80691467 -5.125 9.6875 C-6.125 8.6875 -6.125 8.6875 -6.375 5.25 C-6.2925 4.074375 -6.21 2.89875 -6.125 1.6875 C-3.125 -0.3125 -3.125 -0.3125 0 0 Z " fill="#FE8115" transform="translate(558.125,808.3125)"/>
<path d="M0 0 C2.8125 0.875 2.8125 0.875 4.8125 2.875 C4.090625 3.431875 3.36875 3.98875 2.625 4.5625 C-0.25836423 6.8479976 -0.25836423 6.8479976 -2.875 9.625 C-5.1875 11.875 -5.1875 11.875 -7.1875 11.875 C-8.62485246 9.00029507 -8.56922649 7.05605412 -8.1875 3.875 C-5.4610926 0.74765033 -4.18617911 -0.16416389 0 0 Z " fill="#FE973B" transform="translate(60.1875,516.125)"/>
<path d="M0 0 C1.670625 0.2475 1.670625 0.2475 3.375 0.5 C4.035 1.49 4.695 2.48 5.375 3.5 C2.27473691 6.77742098 -0.59598894 9.43104837 -4.625 11.5 C-5.285 11.5 -5.945 11.5 -6.625 11.5 C-7.66568369 7.77088344 -7.94713295 6.11742148 -6.125 2.625 C-3.625 0.5 -3.625 0.5 0 0 Z " fill="#FE953A" transform="translate(303.625,874.5)"/>
<path d="M0 0 C0.66 0.33 1.32 0.66 2 1 C1.95359375 1.58007812 1.9071875 2.16015625 1.859375 2.7578125 C1.59576998 8.46297833 2.30084503 11.40408019 6 16 C6.33 16.66 6.66 17.32 7 18 C3.18863862 17.73409107 1.23121539 17.17089833 -1.875 14.875 C-4 12 -4 12 -4.5625 8.5 C-3.92501775 4.53344376 -2.76383547 2.85020533 0 0 Z " fill="#F9D543" transform="translate(32,645)"/>
<path d="M0 0 C2.4375 0.8125 2.4375 0.8125 4.4375 2.8125 C4.5625 5.9375 4.5625 5.9375 4.4375 8.8125 C1.19528445 9.89323852 -1.16652937 10.02926408 -4.5625 9.8125 C-5.2225 9.1525 -5.8825 8.4925 -6.5625 7.8125 C-6.3487539 5.03380072 -5.8614626 3.26094389 -4.3125 0.9375 C-2.5625 -0.1875 -2.5625 -0.1875 0 0 Z " fill="#FF7A08" transform="translate(141.5625,43.1875)"/>
<path d="M0 0 C2.4375 0.8125 2.4375 0.8125 4.4375 2.8125 C4.6875 5.3125 4.6875 5.3125 4.4375 7.8125 C2.4375 9.8125 2.4375 9.8125 -0.5625 10.0625 C-3.5625 9.8125 -3.5625 9.8125 -5.5625 7.8125 C-5.93046448 4.94237704 -5.93759409 3.40475382 -4.375 0.9375 C-2.5625 -0.1875 -2.5625 -0.1875 0 0 Z " fill="#F2F0E8" transform="translate(577.5625,808.1875)"/>
<path d="M0 0 C2.875 0.8125 2.875 0.8125 4.875 1.8125 C4.875 3.8125 4.875 3.8125 2.75 6.25 C-0.08827403 8.77976598 -2.66490509 10.28362085 -6.125 11.8125 C-7.54541821 8.97166359 -7.43952272 6.95772722 -7.125 3.8125 C-4.90394539 0.48091809 -4.05028304 -0.24301698 0 0 Z " fill="#FE963B" transform="translate(255.125,803.1875)"/>
<path d="M0 0 C2.5 0.25 2.5 0.25 4.5 2.25 C4.75 5.25 4.75 5.25 4.5 8.25 C2.5 10.25 2.5 10.25 0.0625 10.5625 C-2.5 10.25 -2.5 10.25 -4.375 9.0625 C-5.5 7.25 -5.5 7.25 -5.3125 4.6875 C-4.22827241 1.43481722 -3.47807945 0.34780795 0 0 Z " fill="#F2F0E7" transform="translate(528.5,736.75)"/>
<path d="M0 0 C0.10957031 0.80824219 0.21914062 1.61648438 0.33203125 2.44921875 C0.49058594 3.51785156 0.64914063 4.58648438 0.8125 5.6875 C1.03873047 7.27111328 1.03873047 7.27111328 1.26953125 8.88671875 C2.02391759 12.10193753 3.15874987 14.28100323 5 17 C1.32147666 16.74919159 -0.55599012 16.38558753 -3.375 13.9375 C-5.6218798 9.87583267 -5.52043759 7.60959006 -5 3 C-3.38450752 0.65019276 -2.86103007 0 0 0 Z " fill="#F9D446" transform="translate(82,717)"/>
<path d="M0 0 C2.5625 0.3125 2.5625 0.3125 4.4375 1.5 C5.5625 3.3125 5.5625 3.3125 5.375 5.875 C4.5625 8.3125 4.5625 8.3125 2.5625 10.3125 C0.0625 10.625 0.0625 10.625 -2.4375 10.3125 C-4.58665785 7.08876323 -4.82036803 6.04546326 -4.4375 2.3125 C-2.4375 0.3125 -2.4375 0.3125 0 0 Z " fill="#F2F0E9" transform="translate(843.4375,1045.6875)"/>
<path d="M0 0 C5.56818182 0.56818182 5.56818182 0.56818182 7 2 C7.1875 4.9375 7.1875 4.9375 7 8 C5 10 5 10 2.5625 10.3125 C0 10 0 10 -1.875 8.8125 C-3 7 -3 7 -2.8125 4.4375 C-2 2 -2 2 0 0 Z " fill="#F2F0E9" transform="translate(975,955)"/>
<path d="M0 0 C5.45454545 0.45454545 5.45454545 0.45454545 8 3 C7.67028521 6.29714793 7.3773161 7.6226839 5 10 C2.5 10.25 2.5 10.25 0 10 C-2 8 -2 8 -2.25 5 C-2 2 -2 2 0 0 Z " fill="#F2F0E8" transform="translate(477,665)"/>
<path d="M0 0 C0.99 0.103125 1.98 0.20625 3 0.3125 C5 3.3125 5 3.3125 4.75 5.875 C4 8.3125 4 8.3125 2 10.3125 C-1.29714793 9.98278521 -2.6226839 9.6898161 -5 7.3125 C-5.25 4.8125 -5.25 4.8125 -5 2.3125 C-3 0.3125 -3 0.3125 0 0 Z " fill="#F2F0E9" transform="translate(662,645.6875)"/>
<path d="M0 0 C3.29714793 0.32971479 4.6226839 0.6226839 7 3 C7.25 5.5 7.25 5.5 7 8 C5 10 5 10 2 10.3125 C1.01 10.209375 0.02 10.10625 -1 10 C-3 7 -3 7 -2.75 4.4375 C-2 2 -2 2 0 0 Z " fill="#F2F0E8" transform="translate(611,574)"/>
<path d="M0 0 C6.72 0.72 6.72 0.72 8 2 C8.29573841 4.80951486 8.38243085 6.41628976 6.8125 8.8125 C4.36655047 10.41501866 2.86618213 10.4409511 0 10 C-2 7 -2 7 -1.6875 3.875 C-1 1 -1 1 0 0 Z " fill="#F2F0E7" transform="translate(379,522)"/>
<path d="M0 0 C2.9375 0.875 2.9375 0.875 4.9375 3.875 C2.05408466 8.08922242 -0.10553419 9.63575855 -5.0625 10.875 C-7.0625 7.875 -7.0625 7.875 -6.875 5.375 C-5.51486662 1.18997423 -4.55479903 -0.18591016 0 0 Z " fill="#FE8F2E" transform="translate(473.0625,970.125)"/>
<path d="M0 0 C1.0725 0.268125 2.145 0.53625 3.25 0.8125 C3.25 4.44125867 2.02206006 5.82989353 -0.3046875 8.515625 C-2.30721506 10.31248757 -4.10337395 10.66126423 -6.75 10.8125 C-7.79807883 7.05688421 -8.05352147 5.40689621 -6.25 1.875 C-3.75 -0.1875 -3.75 -0.1875 0 0 Z " fill="#FE963B" transform="translate(157.75,660.1875)"/>
<path d="M0 0 C1.0725 0.268125 2.145 0.53625 3.25 0.8125 C3.25 3.8125 3.25 3.8125 1.5 5.75 C0.7575 6.430625 0.015 7.11125 -0.75 7.8125 C-1.801875 8.92625 -1.801875 8.92625 -2.875 10.0625 C-4.75 11.8125 -4.75 11.8125 -6.75 11.8125 C-7.70523525 7.75275019 -8.14643275 5.6053655 -6.25 1.8125 C-3.75 -0.1875 -3.75 -0.1875 0 0 Z " fill="#FE9539" transform="translate(108.75,588.1875)"/>
<path d="M0 0 C2.5 0.25 2.5 0.25 4.5 2.25 C4.125 5.875 4.125 5.875 3.5 9.25 C-1.93440487 10.57841008 -1.93440487 10.57841008 -4.4375 9.125 C-5.5 7.25 -5.5 7.25 -5.3125 4.6875 C-4.22827241 1.43481722 -3.47807945 0.34780795 0 0 Z " fill="#F2F0E8" transform="translate(564.5,502.75)"/>
<path d="M0 0 C0.66 0.99 1.32 1.98 2 3 C-3.64524422 8.80205656 -3.64524422 8.80205656 -7 11 C-7.66 11 -8.32 11 -9 11 C-9.75 7.75 -9.75 7.75 -10 4 C-7.34444269 -0.14266941 -4.768158 -0.72558926 0 0 Z " fill="#FE943A" transform="translate(209,732)"/>
<path d="M0 0 C0.66 1.32 1.32 2.64 2 4 C-0.23407889 7.35111834 -1.26215824 8.81553956 -5.25 9.8125 C-6.1575 9.874375 -7.065 9.93625 -8 10 C-9.32850242 3.59903382 -9.32850242 3.59903382 -7.9375 1.0625 C-5.23787512 -0.41793945 -3.02429981 -0.20161999 0 0 Z " fill="#FE8E2C" transform="translate(524,1042)"/>
<path d="M0 0 C0.03738281 0.58007812 0.07476562 1.16015625 0.11328125 1.7578125 C0.53903667 6.81678864 1.37138991 10.54279158 4 15 C-2.36 14.52 -2.36 14.52 -5 12.375 C-6.46981805 8.88418213 -5.98413921 6.60851044 -5 3 C-1.90322581 0 -1.90322581 0 0 0 Z " fill="#F9D33B" transform="translate(351,955)"/>
<path d="M0 0 C2.4375 0.8125 2.4375 0.8125 4.4375 2.8125 C4.10778521 6.10964793 3.8148161 7.4351839 1.4375 9.8125 C-1.0625 10.0625 -1.0625 10.0625 -3.5625 9.8125 C-5.5625 7.8125 -5.5625 7.8125 -5.875 5.375 C-5.5625 2.8125 -5.5625 2.8125 -4.375 0.9375 C-2.5625 -0.1875 -2.5625 -0.1875 0 0 Z " fill="#F2F0EA" transform="translate(711.5625,717.1875)"/>
<path d="M0 0 C2.5 0.25 2.5 0.25 4.5 2.25 C4.75 5.25 4.75 5.25 4.5 8.25 C2.5 10.25 2.5 10.25 0 10.5 C-2.5 10.25 -2.5 10.25 -4.5 8.25 C-4.75 5.25 -4.75 5.25 -4.5 2.25 C-2.5 0.25 -2.5 0.25 0 0 Z " fill="#F2F1EC" transform="translate(515.5,430.75)"/>
<path d="M0 0 C2 2 2 2 2.1875 5.0625 C2 8 2 8 1 9 C-1.67058851 9.14115161 -4.32432238 9.04247107 -7 9 C-8.33157895 3.55263158 -8.33157895 3.55263158 -6.875 1.125 C-4.40522151 -0.3568671 -2.83386167 -0.3633156 0 0 Z " fill="#FE7F13" transform="translate(267,379)"/>
<path d="M0 0 C0.66 0.33 1.32 0.66 2 1 C1.9175 2.175625 1.835 3.35125 1.75 4.5625 C1.71575415 9.36548011 3.37066032 12.05599047 6 16 C-0.25201072 15.41018767 -0.25201072 15.41018767 -2.9375 13.9375 C-4.68349942 10.75361871 -4.66608551 7.48467894 -4 4 C-2 1.5 -2 1.5 0 0 Z " fill="#F9D238" transform="translate(398,1026)"/>
<path d="M0 0 C3 0.25 3 0.25 5 2.25 C4.43181818 7.81818182 4.43181818 7.81818182 3 9.25 C0.0625 9.4375 0.0625 9.4375 -3 9.25 C-5 7.25 -5 7.25 -5.25 4.75 C-4.86630891 0.91308908 -3.76694968 0.31391247 0 0 Z " fill="#F2F1EB" transform="translate(431,593.75)"/>
<path d="M0 0 C3.0625 0.1875 3.0625 0.1875 5.0625 2.1875 C5.3125 4.6875 5.3125 4.6875 5.0625 7.1875 C3.0625 9.1875 3.0625 9.1875 0.0625 9.4375 C-2.9375 9.1875 -2.9375 9.1875 -4.9375 7.1875 C-4.23164336 0.2701049 -4.23164336 0.2701049 0 0 Z " fill="#FE8114" transform="translate(312.9375,450.8125)"/>
<path d="M0 0 C1.010625 0.0825 2.02125 0.165 3.0625 0.25 C5.0625 3.25 5.0625 3.25 4.75 5.875 C4.0625 8.25 4.0625 8.25 3.0625 9.25 C0.125 9.4375 0.125 9.4375 -2.9375 9.25 C-3.5975 8.59 -4.2575 7.93 -4.9375 7.25 C-4.23447766 0.36038108 -4.23447766 0.36038108 0 0 Z " fill="#FE7907" transform="translate(774.9375,974.75)"/>
<path d="M0 0 C2.5625 0.3125 2.5625 0.3125 4.4375 1.5 C5.5625 3.3125 5.5625 3.3125 5.3125 5.9375 C4.5625 8.3125 4.5625 8.3125 3.5625 9.3125 C0.0625 9.4375 0.0625 9.4375 -3.4375 9.3125 C-4.4375 8.3125 -4.4375 8.3125 -4.625 5.375 C-4.39364421 1.59618883 -3.82906939 0.49090633 0 0 Z " fill="#FF8014" transform="translate(410.4375,593.6875)"/>
<path d="M0 0 C5.56818182 0.56818182 5.56818182 0.56818182 7 2 C7.125 5 7.125 5 7 8 C6 9 6 9 2.5625 9.1875 C-1 9 -1 9 -3 7 C-2.67028521 3.70285207 -2.3773161 2.3773161 0 0 Z " fill="#FF8114" transform="translate(506,737)"/>
<path d="M0 0 C2.4375 0.8125 2.4375 0.8125 4.4375 2.8125 C4.0625 5.9375 4.0625 5.9375 3.4375 8.8125 C0.7975 8.8125 -1.8425 8.8125 -4.5625 8.8125 C-5.89091008 3.37809513 -5.89091008 3.37809513 -4.4375 0.875 C-2.5625 -0.1875 -2.5625 -0.1875 0 0 Z " fill="#FF8114" transform="translate(362.5625,522.1875)"/>
<path d="M0 0 C0.66 0.66 1.32 1.32 2 2 C1.44444444 6.55555556 1.44444444 6.55555556 0 8 C-2.9375 8.1875 -2.9375 8.1875 -6 8 C-6.66 7.34 -7.32 6.68 -8 6 C-7.75 2.9375 -7.75 2.9375 -7 0 C-4.29393021 -1.35303489 -2.8671629 -0.7884698 0 0 Z " fill="#F2F0E8" transform="translate(395,97)"/>
<path d="M0 0 C3 0.1875 3 0.1875 6 1 C6.66 1.99 7.32 2.98 8 4 C4.71532847 8.74452555 4.71532847 8.74452555 1.375 9.9375 C0.59125 9.958125 -0.1925 9.97875 -1 10 C-1.66 9.34 -2.32 8.68 -3 8 C-2.54545455 2.54545455 -2.54545455 2.54545455 0 0 Z " fill="#FE8D2C" transform="translate(421,899)"/>
<path d="M0 0 C3.0625 0.1875 3.0625 0.1875 5.0625 2.1875 C4.6875 5.8125 4.6875 5.8125 4.0625 9.1875 C1.1875 9.3125 1.1875 9.3125 -1.9375 9.1875 C-3.9375 7.1875 -3.9375 7.1875 -4.125 4.125 C-3.8775 0.2475 -3.8775 0.2475 0 0 Z " fill="#FE8013" transform="translate(458.9375,665.8125)"/>
<path d="M0 0 C2.5 0.25 2.5 0.25 4.5 2.25 C4.87271546 5.15718056 4.89278138 6.66082793 3.25 9.125 C1.5 10.25 1.5 10.25 -0.5625 10.0625 C-2.5 9.25 -2.5 9.25 -4.5 7.25 C-4.75 4.75 -4.75 4.75 -4.5 2.25 C-2.5 0.25 -2.5 0.25 0 0 Z " fill="#F2F1EA" transform="translate(258.5,186.75)"/>
<path d="M0 0 C0.33 1.32 0.66 2.64 1 4 C-4.625 9 -4.625 9 -8 9 C-9.32561852 2.61292897 -9.32561852 2.61292897 -7.9375 0 C-5.08594286 -1.47177143 -3.03295907 -0.74138999 0 0 Z " fill="#FE8924" transform="translate(11,135)"/>
<path d="M0 0 C2.4375 0.9375 2.4375 0.9375 3.75 3 C4.0903125 3.9590625 4.0903125 3.9590625 4.4375 4.9375 C3.1175 6.5875 1.7975 8.2375 0.4375 9.9375 C-4.4375 9.0625 -4.4375 9.0625 -5.5625 7.9375 C-5.8607732 5.10390458 -5.91852594 3.49964622 -4.375 1.0625 C-2.5625 -0.0625 -2.5625 -0.0625 0 0 Z " fill="#FE9030" transform="translate(326.5625,756.0625)"/>
<path d="M0 0 C0.99 0.103125 1.98 0.20625 3 0.3125 C3.66 1.3025 4.32 2.2925 5 3.3125 C4.2884375 3.9621875 4.2884375 3.9621875 3.5625 4.625 C1.76313043 6.33559613 1.76313043 6.33559613 1 9.3125 C-0.65 9.6425 -2.3 9.9725 -4 10.3125 C-6 7.3125 -6 7.3125 -5.75 4.75 C-4.63712083 1.13314268 -3.78270321 0.39403158 0 0 Z " fill="#FE8D2C" transform="translate(82,397.6875)"/>
<path d="M0 0 C2.5 0.25 2.5 0.25 4.5 2.25 C3.93181818 7.81818182 3.93181818 7.81818182 2.5 9.25 C-0.5 9.375 -0.5 9.375 -3.5 9.25 C-4.5 8.25 -4.5 8.25 -4.6875 5.3125 C-4.45388199 1.49673913 -3.88335294 0.38833529 0 0 Z " fill="#FE851F" transform="translate(641.5,1065.75)"/>
<path d="M0 0 C0.66 3.96 1.32 7.92 2 12 C-0.3431213 11.74438677 -2.67843403 11.40729228 -5 11 C-6.39935013 8.20129973 -6.25265405 6.09501208 -6 3 C-4.04062003 0.20088576 -3.50082948 0 0 0 Z " fill="#F9D232" transform="translate(522,1051)"/>
<path d="M0 0 C0.99 0 1.98 0 3 0 C3.13277344 0.68707031 3.26554688 1.37414062 3.40234375 2.08203125 C3.57894531 2.98308594 3.75554687 3.88414062 3.9375 4.8125 C4.19853516 6.15248047 4.19853516 6.15248047 4.46484375 7.51953125 C4.97741153 10.11397171 4.97741153 10.11397171 6 13 C3.05380252 12.67264472 0.64639628 12.37532687 -1.9375 10.875 C-3.67793113 7.80365094 -2.78385655 5.31631617 -2 2 C-1.34 1.34 -0.68 0.68 0 0 Z " fill="#F9D441" transform="translate(251,813)"/>
<path d="M0 0 C0.66 0.99 1.32 1.98 2 3 C-2.37792329 8.71562208 -2.37792329 8.71562208 -5.1875 10 C-5.785625 10 -6.38375 10 -7 10 C-7.66 9.34 -8.32 8.68 -9 8 C-8.8125 5 -8.8125 5 -8 2 C-4.79191085 -0.1387261 -3.72301503 -0.47730962 0 0 Z " fill="#FE8E2D" transform="translate(36,326)"/>
<path d="M0 0 C0.12117187 0.66386719 0.24234375 1.32773437 0.3671875 2.01171875 C1.22547708 6.53424459 2.03971311 10.79938524 4 15 C0.73261975 14.7095662 -1.3867751 14.51431765 -3.9375 12.375 C-5.48427533 8.9175022 -4.92030612 6.61548831 -4 3 C-1.67741935 0 -1.67741935 0 0 0 Z " fill="#F9D339" transform="translate(8,454)"/>
<path d="M0 0 C2.5 0.25 2.5 0.25 4.5 2.25 C4.75 4.75 4.75 4.75 4.5 7.25 C2.5 9.25 2.5 9.25 0 9.5 C-2.5 9.25 -2.5 9.25 -4.5 7.25 C-4.75 4.75 -4.75 4.75 -4.5 2.25 C-2.5 0.25 -2.5 0.25 0 0 Z " fill="#FE7806" transform="translate(189.5,115.75)"/>
<path d="M0 0 C0.13277344 0.61488281 0.26554687 1.22976563 0.40234375 1.86328125 C0.57894531 2.67152344 0.75554687 3.47976563 0.9375 4.3125 C1.19853516 5.51326172 1.19853516 5.51326172 1.46484375 6.73828125 C1.99886159 9.145401 1.99886159 9.145401 3 12 C-2.34965035 12.35664336 -2.34965035 12.35664336 -4.9375 10.9375 C-6.66665678 7.78433176 -5.8590699 5.37491745 -5 2 C-2 0 -2 0 0 0 Z " fill="#FAD02B" transform="translate(473,979)"/>
<path d="M0 0 C0.66 0.33 1.32 0.66 2 1 C1.95875 1.9075 1.9175 2.815 1.875 3.75 C1.99812548 6.95126252 2.49925347 8.27989692 4 11 C4 11.99 4 12.98 4 14 C1.37344067 13.64505955 -0.57968261 13.27538036 -2.8125 11.8125 C-4.60972017 9.06937448 -4.45774125 7.20418874 -4 4 C-2 1.625 -2 1.625 0 0 Z " fill="#F9D238" transform="translate(301,884)"/>
<path d="M0 0 C0.13277344 0.68707031 0.26554688 1.37414062 0.40234375 2.08203125 C0.57894531 2.98308594 0.75554687 3.88414062 0.9375 4.8125 C1.19853516 6.15248047 1.19853516 6.15248047 1.46484375 7.51953125 C1.97741153 10.11397171 1.97741153 10.11397171 3 13 C-0.24915145 13.36101683 -1.6352257 13.24958242 -4.375 11.375 C-6 9 -6 9 -5.9375 5.9375 C-4.85044387 2.53139078 -3.87246291 0 0 0 Z " fill="#F9D33D" transform="translate(205,741)"/>
<path d="M0 0 C0.78375 0.04125 1.5675 0.0825 2.375 0.125 C3.5625 1.8125 3.5625 1.8125 4.375 4.125 C3.3125 6.875 3.3125 6.875 1.375 9.125 C-1.1875 9.5625 -1.1875 9.5625 -3.625 9.125 C-4.285 8.465 -4.945 7.805 -5.625 7.125 C-5.20813063 2.95630627 -4.65455455 0.22164545 0 0 Z " fill="#FE8E2D" transform="translate(277.625,684.875)"/>
<path d="M0 0 C3.125 0.375 3.125 0.375 6 1 C6.6875 2.75 6.6875 2.75 7 5 C5.60961147 7.56124202 4.63241116 8.73170436 1.9375 9.875 C1.298125 9.91625 0.65875 9.9575 0 10 C-2 8 -2 8 -2.25 5 C-2 2 -2 2 0 0 Z " fill="#FE8F2E" transform="translate(226,613)"/>
<path d="M0 0 C0.66 3.63 1.32 7.26 2 11 C-4.875 10.125 -4.875 10.125 -6 9 C-6.4640884 3.66298343 -6.4640884 3.66298343 -4.6875 1.125 C-3 0 -3 0 0 0 Z " fill="#FAD131" transform="translate(425,908)"/>
<path d="M0 0 C2.5 0.25 2.5 0.25 4.5 2.25 C4.11121812 5.26305957 3.23543126 6.64685311 1.5 9.25 C-1.125 9.4375 -1.125 9.4375 -3.5 9.25 C-4.125 5.875 -4.125 5.875 -4.5 2.25 C-2.5 0.25 -2.5 0.25 0 0 Z " fill="#FE8E2E" transform="translate(374.5,827.75)"/>
<path d="M0 0 C0.94875 0.04125 1.8975 0.0825 2.875 0.125 C3.625 1.8125 3.625 1.8125 3.875 4.125 C1.9375 6.875 1.9375 6.875 -0.125 9.125 C-1.775 8.795 -3.425 8.465 -5.125 8.125 C-5.25 5.25 -5.25 5.25 -5.125 2.125 C-3.125 0.125 -3.125 0.125 0 0 Z " fill="#FE8D2C" transform="translate(131.125,469.875)"/>
<path d="M0 0 C2.00720923 0.28674418 4.0085944 0.61866701 6 1 C6.6875 3.3125 6.6875 3.3125 7 6 C5.8125 7.875 5.8125 7.875 4 9 C1.02602384 8.72963853 0.14553974 8.14553974 -2 6 C-1.44444444 1.44444444 -1.44444444 1.44444444 0 0 Z " fill="#F3F0E5" transform="translate(926,884)"/>
<path d="M0 0 C0.80967438 2.91482778 1.21845993 4.46113217 0.0625 7.3125 C-0.4634375 8.1478125 -0.4634375 8.1478125 -1 9 C-5.75 8.25 -5.75 8.25 -8 6 C-7.75 3.4375 -7.75 3.4375 -7 1 C-4.53721199 -0.231394 -2.7204945 -0.07159196 0 0 Z " fill="#FE8821" transform="translate(59,207)"/>
<path d="M0 0 C0.99 0 1.98 0 3 0 C3.13277344 0.68707031 3.26554688 1.37414062 3.40234375 2.08203125 C3.57894531 2.98308594 3.75554687 3.88414062 3.9375 4.8125 C4.19853516 6.15248047 4.19853516 6.15248047 4.46484375 7.51953125 C4.97741153 10.11397171 4.97741153 10.11397171 6 13 C3.37344067 12.64505955 1.42031739 12.27538036 -0.8125 10.8125 C-2.56487651 8.13782006 -2.32559429 6.12570522 -2 3 C-1.34 2.01 -0.68 1.02 0 0 Z " fill="#F9D33C" transform="translate(153,670)"/>
<path d="M0 0 C0.78375 0.04125 1.5675 0.0825 2.375 0.125 C3.5625 1.8125 3.5625 1.8125 4.375 4.125 C3.3125 6.875 3.3125 6.875 1.375 9.125 C-1.3125 9.4375 -1.3125 9.4375 -3.625 9.125 C-4.25 5.75 -4.25 5.75 -4.625 2.125 C-2.625 0.125 -2.625 0.125 0 0 Z " fill="#FE8C2C" transform="translate(179.625,541.875)"/>
<path d="M0 0 C0.66 0.33 1.32 0.66 2 1 C1.9175 1.845625 1.835 2.69125 1.75 3.5625 C2.07537023 8.03634062 3.59932129 10.24893952 6 14 C2.625 13.6875 2.625 13.6875 -1 13 C-3.46324069 9.30513897 -3.38991688 7.36706908 -3 3 C-1.5 1.0625 -1.5 1.0625 0 0 Z " fill="#F9D237" transform="translate(56,526)"/>
<path d="M0 0 C0.48828125 1.98567708 0.9765625 3.97135417 1.46484375 5.95703125 C1.91010705 7.65683202 2.44433985 9.33301954 3 11 C-2.41139241 11.36075949 -2.41139241 11.36075949 -4.9375 9.8125 C-6 8 -6 8 -5.875 5.5 C-4.75864073 2.31040209 -3.61126462 0 0 0 Z " fill="#FACE22" transform="translate(8,143)"/>
<path d="M0 0 C4.55555556 0.55555556 4.55555556 0.55555556 6 2 C6.1875 4.4375 6.1875 4.4375 6 7 C5.34 7.66 4.68 8.32 4 9 C-0.55555556 8.44444444 -0.55555556 8.44444444 -2 7 C-2.1875 4.5625 -2.1875 4.5625 -2 2 C-1.34 1.34 -0.68 0.68 0 0 Z " fill="#F2F0E9" transform="translate(793,975)"/>
<path d="M0 0 C1.32 0 2.64 0 4 0 C4.36116046 1.4774746 4.71375048 2.95704675 5.0625 4.4375 C5.25972656 5.26121094 5.45695312 6.08492187 5.66015625 6.93359375 C5.77230469 7.61550781 5.88445312 8.29742188 6 9 C5 10 5 10 2.5625 10.1875 C0 10 0 10 -2 8 C-2.25 5 -2.25 5 -2 2 C-1.34 1.34 -0.68 0.68 0 0 Z " fill="#FAD233" transform="translate(275,694)"/>
<path d="M0 0 C2.6875 0.3125 2.6875 0.3125 5 1 C6.125 5.75 6.125 5.75 5 8 C3.02 8 1.04 8 -1 8 C-1.66 6.35 -2.32 4.7 -3 3 C-1.8125 1.4375 -1.8125 1.4375 0 0 Z " fill="#FE8720" transform="translate(591,995)"/>
<path d="M0 0 C1.2065625 0.0309375 1.2065625 0.0309375 2.4375 0.0625 C3.5625 2.375 3.5625 2.375 4.4375 5.0625 C3.4475 6.5475 3.4475 6.5475 2.4375 8.0625 C-0.0625 8.375 -0.0625 8.375 -2.5625 8.0625 C-3.2225 7.4025 -3.8825 6.7425 -4.5625 6.0625 C-3.83457637 0.09352625 -3.83457637 0.09352625 0 0 Z " fill="#FF7A08" transform="translate(726.5625,903.9375)"/>
<path d="M0 0 C0.66 3.96 1.32 7.92 2 12 C-3 11 -3 11 -5 9 C-5.55743243 3.76013514 -5.55743243 3.76013514 -3.625 1.125 C-2 0 -2 0 0 0 Z " fill="#FAD12D" transform="translate(33,335)"/>
<path d="M0 0 C1.32 0 2.64 0 4 0 C4.66 3.3 5.32 6.6 6 10 C3.125 10.1875 3.125 10.1875 0 10 C-2 7 -2 7 -1.6875 4.4375 C-1 2 -1 2 0 0 Z " fill="#FAD02E" transform="translate(372,837)"/>
<path d="M0 0 C1.9375 0.6875 1.9375 0.6875 4 2 C4.875 4.5 4.875 4.5 5 7 C4.34 7.66 3.68 8.32 3 9 C-1.55555556 8.44444444 -1.55555556 8.44444444 -3 7 C-3.25 4.5625 -3.25 4.5625 -3 2 C-2.01 1.34 -1.02 0.68 0 0 Z " fill="#F3EFE0" transform="translate(879,812)"/>
<path d="M0 0 C2.625 0.375 2.625 0.375 5 1 C5.6875 3.3125 5.6875 3.3125 6 6 C4.5625 7.8125 4.5625 7.8125 3 9 C0.525 8.01 0.525 8.01 -2 7 C-2.125 4.625 -2.125 4.625 -2 2 C-1.34 1.34 -0.68 0.68 0 0 Z " fill="#F3F0E6" transform="translate(439,168)"/>
<path d="M0 0 C0.99 0 1.98 0 3 0 C3.33 3.3 3.66 6.6 4 10 C2.35 10 0.7 10 -1 10 C-3 7 -3 7 -2.75 4.4375 C-2 2 -2 2 0 0 Z " fill="#FAD132" transform="translate(227,622)"/>
<path d="M0 0 C0.48828125 1.98567708 0.9765625 3.97135417 1.46484375 5.95703125 C1.91010705 7.65683202 2.44433985 9.33301954 3 11 C-1.44936709 11.36075949 -1.44936709 11.36075949 -3.8125 9.8125 C-5.42525784 7.35092224 -5.4334014 5.88934264 -5 3 C-2.72413793 0 -2.72413793 0 0 0 Z " fill="#FAD02A" transform="translate(82,407)"/>
<path d="M0 0 C2.625 0.375 2.625 0.375 5 1 C5.625 3.375 5.625 3.375 6 6 C5.34 6.66 4.68 7.32 4 8 C1.375 7.625 1.375 7.625 -1 7 C-1.625 4.625 -1.625 4.625 -2 2 C-1.34 1.34 -0.68 0.68 0 0 Z " fill="#FF8820" transform="translate(542,923)"/>
<path d="M0 0 C0.13277344 0.60328125 0.26554687 1.2065625 0.40234375 1.828125 C0.57894531 2.62734375 0.75554687 3.4265625 0.9375 4.25 C1.19853516 5.43335938 1.19853516 5.43335938 1.46484375 6.640625 C1.947556 8.76878703 2.46163178 10.88532842 3 13 C-1.75 12.25 -1.75 12.25 -4 10 C-4.56690141 3.76408451 -4.56690141 3.76408451 -2.5625 1.0625 C-1 0 -1 0 0 0 Z " fill="#F9D336" transform="translate(106,598)"/>
<path d="M0 0 C1.32 0 2.64 0 4 0 C4.66 2.97 5.32 5.94 6 9 C5.01 9.33 4.02 9.66 3 10 C0.3125 8.5625 0.3125 8.5625 -2 7 C-1.125 1.125 -1.125 1.125 0 0 Z " fill="#FAD233" transform="translate(177,551)"/>
<path d="M0 0 C1.875 0.6875 1.875 0.6875 2.875 1.6875 C3 4.1875 3 4.1875 2.875 6.6875 C1.875 7.6875 1.875 7.6875 -0.5625 7.875 C-3.125 7.6875 -3.125 7.6875 -5.125 5.6875 C-5.125 4.3675 -5.125 3.0475 -5.125 1.6875 C-2.125 -0.3125 -2.125 -0.3125 0 0 Z " fill="#F2F0E9" transform="translate(308.125,259.3125)"/>
<path d="M0 0 C2.625 0.375 2.625 0.375 5 1 C5.625 3.375 5.625 3.375 6 6 C5.34 6.66 4.68 7.32 4 8 C1.375 7.625 1.375 7.625 -1 7 C-1.625 4.625 -1.625 4.625 -2 2 C-1.34 1.34 -0.68 0.68 0 0 Z " fill="#FBCB07" transform="translate(237,197)"/>
<path d="M0 0 C2.5 0.125 2.5 0.125 3.5 1.125 C3.6875 3.5625 3.6875 3.5625 3.5 6.125 C2.84 6.785 2.18 7.445 1.5 8.125 C-1.43453261 7.75818342 -2.36437246 7.26062754 -4.5 5.125 C-3.7519084 0.18759542 -3.7519084 0.18759542 0 0 Z " fill="#F2F0E7" transform="translate(746.5,903.875)"/>
<path d="M0 0 C2.625 0.375 2.625 0.375 5 1 C5.625 2.8125 5.625 2.8125 6 5 C5.01 6.485 5.01 6.485 4 8 C2.35 7.67 0.7 7.34 -1 7 C-1.625 4.625 -1.625 4.625 -2 2 C-1.34 1.34 -0.68 0.68 0 0 Z " fill="#FE851F" transform="translate(103,279)"/>
<path d="M0 0 C0.598125 0.20625 1.19625 0.4125 1.8125 0.625 C2.4375 3 2.4375 3 2.8125 5.625 C2.1525 6.285 1.4925 6.945 0.8125 7.625 C-1.8125 7.25 -1.8125 7.25 -4.1875 6.625 C-4.5175 4.975 -4.8475 3.325 -5.1875 1.625 C-2.1875 -0.375 -2.1875 -0.375 0 0 Z " fill="#FF7B09" transform="translate(239.1875,188.375)"/>
<path d="M0 0 C3.53571429 0.53571429 3.53571429 0.53571429 5 2 C5.125 4.5 5.125 4.5 5 7 C4 8 4 8 1.5 8.125 C-1 8 -1 8 -2 7 C-2.1875 4.5625 -2.1875 4.5625 -2 2 C-1.34 1.34 -0.68 0.68 0 0 Z " fill="#FF7907" transform="translate(676,832)"/>
<path d="M0 0 C0.99 0 1.98 0 3 0 C3.99 3.3 4.98 6.6 6 10 C1 10 1 10 -0.875 8.8125 C-2 7 -2 7 -1.75 4.4375 C-1 2 -1 2 0 0 Z " fill="#FAD02B" transform="translate(128,479)"/>
<path d="M0 0 C0.99 0 1.98 0 3 0 C3.66 2.97 4.32 5.94 5 9 C2.625 9.125 2.625 9.125 0 9 C-2 7 -2 7 -2.25 4.5 C-2 2 -2 2 0 0 Z " fill="#FAD12A" transform="translate(324,766)"/>
<path d="M0 0 C1.32 0 2.64 0 4 0 C4.33 2.64 4.66 5.28 5 8 C2.625 8.125 2.625 8.125 0 8 C-0.66 7.34 -1.32 6.68 -2 6 C-1.44444444 1.44444444 -1.44444444 1.44444444 0 0 Z " fill="#FACE1D" transform="translate(591,1004)"/>
<path d="M0 0 C0.99 0 1.98 0 3 0 C3.66 2.97 4.32 5.94 5 9 C-0.875 8.125 -0.875 8.125 -2 7 C-2.1875 4.5625 -2.1875 4.5625 -2 2 C-1.34 1.34 -0.68 0.68 0 0 Z " fill="#FACF1E" transform="translate(54,216)"/>
<path d="M0 0 C2.125 0.375 2.125 0.375 4 1 C4.38133299 2.9914056 4.71325582 4.99279077 5 7 C4 8 4 8 1.5 8.125 C-1 8 -1 8 -2 7 C-2.1875 4.5625 -2.1875 4.5625 -2 2 C-1.34 1.34 -0.68 0.68 0 0 Z " fill="#FBCF1F" transform="translate(543,932)"/>
<path d="M0 0 C0.598125 0.20625 1.19625 0.4125 1.8125 0.625 C2.1425 2.275 2.4725 3.925 2.8125 5.625 C1.1625 6.285 -0.4875 6.945 -2.1875 7.625 C-3.6875 6.3125 -3.6875 6.3125 -5.1875 4.625 C-5.1875 3.635 -5.1875 2.645 -5.1875 1.625 C-2.1875 -0.375 -2.1875 -0.375 0 0 Z " fill="#F3EFE1" transform="translate(357.1875,331.375)"/>
<path d="M0 0 C2.125 0.375 2.125 0.375 4 1 C4.625 3.375 4.625 3.375 5 6 C4.34 6.66 3.68 7.32 3 8 C0.875 7.625 0.875 7.625 -1 7 C-1.625 4.625 -1.625 4.625 -2 2 C-1.34 1.34 -0.68 0.68 0 0 Z " fill="#F3F0E5" transform="translate(696,832)"/>
<path d="M0 0 C2.125 0.375 2.125 0.375 4 1 C4.625 3.375 4.625 3.375 5 6 C4.34 6.66 3.68 7.32 3 8 C0.875 7.625 0.875 7.625 -1 7 C-1.625 4.625 -1.625 4.625 -2 2 C-1.34 1.34 -0.68 0.68 0 0 Z " fill="#FF7F0C" transform="translate(627,761)"/>
<path d="M0 0 C2.125 0.375 2.125 0.375 4 1 C4.625 3.375 4.625 3.375 5 6 C4.34 6.66 3.68 7.32 3 8 C0.875 7.625 0.875 7.625 -1 7 C-1.625 4.625 -1.625 4.625 -2 2 C-1.34 1.34 -0.68 0.68 0 0 Z " fill="#F3F0E3" transform="translate(488,240)"/>
<path d="M0 0 C2.0625 0.4375 2.0625 0.4375 4 1 C4.33 2.65 4.66 4.3 5 6 C3.35 6.66 1.7 7.32 0 8 C-0.66 7.34 -1.32 6.68 -2 6 C-1.44444444 1.44444444 -1.44444444 1.44444444 0 0 Z " fill="#FBCF21" transform="translate(494,861)"/>
<path d="M0 0 C2.625 0.375 2.625 0.375 5 1 C5.33 2.32 5.66 3.64 6 5 C3 7 3 7 0.8125 6.625 C0.214375 6.41875 -0.38375 6.2125 -1 6 C-1.625 4.125 -1.625 4.125 -2 2 C-1.34 1.34 -0.68 0.68 0 0 Z " fill="#F3F0E3" transform="translate(829,742)"/>
<path d="M0 0 C2.0625 0.4375 2.0625 0.4375 4 1 C4.33 2.65 4.66 4.3 5 6 C3.35 6.66 1.7 7.32 0 8 C-0.66 7.34 -1.32 6.68 -2 6 C-1.44444444 1.44444444 -1.44444444 1.44444444 0 0 Z " fill="#FF8921" transform="translate(494,852)"/>
<path d="M0 0 C1.67542976 0.28604898 3.34385343 0.61781233 5 1 C5 2.65 5 4.3 5 6 C2.625 6.625 2.625 6.625 0 7 C-0.66 6.34 -1.32 5.68 -2 5 C-1.46428571 1.46428571 -1.46428571 1.46428571 0 0 Z " fill="#FF8720" transform="translate(152,351)"/>
<path d="M0 0 C0.66 2.31 1.32 4.62 2 7 C-0.375 7.625 -0.375 7.625 -3 8 C-3.66 7.34 -4.32 6.68 -5 6 C-4.75 3.4375 -4.75 3.4375 -4 1 C-2 0 -2 0 0 0 Z " fill="#FBCF20" transform="translate(106,288)"/>
<path d="M0 0 C0.33 1.65 0.66 3.3 1 5 C-0.9914056 5.38133299 -2.99279077 5.71325582 -5 6 C-6 5 -6 5 -6.0625 2.4375 C-6.041875 1.633125 -6.02125 0.82875 -6 0 C-3.50907189 -1.24546405 -2.58919267 -0.7767578 0 0 Z " fill="#FF7C0A" transform="translate(290,261)"/>
<path d="M0 0 C1.65 0 3.3 0 5 0 C5.33 1.65 5.66 3.3 6 5 C4.35 5.66 2.7 6.32 1 7 C0.34 6.34 -0.32 5.68 -1 5 C-0.625 2.375 -0.625 2.375 0 0 Z " fill="#FCCB09" transform="translate(627,771)"/>
<path d="M0 0 C2.0625 0.4375 2.0625 0.4375 4 1 C4.33 2.65 4.66 4.3 5 6 C2.625 6.625 2.625 6.625 0 7 C-0.66 6.34 -1.32 5.68 -2 5 C-1.46428571 1.46428571 -1.46428571 1.46428571 0 0 Z " fill="#FBCB07" transform="translate(286,269)"/>
<path d="M0 0 C2.0625 0.4375 2.0625 0.4375 4 1 C4.33 2.65 4.66 4.3 5 6 C2.625 6.625 2.625 6.625 0 7 C-0.66 6.34 -1.32 5.68 -2 5 C-1.46428571 1.46428571 -1.46428571 1.46428571 0 0 Z " fill="#F3EFE2" transform="translate(403,403)"/>
<path d="M0 0 C2.125 0.375 2.125 0.375 4 1 C4.625 2.875 4.625 2.875 5 5 C4.34 5.66 3.68 6.32 3 7 C1.68 7 0.36 7 -1 7 C-1.625 4.625 -1.625 4.625 -2 2 C-1.34 1.34 -0.68 0.68 0 0 Z " fill="#F3F0E4" transform="translate(537,312)"/>
<path d="M0 0 C2.125 0.375 2.125 0.375 4 1 C4.625 2.875 4.625 2.875 5 5 C4.34 5.66 3.68 6.32 3 7 C0.875 6.625 0.875 6.625 -1 6 C-1.625 4.125 -1.625 4.125 -2 2 C-1.34 1.34 -0.68 0.68 0 0 Z " fill="#F3EFDC" transform="translate(683,527)"/>
<path d="M0 0 C2.125 0.375 2.125 0.375 4 1 C4.625 2.875 4.625 2.875 5 5 C4.34 5.66 3.68 6.32 3 7 C0.875 6.625 0.875 6.625 -1 6 C-1.625 4.125 -1.625 4.125 -2 2 C-1.34 1.34 -0.68 0.68 0 0 Z " fill="#FF8A22" transform="translate(201,423)"/>
<path d="M0 0 C2.125 0.375 2.125 0.375 4 1 C4.625 2.875 4.625 2.875 5 5 C4.34 5.66 3.68 6.32 3 7 C0.875 6.625 0.875 6.625 -1 6 C-1.625 4.125 -1.625 4.125 -2 2 C-1.34 1.34 -0.68 0.68 0 0 Z " fill="#FCCC0A" transform="translate(335,341)"/>
<path d="M0 0 C2.125 0.9375 2.125 0.9375 4 2 C3.67 3.32 3.34 4.64 3 6 C1.125 6.625 1.125 6.625 -1 7 C-1.66 6.34 -2.32 5.68 -3 5 C-2.75 2.9375 -2.75 2.9375 -2 1 C-1.34 0.67 -0.68 0.34 0 0 Z " fill="#FF8E24" transform="translate(397,709)"/>
<path d="M0 0 C2.125 0.9375 2.125 0.9375 4 2 C3.67 3.32 3.34 4.64 3 6 C1.125 6.625 1.125 6.625 -1 7 C-1.66 6.34 -2.32 5.68 -3 5 C-2.75 2.9375 -2.75 2.9375 -2 1 C-1.34 0.67 -0.68 0.34 0 0 Z " fill="#FF8611" transform="translate(433,475)"/>
<path d="M0 0 C1.67542976 0.28604898 3.34385343 0.61781233 5 1 C4.67 2.65 4.34 4.3 4 6 C2.0625 6.5625 2.0625 6.5625 0 7 C-1 6 -1 6 -1.125 3.5 C-1 1 -1 1 0 0 Z " fill="#FF7D0B" transform="translate(334,332)"/>
<path d="M0 0 C0.99 0.33 1.98 0.66 3 1 C3.8125 2.9375 3.8125 2.9375 4 5 C3.34 5.66 2.68 6.32 2 7 C-0.125 6.625 -0.125 6.625 -2 6 C-2.33 4.68 -2.66 3.36 -3 2 C-2.01 1.34 -1.02 0.68 0 0 Z " fill="#FBD025" transform="translate(300,575)"/>
<path d="M0 0 C0.33 1.98 0.66 3.96 1 6 C-0.65614657 6.38218767 -2.32457024 6.71395102 -4 7 C-5 6 -5 6 -5.0625 3.4375 C-5.041875 2.633125 -5.02125 1.82875 -5 1 C-3 0 -3 0 0 0 Z " fill="#FACF1E" transform="translate(156,360)"/>
<path d="M0 0 C2.0625 0.4375 2.0625 0.4375 4 1 C4 2.65 4 4.3 4 6 C2.125 6.625 2.125 6.625 0 7 C-0.66 6.34 -1.32 5.68 -2 5 C-1.46428571 1.46428571 -1.46428571 1.46428571 0 0 Z " fill="#F3EFE1" transform="translate(781,670)"/>
<path d="M0 0 C2.125 0.9375 2.125 0.9375 4 2 C3.67 3.32 3.34 4.64 3 6 C1.0625 6.5625 1.0625 6.5625 -1 7 C-2 6 -2 6 -2.0625 3.4375 C-2.041875 2.633125 -2.02125 1.82875 -2 1 C-1.34 0.67 -0.68 0.34 0 0 Z " fill="#F3EFE0" transform="translate(648,761)"/>
<path d="M0 0 C2.125 0.375 2.125 0.375 4 1 C4.5625 2.9375 4.5625 2.9375 5 5 C4 6 4 6 1.4375 6.0625 C0.2309375 6.0315625 0.2309375 6.0315625 -1 6 C-1.625 4.125 -1.625 4.125 -2 2 C-1.34 1.34 -0.68 0.68 0 0 Z " fill="#F3F0E3" transform="translate(732,599)"/>
<path d="M0 0 C2.125 0.375 2.125 0.375 4 1 C4.5625 2.9375 4.5625 2.9375 5 5 C4 6 4 6 1.4375 6.0625 C0.2309375 6.0315625 0.2309375 6.0315625 -1 6 C-1.625 4.125 -1.625 4.125 -2 2 C-1.34 1.34 -0.68 0.68 0 0 Z " fill="#F3F0E4" transform="translate(452,475)"/>
<path d="M0 0 C1.32 0 2.64 0 4 0 C4.625 2.375 4.625 2.375 5 5 C4.34 5.66 3.68 6.32 3 7 C2.01 7 1.02 7 0 7 C-0.38133299 5.0085944 -0.71325582 3.00720923 -1 1 C-0.67 0.67 -0.34 0.34 0 0 Z " fill="#FBCF21" transform="translate(201,432)"/>
<path d="M0 0 C1.65 0.33 3.3 0.66 5 1 C4.67 2.65 4.34 4.3 4 6 C2.35 5.67 0.7 5.34 -1 5 C-0.67 3.35 -0.34 1.7 0 0 Z " fill="#F2F0E8" transform="translate(598,690)"/>
<path d="M0 0 C2.125 0.375 2.125 0.375 4 1 C3.67 2.65 3.34 4.3 3 6 C1.68 6 0.36 6 -1 6 C-1.625 4.125 -1.625 4.125 -2 2 C-1.34 1.34 -0.68 0.68 0 0 Z " fill="#F2F0E6" transform="translate(550,618)"/>
<path d="M0 0 C1.65 0.33 3.3 0.66 5 1 C5 2.32 5 3.64 5 5 C3.125 5.625 3.125 5.625 1 6 C0.34 5.34 -0.32 4.68 -1 4 C-0.625 1.875 -0.625 1.875 0 0 Z " fill="#F3F0E3" transform="translate(500,547)"/>
<path d="M0 0 C1.65 0.33 3.3 0.66 5 1 C4.67 2.65 4.34 4.3 4 6 C2.35 5.67 0.7 5.34 -1 5 C-0.67 3.35 -0.34 1.7 0 0 Z " fill="#F3F0E5" transform="translate(585,384)"/>
<path d="M0 0 C1.65 0 3.3 0 5 0 C5 1.65 5 3.3 5 5 C2.69 5 0.38 5 -2 5 C-1.34 3.35 -0.68 1.7 0 0 Z " fill="#FACF21" transform="translate(639,1075)"/>
<path d="M0 0 C2.125 0.375 2.125 0.375 4 1 C4 2.65 4 4.3 4 6 C2.35 6 0.7 6 -1 6 C-1.625 4.125 -1.625 4.125 -2 2 C-1.34 1.34 -0.68 0.68 0 0 Z " fill="#FCCC0B" transform="translate(579,699)"/>
<path d="M0 0 C1.32 0 2.64 0 4 0 C4.625 1.875 4.625 1.875 5 4 C4.34 4.66 3.68 5.32 3 6 C0.875 5.625 0.875 5.625 -1 5 C-1 1 -1 1 0 0 Z " fill="#FCCC09" transform="translate(530,628)"/>
<path d="M0 0 C2.125 0.9375 2.125 0.9375 4 2 C3.67 3.32 3.34 4.64 3 6 C1.68 6 0.36 6 -1 6 C-1.33 4.35 -1.66 2.7 -2 1 C-1.34 0.67 -0.68 0.34 0 0 Z " fill="#FF8720" transform="translate(299,566)"/>
<path d="M0 0 C1.67542976 0.28604898 3.34385343 0.61781233 5 1 C5 2.32 5 3.64 5 5 C3.35 5.33 1.7 5.66 0 6 C-0.38218767 4.34385343 -0.71395102 2.67542976 -1 1 C-0.67 0.67 -0.34 0.34 0 0 Z " fill="#F2F0E7" transform="translate(634,456)"/>
<path d="M0 0 C1.67542976 0.28604898 3.34385343 0.61781233 5 1 C4.67 2.65 4.34 4.3 4 6 C2.68 6 1.36 6 0 6 C-0.38218767 4.34385343 -0.71395102 2.67542976 -1 1 C-0.67 0.67 -0.34 0.34 0 0 Z " fill="#FCCB08" transform="translate(383,413)"/>
<path d="M0 0 C2.0625 0.4375 2.0625 0.4375 4 1 C3.67 2.65 3.34 4.3 3 6 C1.35 5.67 -0.3 5.34 -2 5 C-1.125 1.125 -1.125 1.125 0 0 Z " fill="#FF8921" transform="translate(445,781)"/>
<path d="M0 0 C1.67542976 0.28604898 3.34385343 0.61781233 5 1 C5 2.32 5 3.64 5 5 C3.35 5.33 1.7 5.66 0 6 C-0.38218767 4.34385343 -0.71395102 2.67542976 -1 1 C-0.67 0.67 -0.34 0.34 0 0 Z " fill="#FBCF1E" transform="translate(396,719)"/>
<path d="M0 0 C2.0625 0.4375 2.0625 0.4375 4 1 C4.33 2.32 4.66 3.64 5 5 C3.35 5.33 1.7 5.66 0 6 C-0.38218767 4.34385343 -0.71395102 2.67542976 -1 1 C-0.67 0.67 -0.34 0.34 0 0 Z " fill="#FF861F" transform="translate(347,638)"/>
<path d="M0 0 C1.67542976 0.28604898 3.34385343 0.61781233 5 1 C5 2.32 5 3.64 5 5 C3.35 5.33 1.7 5.66 0 6 C-0.38218767 4.34385343 -0.71395102 2.67542976 -1 1 C-0.67 0.67 -0.34 0.34 0 0 Z " fill="#FF7908" transform="translate(529,619)"/>
<path d="M0 0 C2.0625 0.4375 2.0625 0.4375 4 1 C4.33 2.32 4.66 3.64 5 5 C3.35 5.33 1.7 5.66 0 6 C-0.38218767 4.34385343 -0.71395102 2.67542976 -1 1 C-0.67 0.67 -0.34 0.34 0 0 Z " fill="#FBCB07" transform="translate(481,556)"/>
<path d="M0 0 C1.32 0 2.64 0 4 0 C4.33 1.65 4.66 3.3 5 5 C3.35 5.33 1.7 5.66 0 6 C-0.38218767 4.34385343 -0.71395102 2.67542976 -1 1 C-0.67 0.67 -0.34 0.34 0 0 Z " fill="#FACF1E" transform="translate(250,504)"/>
<path d="M0 0 C1.67542976 0.28604898 3.34385343 0.61781233 5 1 C4.67 2.65 4.34 4.3 4 6 C2.68 5.67 1.36 5.34 0 5 C-0.5625 3.0625 -0.5625 3.0625 -1 1 C-0.67 0.67 -0.34 0.34 0 0 Z " fill="#FF861F" transform="translate(249,495)"/>
<path d="M0 0 C1.32 0.66 2.64 1.32 4 2 C3.67 3.32 3.34 4.64 3 6 C1.68 6 0.36 6 -1 6 C-1.625 4.125 -1.625 4.125 -2 2 C-1.34 1.34 -0.68 0.68 0 0 Z " fill="#FCCB09" transform="translate(433,484)"/>
<path d="M0 0 C1.67542976 0.28604898 3.34385343 0.61781233 5 1 C4.67 2.32 4.34 3.64 4 5 C2.68 5.33 1.36 5.66 0 6 C-0.38218767 4.34385343 -0.71395102 2.67542976 -1 1 C-0.67 0.67 -0.34 0.34 0 0 Z " fill="#FF7907" transform="translate(383,404)"/>
<path d="M0 0 C-0.33 2.31 -0.66 4.62 -1 7 C-2.98 7 -4.96 7 -7 7 C-3.86206897 0 -3.86206897 0 0 0 Z " fill="#F9D44C" transform="translate(327,1073)"/>
<path d="M0 0 C2.125 0.9375 2.125 0.9375 4 2 C3.67 3.32 3.34 4.64 3 6 C1.35 5.67 -0.3 5.34 -2 5 C-2 3.68 -2 2.36 -2 1 C-1.34 0.67 -0.68 0.34 0 0 Z " fill="#FBCF1D" transform="translate(446,790)"/>
<path d="M0 0 C2.125 0.9375 2.125 0.9375 4 2 C3.67 3.32 3.34 4.64 3 6 C1.35 5.67 -0.3 5.34 -2 5 C-2 3.68 -2 2.36 -2 1 C-1.34 0.67 -0.68 0.34 0 0 Z " fill="#FF7907" transform="translate(579,690)"/>
<path d="M0 0 C2.125 0.375 2.125 0.375 4 1 C3.67 2.65 3.34 4.3 3 6 C1.68 6 0.36 6 -1 6 C-1.625 4.125 -1.625 4.125 -2 2 C-1.34 1.34 -0.68 0.68 0 0 Z " fill="#FBCE1D" transform="translate(348,647)"/>
<path d="M0 0 C2.125 0.375 2.125 0.375 4 1 C3.67 2.65 3.34 4.3 3 6 C1.68 6 0.36 6 -1 6 C-1.625 4.125 -1.625 4.125 -2 2 C-1.34 1.34 -0.68 0.68 0 0 Z " fill="#FF7807" transform="translate(481,547)"/>
<path d="M0 0 C0.66 0.33 1.32 0.66 2 1 C1.34 3.31 0.68 5.62 0 8 C-0.33 7.34 -0.66 6.68 -1 6 C-1.99 5.67 -2.98 5.34 -4 5 C-2.68 3.35 -1.36 1.7 0 0 Z " fill="#FDDE67" transform="translate(255,498)"/>
</svg>
